%TF.GenerationSoftware,KiCad,Pcbnew,6.0.11+dfsg-1*%
%TF.CreationDate,2025-12-01T13:38:19+08:00*%
%TF.ProjectId,auto_sprinkler,6175746f-5f73-4707-9269-6e6b6c65722e,rev?*%
%TF.SameCoordinates,Original*%
%TF.FileFunction,Soldermask,Bot*%
%TF.FilePolarity,Negative*%
%FSLAX46Y46*%
G04 Gerber Fmt 4.6, Leading zero omitted, Abs format (unit mm)*
G04 Created by KiCad (PCBNEW 6.0.11+dfsg-1) date 2025-12-01 13:38:19*
%MOMM*%
%LPD*%
G01*
G04 APERTURE LIST*
%ADD10C,1.400000*%
%ADD11O,1.400000X1.400000*%
%ADD12C,1.600000*%
%ADD13R,1.600000X1.600000*%
%ADD14O,1.600000X1.600000*%
%ADD15C,2.000000*%
%ADD16R,1.700000X1.700000*%
%ADD17R,1.500000X1.050000*%
%ADD18O,1.500000X1.050000*%
%ADD19R,2.400000X2.400000*%
%ADD20C,2.400000*%
%ADD21R,1.905000X2.000000*%
%ADD22O,1.905000X2.000000*%
%ADD23R,1.800000X4.400000*%
%ADD24O,1.800000X4.000000*%
%ADD25O,4.000000X1.800000*%
%ADD26R,2.000000X2.000000*%
%ADD27O,2.000000X2.000000*%
%ADD28R,1.800000X1.800000*%
%ADD29C,1.800000*%
%ADD30O,1.700000X1.700000*%
G04 APERTURE END LIST*
D10*
%TO.C,R2*%
X114095000Y-65020000D03*
D11*
X111555000Y-65020000D03*
%TD*%
D12*
%TO.C,C3*%
X96510000Y-77740000D03*
X96510000Y-82740000D03*
%TD*%
D10*
%TO.C,R7*%
X104735000Y-81200000D03*
D11*
X107275000Y-81200000D03*
%TD*%
D13*
%TO.C,U2*%
X118375000Y-62480000D03*
D14*
X118375000Y-65020000D03*
X118375000Y-67560000D03*
X118375000Y-70100000D03*
X125995000Y-70100000D03*
X125995000Y-67560000D03*
X125995000Y-65020000D03*
X125995000Y-62480000D03*
%TD*%
D15*
%TO.C,SW1*%
X122210000Y-89610000D03*
X122210000Y-83110000D03*
X126710000Y-89610000D03*
X126710000Y-83110000D03*
%TD*%
D16*
%TO.C,J4*%
X93980000Y-91440000D03*
%TD*%
D17*
%TO.C,Q1*%
X110755000Y-71624000D03*
D18*
X110755000Y-73910000D03*
X110755000Y-76196000D03*
%TD*%
D13*
%TO.C,C2*%
X84997210Y-78740000D03*
D12*
X82497210Y-78740000D03*
%TD*%
D19*
%TO.C,C1*%
X67210000Y-81280000D03*
D20*
X74710000Y-81280000D03*
%TD*%
D10*
%TO.C,R8*%
X112245000Y-68730000D03*
D11*
X114785000Y-68730000D03*
%TD*%
D21*
%TO.C,Q2*%
X86360000Y-55880000D03*
D22*
X83820000Y-55880000D03*
X81280000Y-55880000D03*
%TD*%
D23*
%TO.C,J5*%
X72520000Y-57820000D03*
D24*
X66720000Y-57820000D03*
D25*
X69520000Y-62620000D03*
%TD*%
D10*
%TO.C,R3*%
X118355000Y-79320000D03*
D11*
X115815000Y-79320000D03*
%TD*%
D26*
%TO.C,D1*%
X76200000Y-68580000D03*
D27*
X66040000Y-68580000D03*
%TD*%
D10*
%TO.C,R6*%
X103135000Y-89120886D03*
D11*
X105675000Y-89120886D03*
%TD*%
D28*
%TO.C,D2*%
X114117220Y-57402856D03*
D29*
X111577220Y-57402856D03*
%TD*%
D16*
%TO.C,J2*%
X130690000Y-84110000D03*
D30*
X130690000Y-86650000D03*
X130690000Y-89190000D03*
%TD*%
D17*
%TO.C,Q3*%
X109978370Y-85034886D03*
D18*
X109978370Y-87320886D03*
X109978370Y-89606886D03*
%TD*%
D29*
%TO.C,RV1*%
X104125000Y-55335000D03*
X101585000Y-55335000D03*
X99045000Y-55335000D03*
%TD*%
D10*
%TO.C,R1*%
X120915000Y-54860000D03*
D11*
X123455000Y-54860000D03*
%TD*%
D10*
%TO.C,R5*%
X115835000Y-87060000D03*
D11*
X118375000Y-87060000D03*
%TD*%
D10*
%TO.C,R4*%
X104085000Y-75980000D03*
D11*
X106625000Y-75980000D03*
%TD*%
D16*
%TO.C,J3*%
X86360000Y-91440000D03*
%TD*%
D21*
%TO.C,U1*%
X89020000Y-69550000D03*
D22*
X91560000Y-69550000D03*
X94100000Y-69550000D03*
%TD*%
D16*
%TO.C,J1*%
X127030000Y-78740000D03*
D30*
X129570000Y-78740000D03*
%TD*%
M02*
