M48
; DRILL file {KiCad 6.0.11+dfsg-1} date Mon 01 Dec 2025 13:38:24 WITA
; FORMAT={-:-/ absolute / inch / decimal}
; #@! TF.CreationDate,2025-12-01T13:38:24+08:00
; #@! TF.GenerationSoftware,Kicad,Pcbnew,6.0.11+dfsg-1
; #@! TF.FileFunction,Plated,1,2,PTH
FMAT,2
INCH
; #@! TA.AperFunction,Plated,PTH,ComponentDrill
T1C0.0276
; #@! TA.AperFunction,Plated,PTH,ComponentDrill
T2C0.0295
; #@! TA.AperFunction,Plated,PTH,ComponentDrill
T3C0.0315
; #@! TA.AperFunction,Plated,PTH,ComponentDrill
T4C0.0354
; #@! TA.AperFunction,Plated,PTH,ComponentDrill
T5C0.0394
; #@! TA.AperFunction,Plated,PTH,ComponentDrill
T6C0.0433
; #@! TA.AperFunction,Plated,PTH,ComponentDrill
T7C0.0472
%
G90
G05
T1
X4.0604Y-3.5087
X4.0978Y-2.9913
X4.1234Y-3.1969
X4.1604Y-3.5087
X4.1978Y-2.9913
X4.2234Y-3.1969
X4.3919Y-2.5598
X4.4191Y-2.7059
X4.4919Y-2.5598
X4.5191Y-2.7059
X4.5596Y-3.1228
X4.5604Y-3.4276
X4.6596Y-3.1228
X4.6604Y-3.4276
X4.7604Y-2.1598
X4.8604Y-2.1598
T2
X4.3299Y-3.3478
X4.3299Y-3.4378
X4.3299Y-3.5278
X4.3604Y-2.8198
X4.3604Y-2.9098
X4.3604Y-2.9998
T3
X3.2479Y-3.1
X3.3463Y-3.1
X3.7996Y-3.0606
X3.7996Y-3.2575
X4.6604Y-2.4598
X4.6604Y-2.5598
X4.6604Y-2.6598
X4.6604Y-2.7598
X4.9604Y-2.4598
X4.9604Y-2.5598
X4.9604Y-2.6598
X4.9604Y-2.7598
T4
X4.3928Y-2.26
X4.4928Y-2.26
T5
X2.6Y-2.7
X3.0Y-2.7
X3.4Y-3.6
X3.7Y-3.6
X3.8994Y-2.1785
X3.9994Y-2.1785
X4.0994Y-2.1785
X5.0012Y-3.1
X5.1012Y-3.1
X5.1453Y-3.3114
X5.1453Y-3.4114
X5.1453Y-3.5114
T6
X3.2Y-2.2
X3.3Y-2.2
X3.4Y-2.2
X3.5047Y-2.7382
X3.6047Y-2.7382
X3.7047Y-2.7382
X4.8114Y-3.272
X4.8114Y-3.528
X4.9886Y-3.272
X4.9886Y-3.528
T7
X2.6461Y-3.2
X2.9413Y-3.2
T3
G00X2.6268Y-2.2331
M15
G01X2.6268Y-2.3197
M16
G05
G00X2.6937Y-2.4654
M15
G01X2.7803Y-2.4654
M16
G05
G00X2.8551Y-2.2252
M15
G01X2.8551Y-2.3276
M16
G05
T0
M30
