%TF.GenerationSoftware,KiCad,Pcbnew,6.0.11+dfsg-1*%
%TF.CreationDate,2025-12-01T13:38:19+08:00*%
%TF.ProjectId,auto_sprinkler,6175746f-5f73-4707-9269-6e6b6c65722e,rev?*%
%TF.SameCoordinates,Original*%
%TF.FileFunction,Legend,Top*%
%TF.FilePolarity,Positive*%
%FSLAX46Y46*%
G04 Gerber Fmt 4.6, Leading zero omitted, Abs format (unit mm)*
G04 Created by KiCad (PCBNEW 6.0.11+dfsg-1) date 2025-12-01 13:38:19*
%MOMM*%
%LPD*%
G01*
G04 APERTURE LIST*
%ADD10C,0.150000*%
%ADD11C,0.120000*%
G04 APERTURE END LIST*
D10*
X128778000Y-52959000D02*
X132588000Y-52959000D01*
X132588000Y-52959000D02*
X132588000Y-62357000D01*
X132588000Y-62357000D02*
X128778000Y-62357000D01*
X128778000Y-62357000D02*
X128778000Y-52959000D01*
%TO.C,R2*%
X106513333Y-63952380D02*
X106180000Y-63476190D01*
X105941904Y-63952380D02*
X105941904Y-62952380D01*
X106322857Y-62952380D01*
X106418095Y-63000000D01*
X106465714Y-63047619D01*
X106513333Y-63142857D01*
X106513333Y-63285714D01*
X106465714Y-63380952D01*
X106418095Y-63428571D01*
X106322857Y-63476190D01*
X105941904Y-63476190D01*
X106894285Y-63047619D02*
X106941904Y-63000000D01*
X107037142Y-62952380D01*
X107275238Y-62952380D01*
X107370476Y-63000000D01*
X107418095Y-63047619D01*
X107465714Y-63142857D01*
X107465714Y-63238095D01*
X107418095Y-63380952D01*
X106846666Y-63952380D01*
X107465714Y-63952380D01*
%TO.C,C3*%
X100317142Y-80406666D02*
X100364761Y-80454285D01*
X100412380Y-80597142D01*
X100412380Y-80692380D01*
X100364761Y-80835238D01*
X100269523Y-80930476D01*
X100174285Y-80978095D01*
X99983809Y-81025714D01*
X99840952Y-81025714D01*
X99650476Y-80978095D01*
X99555238Y-80930476D01*
X99460000Y-80835238D01*
X99412380Y-80692380D01*
X99412380Y-80597142D01*
X99460000Y-80454285D01*
X99507619Y-80406666D01*
X99412380Y-80073333D02*
X99412380Y-79454285D01*
X99793333Y-79787619D01*
X99793333Y-79644761D01*
X99840952Y-79549523D01*
X99888571Y-79501904D01*
X99983809Y-79454285D01*
X100221904Y-79454285D01*
X100317142Y-79501904D01*
X100364761Y-79549523D01*
X100412380Y-79644761D01*
X100412380Y-79930476D01*
X100364761Y-80025714D01*
X100317142Y-80073333D01*
%TO.C,R7*%
X105838333Y-79732380D02*
X105505000Y-79256190D01*
X105266904Y-79732380D02*
X105266904Y-78732380D01*
X105647857Y-78732380D01*
X105743095Y-78780000D01*
X105790714Y-78827619D01*
X105838333Y-78922857D01*
X105838333Y-79065714D01*
X105790714Y-79160952D01*
X105743095Y-79208571D01*
X105647857Y-79256190D01*
X105266904Y-79256190D01*
X106171666Y-78732380D02*
X106838333Y-78732380D01*
X106409761Y-79732380D01*
%TO.C,U2*%
X121423095Y-59602380D02*
X121423095Y-60411904D01*
X121470714Y-60507142D01*
X121518333Y-60554761D01*
X121613571Y-60602380D01*
X121804047Y-60602380D01*
X121899285Y-60554761D01*
X121946904Y-60507142D01*
X121994523Y-60411904D01*
X121994523Y-59602380D01*
X122423095Y-59697619D02*
X122470714Y-59650000D01*
X122565952Y-59602380D01*
X122804047Y-59602380D01*
X122899285Y-59650000D01*
X122946904Y-59697619D01*
X122994523Y-59792857D01*
X122994523Y-59888095D01*
X122946904Y-60030952D01*
X122375476Y-60602380D01*
X122994523Y-60602380D01*
%TO.C,SW1*%
X120614761Y-87693333D02*
X120662380Y-87550476D01*
X120662380Y-87312380D01*
X120614761Y-87217142D01*
X120567142Y-87169523D01*
X120471904Y-87121904D01*
X120376666Y-87121904D01*
X120281428Y-87169523D01*
X120233809Y-87217142D01*
X120186190Y-87312380D01*
X120138571Y-87502857D01*
X120090952Y-87598095D01*
X120043333Y-87645714D01*
X119948095Y-87693333D01*
X119852857Y-87693333D01*
X119757619Y-87645714D01*
X119710000Y-87598095D01*
X119662380Y-87502857D01*
X119662380Y-87264761D01*
X119710000Y-87121904D01*
X119662380Y-86788571D02*
X120662380Y-86550476D01*
X119948095Y-86360000D01*
X120662380Y-86169523D01*
X119662380Y-85931428D01*
X120662380Y-85026666D02*
X120662380Y-85598095D01*
X120662380Y-85312380D02*
X119662380Y-85312380D01*
X119805238Y-85407619D01*
X119900476Y-85502857D01*
X119948095Y-85598095D01*
%TO.C,J4*%
X93646666Y-88562380D02*
X93646666Y-89276666D01*
X93599047Y-89419523D01*
X93503809Y-89514761D01*
X93360952Y-89562380D01*
X93265714Y-89562380D01*
X94551428Y-88895714D02*
X94551428Y-89562380D01*
X94313333Y-88514761D02*
X94075238Y-89229047D01*
X94694285Y-89229047D01*
%TO.C,Q1*%
X114862619Y-74005238D02*
X114815000Y-74100476D01*
X114719761Y-74195714D01*
X114576904Y-74338571D01*
X114529285Y-74433809D01*
X114529285Y-74529047D01*
X114767380Y-74481428D02*
X114719761Y-74576666D01*
X114624523Y-74671904D01*
X114434047Y-74719523D01*
X114100714Y-74719523D01*
X113910238Y-74671904D01*
X113815000Y-74576666D01*
X113767380Y-74481428D01*
X113767380Y-74290952D01*
X113815000Y-74195714D01*
X113910238Y-74100476D01*
X114100714Y-74052857D01*
X114434047Y-74052857D01*
X114624523Y-74100476D01*
X114719761Y-74195714D01*
X114767380Y-74290952D01*
X114767380Y-74481428D01*
X114767380Y-73100476D02*
X114767380Y-73671904D01*
X114767380Y-73386190D02*
X113767380Y-73386190D01*
X113910238Y-73481428D01*
X114005476Y-73576666D01*
X114053095Y-73671904D01*
%TO.C,C2*%
X83580543Y-82847142D02*
X83532924Y-82894761D01*
X83390067Y-82942380D01*
X83294829Y-82942380D01*
X83151971Y-82894761D01*
X83056733Y-82799523D01*
X83009114Y-82704285D01*
X82961495Y-82513809D01*
X82961495Y-82370952D01*
X83009114Y-82180476D01*
X83056733Y-82085238D01*
X83151971Y-81990000D01*
X83294829Y-81942380D01*
X83390067Y-81942380D01*
X83532924Y-81990000D01*
X83580543Y-82037619D01*
X83961495Y-82037619D02*
X84009114Y-81990000D01*
X84104352Y-81942380D01*
X84342448Y-81942380D01*
X84437686Y-81990000D01*
X84485305Y-82037619D01*
X84532924Y-82132857D01*
X84532924Y-82228095D01*
X84485305Y-82370952D01*
X83913876Y-82942380D01*
X84532924Y-82942380D01*
%TO.C,C1*%
X70793333Y-74137142D02*
X70745714Y-74184761D01*
X70602857Y-74232380D01*
X70507619Y-74232380D01*
X70364761Y-74184761D01*
X70269523Y-74089523D01*
X70221904Y-73994285D01*
X70174285Y-73803809D01*
X70174285Y-73660952D01*
X70221904Y-73470476D01*
X70269523Y-73375238D01*
X70364761Y-73280000D01*
X70507619Y-73232380D01*
X70602857Y-73232380D01*
X70745714Y-73280000D01*
X70793333Y-73327619D01*
X71745714Y-74232380D02*
X71174285Y-74232380D01*
X71460000Y-74232380D02*
X71460000Y-73232380D01*
X71364761Y-73375238D01*
X71269523Y-73470476D01*
X71174285Y-73518095D01*
%TO.C,R8*%
X106513333Y-69032380D02*
X106180000Y-68556190D01*
X105941904Y-69032380D02*
X105941904Y-68032380D01*
X106322857Y-68032380D01*
X106418095Y-68080000D01*
X106465714Y-68127619D01*
X106513333Y-68222857D01*
X106513333Y-68365714D01*
X106465714Y-68460952D01*
X106418095Y-68508571D01*
X106322857Y-68556190D01*
X105941904Y-68556190D01*
X107084761Y-68460952D02*
X106989523Y-68413333D01*
X106941904Y-68365714D01*
X106894285Y-68270476D01*
X106894285Y-68222857D01*
X106941904Y-68127619D01*
X106989523Y-68080000D01*
X107084761Y-68032380D01*
X107275238Y-68032380D01*
X107370476Y-68080000D01*
X107418095Y-68127619D01*
X107465714Y-68222857D01*
X107465714Y-68270476D01*
X107418095Y-68365714D01*
X107370476Y-68413333D01*
X107275238Y-68460952D01*
X107084761Y-68460952D01*
X106989523Y-68508571D01*
X106941904Y-68556190D01*
X106894285Y-68651428D01*
X106894285Y-68841904D01*
X106941904Y-68937142D01*
X106989523Y-68984761D01*
X107084761Y-69032380D01*
X107275238Y-69032380D01*
X107370476Y-68984761D01*
X107418095Y-68937142D01*
X107465714Y-68841904D01*
X107465714Y-68651428D01*
X107418095Y-68556190D01*
X107370476Y-68508571D01*
X107275238Y-68460952D01*
%TO.C,Q2*%
X83724761Y-60697619D02*
X83629523Y-60650000D01*
X83534285Y-60554761D01*
X83391428Y-60411904D01*
X83296190Y-60364285D01*
X83200952Y-60364285D01*
X83248571Y-60602380D02*
X83153333Y-60554761D01*
X83058095Y-60459523D01*
X83010476Y-60269047D01*
X83010476Y-59935714D01*
X83058095Y-59745238D01*
X83153333Y-59650000D01*
X83248571Y-59602380D01*
X83439047Y-59602380D01*
X83534285Y-59650000D01*
X83629523Y-59745238D01*
X83677142Y-59935714D01*
X83677142Y-60269047D01*
X83629523Y-60459523D01*
X83534285Y-60554761D01*
X83439047Y-60602380D01*
X83248571Y-60602380D01*
X84058095Y-59697619D02*
X84105714Y-59650000D01*
X84200952Y-59602380D01*
X84439047Y-59602380D01*
X84534285Y-59650000D01*
X84581904Y-59697619D01*
X84629523Y-59792857D01*
X84629523Y-59888095D01*
X84581904Y-60030952D01*
X84010476Y-60602380D01*
X84629523Y-60602380D01*
%TO.C,J5*%
X74472380Y-58153333D02*
X75186666Y-58153333D01*
X75329523Y-58200952D01*
X75424761Y-58296190D01*
X75472380Y-58439047D01*
X75472380Y-58534285D01*
X74472380Y-57200952D02*
X74472380Y-57677142D01*
X74948571Y-57724761D01*
X74900952Y-57677142D01*
X74853333Y-57581904D01*
X74853333Y-57343809D01*
X74900952Y-57248571D01*
X74948571Y-57200952D01*
X75043809Y-57153333D01*
X75281904Y-57153333D01*
X75377142Y-57200952D01*
X75424761Y-57248571D01*
X75472380Y-57343809D01*
X75472380Y-57581904D01*
X75424761Y-57677142D01*
X75377142Y-57724761D01*
%TO.C,R3*%
X116918333Y-81692380D02*
X116585000Y-81216190D01*
X116346904Y-81692380D02*
X116346904Y-80692380D01*
X116727857Y-80692380D01*
X116823095Y-80740000D01*
X116870714Y-80787619D01*
X116918333Y-80882857D01*
X116918333Y-81025714D01*
X116870714Y-81120952D01*
X116823095Y-81168571D01*
X116727857Y-81216190D01*
X116346904Y-81216190D01*
X117251666Y-80692380D02*
X117870714Y-80692380D01*
X117537380Y-81073333D01*
X117680238Y-81073333D01*
X117775476Y-81120952D01*
X117823095Y-81168571D01*
X117870714Y-81263809D01*
X117870714Y-81501904D01*
X117823095Y-81597142D01*
X117775476Y-81644761D01*
X117680238Y-81692380D01*
X117394523Y-81692380D01*
X117299285Y-81644761D01*
X117251666Y-81597142D01*
%TO.C,D1*%
X70381904Y-71452380D02*
X70381904Y-70452380D01*
X70620000Y-70452380D01*
X70762857Y-70500000D01*
X70858095Y-70595238D01*
X70905714Y-70690476D01*
X70953333Y-70880952D01*
X70953333Y-71023809D01*
X70905714Y-71214285D01*
X70858095Y-71309523D01*
X70762857Y-71404761D01*
X70620000Y-71452380D01*
X70381904Y-71452380D01*
X71905714Y-71452380D02*
X71334285Y-71452380D01*
X71620000Y-71452380D02*
X71620000Y-70452380D01*
X71524761Y-70595238D01*
X71429523Y-70690476D01*
X71334285Y-70738095D01*
X75938095Y-71032380D02*
X75938095Y-70032380D01*
X76509523Y-71032380D02*
X76080952Y-70460952D01*
X76509523Y-70032380D02*
X75938095Y-70603809D01*
%TO.C,R6*%
X104238333Y-87653266D02*
X103905000Y-87177076D01*
X103666904Y-87653266D02*
X103666904Y-86653266D01*
X104047857Y-86653266D01*
X104143095Y-86700886D01*
X104190714Y-86748505D01*
X104238333Y-86843743D01*
X104238333Y-86986600D01*
X104190714Y-87081838D01*
X104143095Y-87129457D01*
X104047857Y-87177076D01*
X103666904Y-87177076D01*
X105095476Y-86653266D02*
X104905000Y-86653266D01*
X104809761Y-86700886D01*
X104762142Y-86748505D01*
X104666904Y-86891362D01*
X104619285Y-87081838D01*
X104619285Y-87462790D01*
X104666904Y-87558028D01*
X104714523Y-87605647D01*
X104809761Y-87653266D01*
X105000238Y-87653266D01*
X105095476Y-87605647D01*
X105143095Y-87558028D01*
X105190714Y-87462790D01*
X105190714Y-87224695D01*
X105143095Y-87129457D01*
X105095476Y-87081838D01*
X105000238Y-87034219D01*
X104809761Y-87034219D01*
X104714523Y-87081838D01*
X104666904Y-87129457D01*
X104619285Y-87224695D01*
%TO.C,D2*%
X112109124Y-60815236D02*
X112109124Y-59815236D01*
X112347220Y-59815236D01*
X112490077Y-59862856D01*
X112585315Y-59958094D01*
X112632934Y-60053332D01*
X112680553Y-60243808D01*
X112680553Y-60386665D01*
X112632934Y-60577141D01*
X112585315Y-60672379D01*
X112490077Y-60767617D01*
X112347220Y-60815236D01*
X112109124Y-60815236D01*
X113061505Y-59910475D02*
X113109124Y-59862856D01*
X113204362Y-59815236D01*
X113442458Y-59815236D01*
X113537696Y-59862856D01*
X113585315Y-59910475D01*
X113632934Y-60005713D01*
X113632934Y-60100951D01*
X113585315Y-60243808D01*
X113013886Y-60815236D01*
X113632934Y-60815236D01*
%TO.C,J2*%
X130356666Y-81232380D02*
X130356666Y-81946666D01*
X130309047Y-82089523D01*
X130213809Y-82184761D01*
X130070952Y-82232380D01*
X129975714Y-82232380D01*
X130785238Y-81327619D02*
X130832857Y-81280000D01*
X130928095Y-81232380D01*
X131166190Y-81232380D01*
X131261428Y-81280000D01*
X131309047Y-81327619D01*
X131356666Y-81422857D01*
X131356666Y-81518095D01*
X131309047Y-81660952D01*
X130737619Y-82232380D01*
X131356666Y-82232380D01*
%TO.C,Q3*%
X114085989Y-87416124D02*
X114038370Y-87511362D01*
X113943131Y-87606600D01*
X113800274Y-87749457D01*
X113752655Y-87844695D01*
X113752655Y-87939933D01*
X113990750Y-87892314D02*
X113943131Y-87987552D01*
X113847893Y-88082790D01*
X113657417Y-88130409D01*
X113324084Y-88130409D01*
X113133608Y-88082790D01*
X113038370Y-87987552D01*
X112990750Y-87892314D01*
X112990750Y-87701838D01*
X113038370Y-87606600D01*
X113133608Y-87511362D01*
X113324084Y-87463743D01*
X113657417Y-87463743D01*
X113847893Y-87511362D01*
X113943131Y-87606600D01*
X113990750Y-87701838D01*
X113990750Y-87892314D01*
X112990750Y-87130409D02*
X112990750Y-86511362D01*
X113371703Y-86844695D01*
X113371703Y-86701838D01*
X113419322Y-86606600D01*
X113466941Y-86558981D01*
X113562179Y-86511362D01*
X113800274Y-86511362D01*
X113895512Y-86558981D01*
X113943131Y-86606600D01*
X113990750Y-86701838D01*
X113990750Y-86987552D01*
X113943131Y-87082790D01*
X113895512Y-87130409D01*
%TO.C,RV1*%
X94537380Y-55930238D02*
X94061190Y-56263571D01*
X94537380Y-56501666D02*
X93537380Y-56501666D01*
X93537380Y-56120714D01*
X93585000Y-56025476D01*
X93632619Y-55977857D01*
X93727857Y-55930238D01*
X93870714Y-55930238D01*
X93965952Y-55977857D01*
X94013571Y-56025476D01*
X94061190Y-56120714D01*
X94061190Y-56501666D01*
X93537380Y-55644523D02*
X94537380Y-55311190D01*
X93537380Y-54977857D01*
X94537380Y-54120714D02*
X94537380Y-54692142D01*
X94537380Y-54406428D02*
X93537380Y-54406428D01*
X93680238Y-54501666D01*
X93775476Y-54596904D01*
X93823095Y-54692142D01*
%TO.C,R1*%
X122018333Y-53392380D02*
X121685000Y-52916190D01*
X121446904Y-53392380D02*
X121446904Y-52392380D01*
X121827857Y-52392380D01*
X121923095Y-52440000D01*
X121970714Y-52487619D01*
X122018333Y-52582857D01*
X122018333Y-52725714D01*
X121970714Y-52820952D01*
X121923095Y-52868571D01*
X121827857Y-52916190D01*
X121446904Y-52916190D01*
X122970714Y-53392380D02*
X122399285Y-53392380D01*
X122685000Y-53392380D02*
X122685000Y-52392380D01*
X122589761Y-52535238D01*
X122494523Y-52630476D01*
X122399285Y-52678095D01*
%TO.C,R5*%
X116938333Y-85592380D02*
X116605000Y-85116190D01*
X116366904Y-85592380D02*
X116366904Y-84592380D01*
X116747857Y-84592380D01*
X116843095Y-84640000D01*
X116890714Y-84687619D01*
X116938333Y-84782857D01*
X116938333Y-84925714D01*
X116890714Y-85020952D01*
X116843095Y-85068571D01*
X116747857Y-85116190D01*
X116366904Y-85116190D01*
X117843095Y-84592380D02*
X117366904Y-84592380D01*
X117319285Y-85068571D01*
X117366904Y-85020952D01*
X117462142Y-84973333D01*
X117700238Y-84973333D01*
X117795476Y-85020952D01*
X117843095Y-85068571D01*
X117890714Y-85163809D01*
X117890714Y-85401904D01*
X117843095Y-85497142D01*
X117795476Y-85544761D01*
X117700238Y-85592380D01*
X117462142Y-85592380D01*
X117366904Y-85544761D01*
X117319285Y-85497142D01*
%TO.C,R4*%
X105188333Y-74512380D02*
X104855000Y-74036190D01*
X104616904Y-74512380D02*
X104616904Y-73512380D01*
X104997857Y-73512380D01*
X105093095Y-73560000D01*
X105140714Y-73607619D01*
X105188333Y-73702857D01*
X105188333Y-73845714D01*
X105140714Y-73940952D01*
X105093095Y-73988571D01*
X104997857Y-74036190D01*
X104616904Y-74036190D01*
X106045476Y-73845714D02*
X106045476Y-74512380D01*
X105807380Y-73464761D02*
X105569285Y-74179047D01*
X106188333Y-74179047D01*
%TO.C,J3*%
X86026666Y-88562380D02*
X86026666Y-89276666D01*
X85979047Y-89419523D01*
X85883809Y-89514761D01*
X85740952Y-89562380D01*
X85645714Y-89562380D01*
X86407619Y-88562380D02*
X87026666Y-88562380D01*
X86693333Y-88943333D01*
X86836190Y-88943333D01*
X86931428Y-88990952D01*
X86979047Y-89038571D01*
X87026666Y-89133809D01*
X87026666Y-89371904D01*
X86979047Y-89467142D01*
X86931428Y-89514761D01*
X86836190Y-89562380D01*
X86550476Y-89562380D01*
X86455238Y-89514761D01*
X86407619Y-89467142D01*
%TO.C,U1*%
X90798095Y-64732380D02*
X90798095Y-65541904D01*
X90845714Y-65637142D01*
X90893333Y-65684761D01*
X90988571Y-65732380D01*
X91179047Y-65732380D01*
X91274285Y-65684761D01*
X91321904Y-65637142D01*
X91369523Y-65541904D01*
X91369523Y-64732380D01*
X92369523Y-65732380D02*
X91798095Y-65732380D01*
X92083809Y-65732380D02*
X92083809Y-64732380D01*
X91988571Y-64875238D01*
X91893333Y-64970476D01*
X91798095Y-65018095D01*
%TO.C,J1*%
X124152380Y-79073333D02*
X124866666Y-79073333D01*
X125009523Y-79120952D01*
X125104761Y-79216190D01*
X125152380Y-79359047D01*
X125152380Y-79454285D01*
X125152380Y-78073333D02*
X125152380Y-78644761D01*
X125152380Y-78359047D02*
X124152380Y-78359047D01*
X124295238Y-78454285D01*
X124390476Y-78549523D01*
X124438095Y-78644761D01*
%TO.C,G\u002A\u002A\u002A*%
G36*
X130679222Y-55235721D02*
G01*
X130667382Y-55228818D01*
X130647720Y-55211255D01*
X130635886Y-55199076D01*
X130609952Y-55171727D01*
X130577482Y-55138295D01*
X130552041Y-55112578D01*
X130502197Y-55062725D01*
X130507577Y-54995701D01*
X130511341Y-54960395D01*
X130515924Y-54933605D01*
X130520084Y-54921601D01*
X130535537Y-54916716D01*
X130565703Y-54914339D01*
X130605090Y-54914229D01*
X130648204Y-54916146D01*
X130689551Y-54919847D01*
X130723638Y-54925092D01*
X130744639Y-54931463D01*
X130772842Y-54942087D01*
X130810368Y-54951237D01*
X130830639Y-54954525D01*
X130872365Y-54962694D01*
X130914057Y-54975194D01*
X130929497Y-54981403D01*
X130977663Y-54996022D01*
X131030777Y-55001196D01*
X131063273Y-55000679D01*
X131079664Y-54997833D01*
X131084234Y-54990724D01*
X131081528Y-54978254D01*
X131064227Y-54906719D01*
X131056292Y-54838148D01*
X131056020Y-54827852D01*
X131051950Y-54791583D01*
X131042459Y-54758285D01*
X131039254Y-54751377D01*
X131029578Y-54725407D01*
X131020283Y-54687637D01*
X131013844Y-54649410D01*
X131006814Y-54609457D01*
X130997889Y-54579996D01*
X130989774Y-54567001D01*
X130978793Y-54550444D01*
X130969832Y-54522807D01*
X130968133Y-54513937D01*
X130959290Y-54482811D01*
X130945796Y-54458357D01*
X130942247Y-54454561D01*
X130927390Y-54434886D01*
X130923082Y-54420385D01*
X130917314Y-54401935D01*
X130902941Y-54376629D01*
X130897590Y-54369001D01*
X130881649Y-54344952D01*
X130872761Y-54326801D01*
X130872098Y-54323401D01*
X130865048Y-54309027D01*
X130851705Y-54294891D01*
X130836126Y-54275284D01*
X130831311Y-54259844D01*
X130824613Y-54239735D01*
X130811400Y-54221507D01*
X130778738Y-54186580D01*
X130757227Y-54161054D01*
X130743148Y-54140374D01*
X130738901Y-54132699D01*
X130733308Y-54122243D01*
X130727281Y-54112641D01*
X130718608Y-54101407D01*
X130705076Y-54086057D01*
X130684473Y-54064107D01*
X130683031Y-54062610D01*
X130967141Y-54062610D01*
X130974040Y-54083582D01*
X130987539Y-54093611D01*
X130988956Y-54093689D01*
X131004290Y-54102918D01*
X131013357Y-54127526D01*
X131014852Y-54146462D01*
X131023293Y-54165754D01*
X131034151Y-54172023D01*
X131050758Y-54185522D01*
X131059325Y-54206438D01*
X131071089Y-54236068D01*
X131085910Y-54256518D01*
X131101208Y-54277180D01*
X131106622Y-54293602D01*
X131112843Y-54311683D01*
X131128197Y-54335421D01*
X131132114Y-54340270D01*
X131148701Y-54363497D01*
X131157280Y-54382377D01*
X131157606Y-54385078D01*
X131161700Y-54399971D01*
X131171604Y-54399489D01*
X131183750Y-54386366D01*
X131194572Y-54363338D01*
X131197041Y-54354851D01*
X131207058Y-54326493D01*
X131219082Y-54307527D01*
X131223743Y-54304187D01*
X131237117Y-54290152D01*
X131239365Y-54280099D01*
X131245381Y-54260961D01*
X131261345Y-54230578D01*
X131284494Y-54193654D01*
X131312065Y-54154894D01*
X131315614Y-54150247D01*
X131327760Y-54127443D01*
X131330950Y-54112368D01*
X131339123Y-54093639D01*
X131351343Y-54083493D01*
X131368390Y-54063364D01*
X131371737Y-54042347D01*
X131368163Y-54020426D01*
X131359967Y-54011809D01*
X131350937Y-54019463D01*
X131348924Y-54024473D01*
X131337894Y-54028696D01*
X131310575Y-54032198D01*
X131271061Y-54034913D01*
X131223445Y-54036775D01*
X131171821Y-54037718D01*
X131120283Y-54037676D01*
X131072926Y-54036584D01*
X131033841Y-54034375D01*
X131007124Y-54030984D01*
X131003169Y-54030033D01*
X130981158Y-54027600D01*
X130970260Y-54037972D01*
X130969799Y-54039117D01*
X130967141Y-54062610D01*
X130683031Y-54062610D01*
X130654586Y-54033072D01*
X130613204Y-53990468D01*
X130601872Y-53978817D01*
X130505017Y-53879239D01*
X130505017Y-53804112D01*
X130505056Y-53771730D01*
X130507168Y-53748853D01*
X130514345Y-53733943D01*
X130529578Y-53725465D01*
X130555860Y-53721880D01*
X130596182Y-53721652D01*
X130653536Y-53723244D01*
X130661948Y-53723492D01*
X130715692Y-53725789D01*
X130753724Y-53729523D01*
X130780715Y-53735459D01*
X130801336Y-53744361D01*
X130805906Y-53747055D01*
X130839211Y-53761126D01*
X130874849Y-53767376D01*
X130876510Y-53767395D01*
X130907872Y-53771597D01*
X130946216Y-53782322D01*
X130967076Y-53790337D01*
X130987445Y-53798525D01*
X131007598Y-53804505D01*
X131031141Y-53808620D01*
X131061678Y-53811211D01*
X131102813Y-53812622D01*
X131158151Y-53813195D01*
X131208589Y-53813280D01*
X131275825Y-53813125D01*
X131326103Y-53812433D01*
X131362856Y-53810866D01*
X131389518Y-53808084D01*
X131409524Y-53803748D01*
X131426306Y-53797519D01*
X131440879Y-53790337D01*
X131475443Y-53776195D01*
X131510016Y-53768120D01*
X131520309Y-53767395D01*
X131552754Y-53762556D01*
X131588495Y-53750553D01*
X131596524Y-53746767D01*
X131623980Y-53735801D01*
X131658269Y-53728630D01*
X131704632Y-53724375D01*
X131738872Y-53722904D01*
X131840785Y-53719669D01*
X131840785Y-53809811D01*
X131840025Y-53856341D01*
X131837203Y-53884749D01*
X131831506Y-53897267D01*
X131822121Y-53896127D01*
X131812362Y-53887843D01*
X131803175Y-53883939D01*
X131796542Y-53896446D01*
X131793481Y-53909596D01*
X131782953Y-53936287D01*
X131768200Y-53948297D01*
X131749756Y-53961325D01*
X131743567Y-53972430D01*
X131731673Y-53988378D01*
X131721881Y-53991722D01*
X131706923Y-54000266D01*
X131701074Y-54011778D01*
X131688163Y-54031264D01*
X131677059Y-54037791D01*
X131658306Y-54051891D01*
X131652146Y-54063099D01*
X131637907Y-54082215D01*
X131626133Y-54088757D01*
X131609881Y-54099990D01*
X131606261Y-54109313D01*
X131598183Y-54124974D01*
X131585868Y-54134476D01*
X131569642Y-54148764D01*
X131565474Y-54159544D01*
X131559310Y-54176075D01*
X131544075Y-54198946D01*
X131539982Y-54203994D01*
X131523500Y-54226187D01*
X131514864Y-54242899D01*
X131514491Y-54245204D01*
X131506504Y-54258126D01*
X131494097Y-54267034D01*
X131477894Y-54280873D01*
X131473704Y-54291045D01*
X131466593Y-54306280D01*
X131449363Y-54325293D01*
X131448212Y-54326307D01*
X131430568Y-54345564D01*
X131422743Y-54361850D01*
X131422720Y-54362460D01*
X131416801Y-54379986D01*
X131403165Y-54401307D01*
X131387631Y-54428999D01*
X131376932Y-54461818D01*
X131376671Y-54463156D01*
X131368674Y-54488846D01*
X131357944Y-54504347D01*
X131356002Y-54505414D01*
X131345505Y-54518070D01*
X131336838Y-54542753D01*
X131335475Y-54549456D01*
X131327252Y-54577928D01*
X131315741Y-54598181D01*
X131313532Y-54600272D01*
X131305379Y-54616494D01*
X131298034Y-54649008D01*
X131291850Y-54693719D01*
X131287180Y-54746530D01*
X131284378Y-54803345D01*
X131283797Y-54860070D01*
X131285790Y-54912606D01*
X131286162Y-54917699D01*
X131289033Y-54959243D01*
X131289321Y-54984812D01*
X131286302Y-54998742D01*
X131279249Y-55005367D01*
X131271028Y-55008110D01*
X131251813Y-55017669D01*
X131252589Y-55031009D01*
X131256210Y-55035221D01*
X131268545Y-55035119D01*
X131288631Y-55025289D01*
X131288688Y-55025252D01*
X131311310Y-55016034D01*
X131347148Y-55007370D01*
X131389053Y-55000943D01*
X131394060Y-55000411D01*
X131436759Y-54994411D01*
X131469935Y-54986480D01*
X131488245Y-54977906D01*
X131488525Y-54977635D01*
X131505786Y-54969113D01*
X131536596Y-54961162D01*
X131572607Y-54955713D01*
X131612241Y-54949586D01*
X131646983Y-54940714D01*
X131667441Y-54932005D01*
X131698772Y-54920549D01*
X131748326Y-54914520D01*
X131767224Y-54913794D01*
X131841515Y-54912109D01*
X131838601Y-55005087D01*
X131836689Y-55049602D01*
X131833855Y-55077209D01*
X131829363Y-55091395D01*
X131822476Y-55095643D01*
X131819509Y-55095452D01*
X131803763Y-55101807D01*
X131791686Y-55118394D01*
X131778002Y-55137271D01*
X131764529Y-55143950D01*
X131750858Y-55151464D01*
X131749015Y-55158161D01*
X131742260Y-55170495D01*
X131723799Y-55194041D01*
X131696333Y-55225581D01*
X131662565Y-55261898D01*
X131657245Y-55267433D01*
X131622739Y-55304382D01*
X131594157Y-55337286D01*
X131574212Y-55362850D01*
X131565617Y-55377779D01*
X131565474Y-55378842D01*
X131558273Y-55396462D01*
X131540858Y-55416584D01*
X131539982Y-55417355D01*
X131522419Y-55435728D01*
X131514524Y-55450115D01*
X131514491Y-55450721D01*
X131507408Y-55467945D01*
X131486985Y-55497673D01*
X131454459Y-55538146D01*
X131445663Y-55548479D01*
X131429891Y-55571612D01*
X131422756Y-55591502D01*
X131422720Y-55592514D01*
X131415610Y-55612407D01*
X131403614Y-55627129D01*
X131389712Y-55648443D01*
X131380079Y-55678666D01*
X131379140Y-55684439D01*
X131370256Y-55718036D01*
X131355615Y-55747373D01*
X131353553Y-55750161D01*
X131340396Y-55775712D01*
X131329792Y-55811913D01*
X131326269Y-55832415D01*
X131319598Y-55869839D01*
X131310337Y-55903151D01*
X131304746Y-55916679D01*
X131301877Y-55924931D01*
X131299399Y-55938814D01*
X131297285Y-55959698D01*
X131295509Y-55988951D01*
X131294044Y-56027942D01*
X131292863Y-56078041D01*
X131291938Y-56140616D01*
X131291243Y-56217037D01*
X131290752Y-56308672D01*
X131290436Y-56416890D01*
X131290270Y-56543061D01*
X131290226Y-56655254D01*
X131290163Y-57366115D01*
X131267220Y-57378159D01*
X131246204Y-57392794D01*
X131236124Y-57404010D01*
X131219464Y-57413392D01*
X131184991Y-57417162D01*
X131174943Y-57417194D01*
X131140653Y-57414978D01*
X131117540Y-57406933D01*
X131096512Y-57389455D01*
X131091327Y-57384055D01*
X131060737Y-57351538D01*
X131069691Y-56724440D01*
X131071677Y-56575194D01*
X131073051Y-56444985D01*
X131073755Y-56332461D01*
X131073731Y-56236275D01*
X131072922Y-56155075D01*
X131071271Y-56087512D01*
X131068719Y-56032236D01*
X131065208Y-55987898D01*
X131060683Y-55953147D01*
X131055083Y-55926634D01*
X131048353Y-55907010D01*
X131040435Y-55892923D01*
X131033872Y-55885364D01*
X131018651Y-55857800D01*
X131014852Y-55828108D01*
X131008741Y-55790950D01*
X130995297Y-55764233D01*
X130980361Y-55737275D01*
X130969392Y-55703794D01*
X130968452Y-55699129D01*
X130958950Y-55668178D01*
X130944910Y-55643654D01*
X130942122Y-55640643D01*
X130927404Y-55619702D01*
X130923082Y-55603780D01*
X130917039Y-55582452D01*
X130904091Y-55560841D01*
X130887104Y-55533734D01*
X130877334Y-55511032D01*
X130863540Y-55483466D01*
X130850439Y-55467299D01*
X130835790Y-55448113D01*
X130831311Y-55434518D01*
X130823246Y-55418381D01*
X130812091Y-55409693D01*
X130794753Y-55392183D01*
X130786479Y-55373940D01*
X130773883Y-55350012D01*
X130759814Y-55337623D01*
X130743639Y-55323102D01*
X130739541Y-55312072D01*
X130731718Y-55296374D01*
X130714049Y-55280668D01*
X130695731Y-55264340D01*
X130688557Y-55249843D01*
X130687989Y-55248498D01*
X130965803Y-55248498D01*
X130971151Y-55266584D01*
X130980959Y-55273246D01*
X131005230Y-55289568D01*
X131014410Y-55317298D01*
X131014696Y-55324583D01*
X131023114Y-55347170D01*
X131035245Y-55358081D01*
X131051555Y-55374256D01*
X131055639Y-55387541D01*
X131062242Y-55407088D01*
X131078413Y-55430555D01*
X131081131Y-55433593D01*
X131098383Y-55458741D01*
X131106527Y-55483469D01*
X131106622Y-55485707D01*
X131114871Y-55510241D01*
X131127016Y-55521229D01*
X131143404Y-55539389D01*
X131147409Y-55555237D01*
X131152697Y-55580863D01*
X131165755Y-55594782D01*
X131182380Y-55592970D01*
X131184894Y-55591114D01*
X131196537Y-55571914D01*
X131198393Y-55560667D01*
X131205718Y-55539650D01*
X131218786Y-55523961D01*
X131234324Y-55504940D01*
X131239180Y-55490353D01*
X131244931Y-55472370D01*
X131259270Y-55447343D01*
X131264671Y-55439655D01*
X131280631Y-55415421D01*
X131289511Y-55396887D01*
X131290163Y-55393369D01*
X131297086Y-55378313D01*
X131310556Y-55363180D01*
X131325862Y-55345017D01*
X131330950Y-55332079D01*
X131337798Y-55316958D01*
X131354464Y-55297163D01*
X131356266Y-55295422D01*
X131373838Y-55272907D01*
X131381728Y-55251263D01*
X131381757Y-55250355D01*
X131381155Y-55243245D01*
X131377472Y-55237958D01*
X131368094Y-55234237D01*
X131350408Y-55231823D01*
X131321801Y-55230456D01*
X131279660Y-55229880D01*
X131221372Y-55229835D01*
X131175589Y-55229962D01*
X131105459Y-55230318D01*
X131053097Y-55231028D01*
X131015876Y-55232326D01*
X130991172Y-55234442D01*
X130976358Y-55237610D01*
X130968809Y-55242060D01*
X130965899Y-55248025D01*
X130965803Y-55248498D01*
X130687989Y-55248498D01*
X130683146Y-55237037D01*
X130679222Y-55235721D01*
G37*
G36*
X129247375Y-54030632D02*
G01*
X129226685Y-54011199D01*
X129208247Y-53996382D01*
X129199013Y-53991722D01*
X129189896Y-53983333D01*
X129184543Y-53971329D01*
X129173104Y-53954792D01*
X129163210Y-53950936D01*
X129148983Y-53942411D01*
X129138481Y-53924979D01*
X129124385Y-53905023D01*
X129110693Y-53902037D01*
X129101516Y-53901138D01*
X129095734Y-53892093D01*
X129092287Y-53871039D01*
X129090114Y-53834117D01*
X129089792Y-53825891D01*
X129089639Y-53785613D01*
X129091967Y-53751751D01*
X129096287Y-53730755D01*
X129097129Y-53729023D01*
X129105216Y-53717081D01*
X129107570Y-53723630D01*
X129107757Y-53730406D01*
X129110637Y-53743270D01*
X129121588Y-53738260D01*
X129122998Y-53737107D01*
X129142194Y-53730172D01*
X129175631Y-53726057D01*
X129217364Y-53724663D01*
X129261450Y-53725889D01*
X129301946Y-53729638D01*
X129332907Y-53735809D01*
X129344721Y-53740817D01*
X129367337Y-53750637D01*
X129401715Y-53760313D01*
X129430957Y-53766114D01*
X129469887Y-53773940D01*
X129504840Y-53783650D01*
X129522728Y-53790617D01*
X129546234Y-53798173D01*
X129584839Y-53806176D01*
X129633283Y-53813909D01*
X129686302Y-53820656D01*
X129738638Y-53825703D01*
X129785027Y-53828332D01*
X129801444Y-53828543D01*
X129859679Y-53826615D01*
X129921220Y-53821847D01*
X129981329Y-53814882D01*
X130035271Y-53806363D01*
X130078310Y-53796934D01*
X130105709Y-53787237D01*
X130105765Y-53787208D01*
X130138478Y-53774100D01*
X130170978Y-53767562D01*
X130175542Y-53767395D01*
X130205385Y-53763966D01*
X130233900Y-53755394D01*
X130254324Y-53744250D01*
X130260296Y-53735168D01*
X130269631Y-53730956D01*
X130294204Y-53727900D01*
X130328868Y-53726616D01*
X130331925Y-53726608D01*
X130369684Y-53727125D01*
X130392150Y-53729763D01*
X130404419Y-53736158D01*
X130411585Y-53747942D01*
X130413499Y-53752764D01*
X130422119Y-53789905D01*
X130423722Y-53831731D01*
X130418781Y-53870797D01*
X130407768Y-53899656D01*
X130403852Y-53904692D01*
X130388673Y-53920688D01*
X130363404Y-53947232D01*
X130332045Y-53980125D01*
X130309532Y-54003715D01*
X130273806Y-54042192D01*
X130239391Y-54081079D01*
X130211383Y-54114538D01*
X130200474Y-54128624D01*
X130180297Y-54154044D01*
X130164045Y-54170984D01*
X130157138Y-54175263D01*
X130149015Y-54183478D01*
X130148132Y-54189692D01*
X130141969Y-54207406D01*
X130128103Y-54227930D01*
X130093439Y-54269905D01*
X130071007Y-54299079D01*
X130059213Y-54317643D01*
X130056361Y-54326611D01*
X130049963Y-54340617D01*
X130034229Y-54361147D01*
X130030870Y-54364866D01*
X130013681Y-54389312D01*
X130005490Y-54412567D01*
X130005378Y-54414794D01*
X129998089Y-54438880D01*
X129985994Y-54454759D01*
X129971051Y-54476572D01*
X129960366Y-54506478D01*
X129959677Y-54509872D01*
X129950042Y-54540954D01*
X129935888Y-54566213D01*
X129934511Y-54567836D01*
X129922577Y-54589955D01*
X129913221Y-54622635D01*
X129910609Y-54639213D01*
X129903733Y-54681314D01*
X129893451Y-54724493D01*
X129889944Y-54736082D01*
X129887706Y-54745288D01*
X129885663Y-54759254D01*
X129883800Y-54779000D01*
X129882100Y-54805550D01*
X129880547Y-54839924D01*
X129879124Y-54883145D01*
X129877814Y-54936234D01*
X129876601Y-55000214D01*
X129875468Y-55076106D01*
X129874399Y-55164932D01*
X129873377Y-55267714D01*
X129872387Y-55385473D01*
X129871410Y-55519232D01*
X129870431Y-55670012D01*
X129869433Y-55838836D01*
X129868400Y-56026724D01*
X129868080Y-56086952D01*
X129866947Y-56287604D01*
X129865740Y-56473439D01*
X129864466Y-56643944D01*
X129863132Y-56798605D01*
X129861743Y-56936911D01*
X129860307Y-57058347D01*
X129858831Y-57162402D01*
X129857319Y-57248562D01*
X129855780Y-57316315D01*
X129854220Y-57365147D01*
X129852645Y-57394547D01*
X129851264Y-57403923D01*
X129835096Y-57411778D01*
X129805179Y-57417737D01*
X129768123Y-57421019D01*
X129730543Y-57420839D01*
X129717808Y-57419735D01*
X129692246Y-57408826D01*
X129683294Y-57394243D01*
X129674113Y-57374087D01*
X129667274Y-57366084D01*
X129666056Y-57355261D01*
X129664898Y-57325112D01*
X129663808Y-57276706D01*
X129662794Y-57211109D01*
X129661863Y-57129391D01*
X129661024Y-57032618D01*
X129660283Y-56921858D01*
X129659648Y-56798180D01*
X129659127Y-56662650D01*
X129658728Y-56516337D01*
X129658457Y-56360309D01*
X129658324Y-56195633D01*
X129658311Y-56106791D01*
X129658304Y-55911724D01*
X129658232Y-55735986D01*
X129658063Y-55578511D01*
X129657765Y-55438233D01*
X129657306Y-55314088D01*
X129656654Y-55205010D01*
X129655778Y-55109933D01*
X129654646Y-55027793D01*
X129653225Y-54957524D01*
X129651485Y-54898061D01*
X129649393Y-54848339D01*
X129646918Y-54807292D01*
X129644028Y-54773855D01*
X129640691Y-54746963D01*
X129636875Y-54725551D01*
X129632549Y-54708553D01*
X129627680Y-54694904D01*
X129622237Y-54683539D01*
X129616188Y-54673393D01*
X129615505Y-54672336D01*
X129603789Y-54647015D01*
X129594234Y-54614332D01*
X129593087Y-54608623D01*
X129584508Y-54577970D01*
X129572838Y-54554042D01*
X129570291Y-54550784D01*
X129559174Y-54529974D01*
X129550645Y-54499566D01*
X129549299Y-54491272D01*
X129542744Y-54463669D01*
X129533229Y-54445939D01*
X129529881Y-54443547D01*
X129518692Y-54431063D01*
X129507853Y-54406532D01*
X129505457Y-54398542D01*
X129495640Y-54373561D01*
X129484211Y-54359760D01*
X129480945Y-54358804D01*
X129465382Y-54349589D01*
X129456218Y-54325057D01*
X129454756Y-54306666D01*
X129448183Y-54287554D01*
X129440173Y-54281191D01*
X129426641Y-54268231D01*
X129415212Y-54245823D01*
X129404924Y-54224963D01*
X129394546Y-54216054D01*
X129394368Y-54216050D01*
X129383080Y-54207864D01*
X129369372Y-54187860D01*
X129367803Y-54184918D01*
X129354555Y-54162058D01*
X129337353Y-54138944D01*
X129312008Y-54110298D01*
X129291126Y-54088233D01*
X129276577Y-54070772D01*
X129271215Y-54060280D01*
X129266871Y-54053199D01*
X129552399Y-54053199D01*
X129552525Y-54066084D01*
X129568079Y-54085793D01*
X129570243Y-54087839D01*
X129588399Y-54108294D01*
X129597321Y-54125465D01*
X129597510Y-54127311D01*
X129604515Y-54144341D01*
X129617903Y-54159968D01*
X129633344Y-54179955D01*
X129638296Y-54195677D01*
X129644651Y-54215420D01*
X129658967Y-54236764D01*
X129676414Y-54263184D01*
X129685896Y-54286758D01*
X129698235Y-54314559D01*
X129711110Y-54331160D01*
X129725916Y-54354235D01*
X129730067Y-54372797D01*
X129732893Y-54394225D01*
X129737217Y-54403342D01*
X129754010Y-54408829D01*
X129770691Y-54399523D01*
X129779261Y-54381254D01*
X129790168Y-54357253D01*
X129802204Y-54345766D01*
X129818019Y-54327271D01*
X129821837Y-54312447D01*
X129827703Y-54291094D01*
X129842292Y-54264079D01*
X129847329Y-54256837D01*
X129863336Y-54232147D01*
X129872197Y-54212664D01*
X129872821Y-54208871D01*
X129879950Y-54192598D01*
X129893214Y-54177996D01*
X129908796Y-54158335D01*
X129913607Y-54142820D01*
X129920664Y-54124271D01*
X129937875Y-54102665D01*
X129940104Y-54100536D01*
X129957004Y-54079313D01*
X129963267Y-54059931D01*
X129963047Y-54058066D01*
X129960363Y-54051903D01*
X129953325Y-54047385D01*
X129939252Y-54044299D01*
X129915459Y-54042432D01*
X129879265Y-54041570D01*
X129827988Y-54041501D01*
X129760657Y-54041997D01*
X129698724Y-54043024D01*
X129643685Y-54044804D01*
X129598829Y-54047158D01*
X129567445Y-54049911D01*
X129552824Y-54052885D01*
X129552399Y-54053199D01*
X129266871Y-54053199D01*
X129264243Y-54048915D01*
X129247375Y-54030632D01*
G37*
D11*
%TO.C,R2*%
X113175000Y-65020000D02*
X112555000Y-65020000D01*
X115015000Y-65020000D02*
G75*
G03*
X115015000Y-65020000I-920000J0D01*
G01*
%TO.C,C3*%
X98831000Y-77120000D02*
X97435000Y-77120000D01*
X95585000Y-83360000D02*
X94189000Y-83360000D01*
X98831000Y-83360000D02*
X97435000Y-83360000D01*
X98831000Y-77120000D02*
X98831000Y-83360000D01*
X95585000Y-77120000D02*
X94189000Y-77120000D01*
X94189000Y-77120000D02*
X94189000Y-83360000D01*
%TO.C,R7*%
X105655000Y-81200000D02*
X106275000Y-81200000D01*
X105655000Y-81200000D02*
G75*
G03*
X105655000Y-81200000I-920000J0D01*
G01*
%TO.C,U2*%
X124835000Y-61150000D02*
X123185000Y-61150000D01*
X124835000Y-71430000D02*
X124835000Y-61150000D01*
X121185000Y-61150000D02*
X119535000Y-61150000D01*
X119535000Y-71430000D02*
X124835000Y-71430000D01*
X119535000Y-61150000D02*
X119535000Y-71430000D01*
X121185000Y-61150000D02*
G75*
G03*
X123185000Y-61150000I1000000J0D01*
G01*
%TO.C,SW1*%
X121210000Y-84110000D02*
X121210000Y-88610000D01*
X127710000Y-88610000D02*
X127710000Y-84110000D01*
X125210000Y-82860000D02*
X123710000Y-82860000D01*
X123710000Y-89860000D02*
X125210000Y-89860000D01*
%TO.C,J4*%
X92650000Y-90110000D02*
X93980000Y-90110000D01*
X92650000Y-92710000D02*
X95310000Y-92710000D01*
X92650000Y-92770000D02*
X95310000Y-92770000D01*
X95310000Y-92710000D02*
X95310000Y-92770000D01*
X92650000Y-92710000D02*
X92650000Y-92770000D01*
X92650000Y-91440000D02*
X92650000Y-90110000D01*
%TO.C,Q1*%
X108905000Y-72110000D02*
X108905000Y-75710000D01*
X113355001Y-73910000D02*
G75*
G03*
X108916522Y-72071522I-2600001J0D01*
G01*
X108916522Y-75748478D02*
G75*
G03*
X113355000Y-73910000I1838478J1838478D01*
G01*
%TO.C,C2*%
X82386210Y-77700000D02*
X82386210Y-76540000D01*
X81386210Y-79838000D02*
X81386210Y-77642000D01*
X83107210Y-77700000D02*
X83107210Y-76239000D01*
X82066210Y-80711000D02*
X82066210Y-79780000D01*
X83387210Y-77700000D02*
X83387210Y-76184000D01*
X81266210Y-79545000D02*
X81266210Y-77935000D01*
X82186210Y-77700000D02*
X82186210Y-76675000D01*
X81986210Y-77700000D02*
X81986210Y-76839000D01*
X81626210Y-80240000D02*
X81626210Y-79780000D01*
X83307210Y-77700000D02*
X83307210Y-76197000D01*
X82866210Y-81168000D02*
X82866210Y-79780000D01*
X83347210Y-77700000D02*
X83347210Y-76190000D01*
X81786210Y-80439000D02*
X81786210Y-79780000D01*
X81866210Y-80525000D02*
X81866210Y-79780000D01*
X83427210Y-81301000D02*
X83427210Y-79780000D01*
X82466210Y-80987000D02*
X82466210Y-79780000D01*
X82586210Y-81050000D02*
X82586210Y-79780000D01*
X82786210Y-81138000D02*
X82786210Y-79780000D01*
X83387210Y-81296000D02*
X83387210Y-79780000D01*
X83587210Y-81316000D02*
X83587210Y-76164000D01*
X81706210Y-77700000D02*
X81706210Y-77135000D01*
X81826210Y-77700000D02*
X81826210Y-76997000D01*
X82666210Y-81088000D02*
X82666210Y-79780000D01*
X82026210Y-77700000D02*
X82026210Y-76803000D01*
X81546210Y-77700000D02*
X81546210Y-77357000D01*
X81946210Y-80604000D02*
X81946210Y-79780000D01*
X82706210Y-77700000D02*
X82706210Y-76375000D01*
X83227210Y-77700000D02*
X83227210Y-76212000D01*
X82986210Y-81208000D02*
X82986210Y-79780000D01*
X82266210Y-80862000D02*
X82266210Y-79780000D01*
X81906210Y-77700000D02*
X81906210Y-76914000D01*
X82346210Y-77700000D02*
X82346210Y-76565000D01*
X83467210Y-81305000D02*
X83467210Y-79780000D01*
X82946210Y-81195000D02*
X82946210Y-79780000D01*
X82586210Y-77700000D02*
X82586210Y-76430000D01*
X81586210Y-80183000D02*
X81586210Y-79780000D01*
X83147210Y-81251000D02*
X83147210Y-79780000D01*
X82546210Y-77700000D02*
X82546210Y-76450000D01*
X82506210Y-77700000D02*
X82506210Y-76472000D01*
X83267210Y-77700000D02*
X83267210Y-76204000D01*
X82866210Y-77700000D02*
X82866210Y-76312000D01*
X81626210Y-77700000D02*
X81626210Y-77240000D01*
X83026210Y-81220000D02*
X83026210Y-79780000D01*
X83267210Y-81276000D02*
X83267210Y-79780000D01*
X83507210Y-81309000D02*
X83507210Y-79780000D01*
X82506210Y-81008000D02*
X82506210Y-79780000D01*
X81186210Y-79258000D02*
X81186210Y-78222000D01*
X82266210Y-77700000D02*
X82266210Y-76618000D01*
X82386210Y-80940000D02*
X82386210Y-79780000D01*
X82346210Y-80915000D02*
X82346210Y-79780000D01*
X83547210Y-81313000D02*
X83547210Y-76167000D01*
X82106210Y-77700000D02*
X82106210Y-76736000D01*
X82426210Y-80964000D02*
X82426210Y-79780000D01*
X81906210Y-80566000D02*
X81906210Y-79780000D01*
X81946210Y-77700000D02*
X81946210Y-76876000D01*
X81746210Y-77700000D02*
X81746210Y-77087000D01*
X83307210Y-81283000D02*
X83307210Y-79780000D01*
X81546210Y-80123000D02*
X81546210Y-79780000D01*
X82306210Y-77700000D02*
X82306210Y-76591000D01*
X82426210Y-77700000D02*
X82426210Y-76516000D01*
X81746210Y-80393000D02*
X81746210Y-79780000D01*
X82546210Y-81030000D02*
X82546210Y-79780000D01*
X82986210Y-77700000D02*
X82986210Y-76272000D01*
X82226210Y-77700000D02*
X82226210Y-76645000D01*
X82786210Y-77700000D02*
X82786210Y-76342000D01*
X82706210Y-81105000D02*
X82706210Y-79780000D01*
X82826210Y-81154000D02*
X82826210Y-79780000D01*
X82746210Y-77700000D02*
X82746210Y-76358000D01*
X81226210Y-79417000D02*
X81226210Y-78063000D01*
X82666210Y-77700000D02*
X82666210Y-76392000D01*
X82746210Y-81122000D02*
X82746210Y-79780000D01*
X83627210Y-81318000D02*
X83627210Y-76162000D01*
X83707210Y-81320000D02*
X83707210Y-76160000D01*
X82226210Y-80835000D02*
X82226210Y-79780000D01*
X83347210Y-81290000D02*
X83347210Y-79780000D01*
X83427210Y-77700000D02*
X83427210Y-76179000D01*
X86301985Y-80465000D02*
X86301985Y-79965000D01*
X82106210Y-80744000D02*
X82106210Y-79780000D01*
X81866210Y-77700000D02*
X81866210Y-76955000D01*
X83507210Y-77700000D02*
X83507210Y-76171000D01*
X81666210Y-77700000D02*
X81666210Y-77186000D01*
X81346210Y-79751000D02*
X81346210Y-77729000D01*
X81826210Y-80483000D02*
X81826210Y-79780000D01*
X81506210Y-80059000D02*
X81506210Y-79780000D01*
X82906210Y-81182000D02*
X82906210Y-79780000D01*
X82946210Y-77700000D02*
X82946210Y-76285000D01*
X83467210Y-77700000D02*
X83467210Y-76175000D01*
X83067210Y-77700000D02*
X83067210Y-76249000D01*
X83067210Y-81231000D02*
X83067210Y-79780000D01*
X83107210Y-81241000D02*
X83107210Y-79780000D01*
X81466210Y-77700000D02*
X81466210Y-77489000D01*
X81986210Y-80641000D02*
X81986210Y-79780000D01*
X81706210Y-80345000D02*
X81706210Y-79780000D01*
X81666210Y-80294000D02*
X81666210Y-79780000D01*
X83147210Y-77700000D02*
X83147210Y-76229000D01*
X83747210Y-81320000D02*
X83747210Y-76160000D01*
X82026210Y-80677000D02*
X82026210Y-79780000D01*
X82826210Y-77700000D02*
X82826210Y-76326000D01*
X82306210Y-80889000D02*
X82306210Y-79780000D01*
X81466210Y-79991000D02*
X81466210Y-79780000D01*
X81786210Y-77700000D02*
X81786210Y-77041000D01*
X82626210Y-81069000D02*
X82626210Y-79780000D01*
X81506210Y-77700000D02*
X81506210Y-77421000D01*
X82146210Y-77700000D02*
X82146210Y-76705000D01*
X83667210Y-81319000D02*
X83667210Y-76161000D01*
X81426210Y-79918000D02*
X81426210Y-77562000D01*
X83026210Y-77700000D02*
X83026210Y-76260000D01*
X81146210Y-79024000D02*
X81146210Y-78456000D01*
X83227210Y-81268000D02*
X83227210Y-79780000D01*
X82146210Y-80775000D02*
X82146210Y-79780000D01*
X86551985Y-80215000D02*
X86051985Y-80215000D01*
X83187210Y-77700000D02*
X83187210Y-76220000D01*
X82906210Y-77700000D02*
X82906210Y-76298000D01*
X82066210Y-77700000D02*
X82066210Y-76769000D01*
X82466210Y-77700000D02*
X82466210Y-76493000D01*
X82626210Y-77700000D02*
X82626210Y-76411000D01*
X82186210Y-80805000D02*
X82186210Y-79780000D01*
X83187210Y-81260000D02*
X83187210Y-79780000D01*
X81586210Y-77700000D02*
X81586210Y-77297000D01*
X81306210Y-79655000D02*
X81306210Y-77825000D01*
X86367210Y-78740000D02*
G75*
G03*
X86367210Y-78740000I-2620000J0D01*
G01*
%TO.C,G\u002A\u002A\u002A*%
G36*
X131089858Y-58601368D02*
G01*
X131044841Y-58499590D01*
X131070438Y-58444862D01*
X131166803Y-58440240D01*
X131189888Y-58444584D01*
X131441531Y-58492993D01*
X131635635Y-58516624D01*
X131799683Y-58516899D01*
X131961158Y-58495237D01*
X132003936Y-58486647D01*
X132171715Y-58451626D01*
X132270519Y-58434841D01*
X132318573Y-58436892D01*
X132334104Y-58458382D01*
X132335334Y-58497570D01*
X132307074Y-58569750D01*
X132234648Y-58676189D01*
X132174534Y-58748011D01*
X132058101Y-58899765D01*
X131949113Y-59078254D01*
X131911609Y-59153752D01*
X131882116Y-59223577D01*
X131858583Y-59294299D01*
X131840078Y-59377131D01*
X131825673Y-59483287D01*
X131814434Y-59623977D01*
X131805433Y-59810415D01*
X131797738Y-60053812D01*
X131790417Y-60365381D01*
X131783764Y-60693767D01*
X131775260Y-61086598D01*
X131766503Y-61398373D01*
X131756994Y-61636999D01*
X131746229Y-61810387D01*
X131733709Y-61926446D01*
X131718931Y-61993084D01*
X131701394Y-62018213D01*
X131699774Y-62018685D01*
X131625092Y-62010342D01*
X131610311Y-62000150D01*
X131596695Y-61944633D01*
X131586091Y-61821653D01*
X131580001Y-61652698D01*
X131579117Y-61553779D01*
X131579117Y-61138601D01*
X131075632Y-61138601D01*
X130742254Y-61148100D01*
X130475434Y-61180288D01*
X130254433Y-61240704D01*
X130058511Y-61334886D01*
X129880535Y-61457706D01*
X129753147Y-61556707D01*
X129650905Y-61635989D01*
X129598116Y-61676718D01*
X129524093Y-61688434D01*
X129495867Y-61677017D01*
X129469353Y-61640398D01*
X129466503Y-61565343D01*
X129488075Y-61433419D01*
X129510031Y-61332554D01*
X129523762Y-61264659D01*
X129755299Y-61264659D01*
X129930021Y-61168955D01*
X130036928Y-61097163D01*
X130072312Y-61041152D01*
X130066891Y-61028080D01*
X130004774Y-60976055D01*
X129903777Y-60909444D01*
X129892169Y-60902548D01*
X129755299Y-60822187D01*
X129755299Y-61264659D01*
X129523762Y-61264659D01*
X129546463Y-61152409D01*
X129557896Y-61016374D01*
X129544851Y-60883327D01*
X129532019Y-60822187D01*
X129517383Y-60752455D01*
X129481643Y-60556512D01*
X129485018Y-60439030D01*
X129528380Y-60398144D01*
X129612601Y-60431987D01*
X129653072Y-60462089D01*
X129874037Y-60626753D01*
X130094064Y-60767152D01*
X130289962Y-60869376D01*
X130401918Y-60911219D01*
X130519619Y-60931451D01*
X130699137Y-60947661D01*
X130913349Y-60957877D01*
X131078679Y-60960419D01*
X131579117Y-60960667D01*
X131579117Y-59751085D01*
X130967471Y-59766598D01*
X130718232Y-59774054D01*
X130538418Y-59783863D01*
X130408492Y-59799289D01*
X130308916Y-59823594D01*
X130220152Y-59860041D01*
X130133408Y-59905896D01*
X129966920Y-60009391D01*
X129799111Y-60130247D01*
X129733408Y-60183907D01*
X129625711Y-60267954D01*
X129541245Y-60316981D01*
X129510992Y-60322662D01*
X129483969Y-60272715D01*
X129477096Y-60170983D01*
X129478064Y-60155733D01*
X129492927Y-59908656D01*
X129493437Y-59890066D01*
X129755299Y-59890066D01*
X129922112Y-59794563D01*
X130026574Y-59734586D01*
X130091922Y-59696745D01*
X130100950Y-59691364D01*
X130074765Y-59664987D01*
X129994643Y-59606312D01*
X129934137Y-59565320D01*
X129755299Y-59446970D01*
X129755299Y-59890066D01*
X129493437Y-59890066D01*
X129499614Y-59664889D01*
X129498256Y-59446970D01*
X129498249Y-59445918D01*
X129488953Y-59273231D01*
X129472456Y-59170212D01*
X129454076Y-59082624D01*
X129482329Y-59050744D01*
X129517394Y-59047883D01*
X129606943Y-59076415D01*
X129708317Y-59145327D01*
X129711271Y-59147970D01*
X129908549Y-59302399D01*
X130125728Y-59434415D01*
X130327491Y-59523057D01*
X130359887Y-59532912D01*
X130474875Y-59552427D01*
X130652837Y-59568208D01*
X130867802Y-59578445D01*
X131056438Y-59581435D01*
X131278602Y-59580891D01*
X131426762Y-59577103D01*
X131515883Y-59567209D01*
X131560925Y-59548349D01*
X131576853Y-59517662D01*
X131578683Y-59481595D01*
X131551796Y-59349440D01*
X131481302Y-59176770D01*
X131381106Y-58990942D01*
X131265117Y-58819317D01*
X131212833Y-58756198D01*
X131490150Y-58756198D01*
X131510388Y-58803700D01*
X131558909Y-58891708D01*
X131617426Y-58989509D01*
X131667651Y-59066392D01*
X131690326Y-59092366D01*
X131718952Y-59057997D01*
X131774451Y-58971924D01*
X131797140Y-58934131D01*
X131855367Y-58831116D01*
X131887977Y-58765018D01*
X131890501Y-58756198D01*
X131850705Y-58744445D01*
X131750029Y-58737399D01*
X131690326Y-58736499D01*
X131570897Y-58740415D01*
X131499298Y-58750323D01*
X131490150Y-58756198D01*
X131212833Y-58756198D01*
X131205331Y-58747141D01*
X131089858Y-58601368D01*
G37*
%TO.C,C1*%
X73761000Y-75598000D02*
X73761000Y-79840000D01*
X72721000Y-75197000D02*
X72721000Y-87363000D01*
X71040000Y-74950000D02*
X71040000Y-87610000D01*
X74641000Y-82720000D02*
X74641000Y-86440000D01*
X72401000Y-75114000D02*
X72401000Y-87446000D01*
X75841000Y-82720000D02*
X75841000Y-85335000D01*
X74921000Y-76330000D02*
X74921000Y-79840000D01*
X71200000Y-74954000D02*
X71200000Y-87606000D01*
X73641000Y-75541000D02*
X73641000Y-79840000D01*
X74961000Y-76362000D02*
X74961000Y-79840000D01*
X72161000Y-75064000D02*
X72161000Y-87496000D01*
X75641000Y-82720000D02*
X75641000Y-85562000D01*
X75041000Y-76428000D02*
X75041000Y-79840000D01*
X71080000Y-74951000D02*
X71080000Y-87609000D01*
X76321000Y-77878000D02*
X76321000Y-84682000D01*
X75361000Y-76713000D02*
X75361000Y-79840000D01*
X75081000Y-82720000D02*
X75081000Y-86099000D01*
X75561000Y-82720000D02*
X75561000Y-85647000D01*
X71400000Y-74965000D02*
X71400000Y-87595000D01*
X75201000Y-82720000D02*
X75201000Y-85994000D01*
X72081000Y-75049000D02*
X72081000Y-87511000D01*
X71801000Y-75005000D02*
X71801000Y-87555000D01*
X76921000Y-79071000D02*
X76921000Y-83489000D01*
X74761000Y-82720000D02*
X74761000Y-86353000D01*
X71240000Y-74956000D02*
X71240000Y-87604000D01*
X71841000Y-75011000D02*
X71841000Y-87549000D01*
X76081000Y-82720000D02*
X76081000Y-85030000D01*
X73241000Y-75372000D02*
X73241000Y-87188000D01*
X75041000Y-82720000D02*
X75041000Y-86132000D01*
X74601000Y-76092000D02*
X74601000Y-79840000D01*
X75281000Y-82720000D02*
X75281000Y-85922000D01*
X77121000Y-79697000D02*
X77121000Y-82863000D01*
X71681000Y-74990000D02*
X71681000Y-87570000D01*
X75761000Y-82720000D02*
X75761000Y-85428000D01*
X71000000Y-74950000D02*
X71000000Y-87610000D01*
X74761000Y-76207000D02*
X74761000Y-79840000D01*
X73361000Y-75419000D02*
X73361000Y-79840000D01*
X75321000Y-76675000D02*
X75321000Y-79840000D01*
X64767918Y-77080000D02*
X64767918Y-78330000D01*
X75161000Y-82720000D02*
X75161000Y-86030000D01*
X73121000Y-75327000D02*
X73121000Y-87233000D01*
X71440000Y-74968000D02*
X71440000Y-87592000D01*
X74361000Y-75933000D02*
X74361000Y-79840000D01*
X72961000Y-75272000D02*
X72961000Y-87288000D01*
X73001000Y-75285000D02*
X73001000Y-87275000D01*
X76761000Y-78686000D02*
X76761000Y-83874000D01*
X75681000Y-77042000D02*
X75681000Y-79840000D01*
X74681000Y-82720000D02*
X74681000Y-86411000D01*
X73881000Y-75658000D02*
X73881000Y-79840000D01*
X76401000Y-78005000D02*
X76401000Y-84555000D01*
X74841000Y-82720000D02*
X74841000Y-86292000D01*
X72561000Y-75154000D02*
X72561000Y-87406000D01*
X74321000Y-82720000D02*
X74321000Y-86652000D01*
X72841000Y-75233000D02*
X72841000Y-87327000D01*
X73681000Y-82720000D02*
X73681000Y-87001000D01*
X76521000Y-78211000D02*
X76521000Y-84349000D01*
X74001000Y-75722000D02*
X74001000Y-79840000D01*
X73721000Y-75578000D02*
X73721000Y-79840000D01*
X75881000Y-77273000D02*
X75881000Y-79840000D01*
X74041000Y-75744000D02*
X74041000Y-79840000D01*
X73081000Y-75313000D02*
X73081000Y-87247000D01*
X76681000Y-78516000D02*
X76681000Y-84044000D01*
X75161000Y-76530000D02*
X75161000Y-79840000D01*
X70960000Y-74950000D02*
X70960000Y-87610000D01*
X71480000Y-74971000D02*
X71480000Y-87589000D01*
X74321000Y-75908000D02*
X74321000Y-79840000D01*
X75001000Y-76395000D02*
X75001000Y-79840000D01*
X75281000Y-76638000D02*
X75281000Y-79840000D01*
X76121000Y-82720000D02*
X76121000Y-84976000D01*
X72921000Y-75259000D02*
X72921000Y-87301000D01*
X73321000Y-82720000D02*
X73321000Y-87157000D01*
X73401000Y-82720000D02*
X73401000Y-87125000D01*
X76561000Y-78284000D02*
X76561000Y-84276000D01*
X73721000Y-82720000D02*
X73721000Y-86982000D01*
X73801000Y-82720000D02*
X73801000Y-86942000D01*
X75721000Y-82720000D02*
X75721000Y-85474000D01*
X71360000Y-74962000D02*
X71360000Y-87598000D01*
X75881000Y-82720000D02*
X75881000Y-85287000D01*
X74081000Y-75766000D02*
X74081000Y-79840000D01*
X75921000Y-82720000D02*
X75921000Y-85237000D01*
X74121000Y-75789000D02*
X74121000Y-79840000D01*
X74881000Y-76298000D02*
X74881000Y-79840000D01*
X74521000Y-76037000D02*
X74521000Y-79840000D01*
X75241000Y-82720000D02*
X75241000Y-85958000D01*
X76961000Y-79180000D02*
X76961000Y-83380000D01*
X74161000Y-75812000D02*
X74161000Y-79840000D01*
X75561000Y-76913000D02*
X75561000Y-79840000D01*
X75081000Y-76461000D02*
X75081000Y-79840000D01*
X72241000Y-75079000D02*
X72241000Y-87481000D01*
X71560000Y-74978000D02*
X71560000Y-87582000D01*
X71120000Y-74952000D02*
X71120000Y-87608000D01*
X74881000Y-82720000D02*
X74881000Y-86262000D01*
X73361000Y-82720000D02*
X73361000Y-87141000D01*
X73161000Y-75341000D02*
X73161000Y-87219000D01*
X74521000Y-82720000D02*
X74521000Y-86523000D01*
X76801000Y-78776000D02*
X76801000Y-83784000D01*
X72881000Y-75246000D02*
X72881000Y-87314000D01*
X74281000Y-82720000D02*
X74281000Y-86677000D01*
X72601000Y-75164000D02*
X72601000Y-87396000D01*
X75241000Y-76602000D02*
X75241000Y-79840000D01*
X75521000Y-76872000D02*
X75521000Y-79840000D01*
X73041000Y-75299000D02*
X73041000Y-87261000D01*
X76281000Y-77816000D02*
X76281000Y-84744000D01*
X73441000Y-75452000D02*
X73441000Y-79840000D01*
X73481000Y-75469000D02*
X73481000Y-79840000D01*
X77081000Y-79552000D02*
X77081000Y-83008000D01*
X74801000Y-76237000D02*
X74801000Y-79840000D01*
X76001000Y-77424000D02*
X76001000Y-79840000D01*
X74721000Y-76178000D02*
X74721000Y-79840000D01*
X75201000Y-76566000D02*
X75201000Y-79840000D01*
X74561000Y-76064000D02*
X74561000Y-79840000D01*
X73521000Y-75487000D02*
X73521000Y-79840000D01*
X75841000Y-77225000D02*
X75841000Y-79840000D01*
X75321000Y-82720000D02*
X75321000Y-85885000D01*
X73841000Y-82720000D02*
X73841000Y-86922000D01*
X74921000Y-82720000D02*
X74921000Y-86230000D01*
X77281000Y-80523000D02*
X77281000Y-82037000D01*
X75361000Y-82720000D02*
X75361000Y-85847000D01*
X73401000Y-75435000D02*
X73401000Y-79840000D01*
X71280000Y-74958000D02*
X71280000Y-87602000D01*
X74241000Y-75859000D02*
X74241000Y-79840000D01*
X74041000Y-82720000D02*
X74041000Y-86816000D01*
X64142918Y-77705000D02*
X65392918Y-77705000D01*
X74801000Y-82720000D02*
X74801000Y-86323000D01*
X74481000Y-82720000D02*
X74481000Y-86550000D01*
X73921000Y-82720000D02*
X73921000Y-86881000D01*
X76001000Y-82720000D02*
X76001000Y-85136000D01*
X75601000Y-82720000D02*
X75601000Y-85605000D01*
X75601000Y-76955000D02*
X75601000Y-79840000D01*
X72481000Y-75134000D02*
X72481000Y-87426000D01*
X75481000Y-82720000D02*
X75481000Y-85729000D01*
X72441000Y-75124000D02*
X72441000Y-87436000D01*
X75121000Y-76495000D02*
X75121000Y-79840000D01*
X75961000Y-77373000D02*
X75961000Y-79840000D01*
X73281000Y-75387000D02*
X73281000Y-79840000D01*
X73601000Y-82720000D02*
X73601000Y-87038000D01*
X73281000Y-82720000D02*
X73281000Y-87173000D01*
X74161000Y-82720000D02*
X74161000Y-86748000D01*
X73921000Y-75679000D02*
X73921000Y-79840000D01*
X76041000Y-77476000D02*
X76041000Y-79840000D01*
X74961000Y-82720000D02*
X74961000Y-86198000D01*
X74601000Y-82720000D02*
X74601000Y-86468000D01*
X72521000Y-75143000D02*
X72521000Y-87417000D01*
X76241000Y-77756000D02*
X76241000Y-84804000D01*
X72281000Y-75088000D02*
X72281000Y-87472000D01*
X75441000Y-82720000D02*
X75441000Y-85769000D01*
X73641000Y-82720000D02*
X73641000Y-87019000D01*
X72121000Y-75056000D02*
X72121000Y-87504000D01*
X72681000Y-75186000D02*
X72681000Y-87374000D01*
X75521000Y-82720000D02*
X75521000Y-85688000D01*
X73601000Y-75522000D02*
X73601000Y-79840000D01*
X74401000Y-75958000D02*
X74401000Y-79840000D01*
X77041000Y-79419000D02*
X77041000Y-83141000D01*
X77241000Y-80252000D02*
X77241000Y-82308000D01*
X73961000Y-75700000D02*
X73961000Y-79840000D01*
X74561000Y-82720000D02*
X74561000Y-86496000D01*
X73201000Y-75356000D02*
X73201000Y-87204000D01*
X76641000Y-78436000D02*
X76641000Y-84124000D01*
X75761000Y-77132000D02*
X75761000Y-79840000D01*
X74721000Y-82720000D02*
X74721000Y-86382000D01*
X74681000Y-76149000D02*
X74681000Y-79840000D01*
X74001000Y-82720000D02*
X74001000Y-86838000D01*
X75801000Y-77178000D02*
X75801000Y-79840000D01*
X76161000Y-77640000D02*
X76161000Y-84920000D01*
X76721000Y-78599000D02*
X76721000Y-83961000D01*
X76081000Y-77530000D02*
X76081000Y-79840000D01*
X71761000Y-75000000D02*
X71761000Y-87560000D01*
X74121000Y-82720000D02*
X74121000Y-86771000D01*
X72361000Y-75105000D02*
X72361000Y-87455000D01*
X75401000Y-76752000D02*
X75401000Y-79840000D01*
X76481000Y-78140000D02*
X76481000Y-84420000D01*
X71721000Y-74995000D02*
X71721000Y-87565000D01*
X71640000Y-74986000D02*
X71640000Y-87574000D01*
X77321000Y-80963000D02*
X77321000Y-81597000D01*
X71600000Y-74982000D02*
X71600000Y-87578000D01*
X75681000Y-82720000D02*
X75681000Y-85518000D01*
X76041000Y-82720000D02*
X76041000Y-85084000D01*
X77161000Y-79858000D02*
X77161000Y-82702000D01*
X74401000Y-82720000D02*
X74401000Y-86602000D01*
X71961000Y-75028000D02*
X71961000Y-87532000D01*
X75401000Y-82720000D02*
X75401000Y-85808000D01*
X76601000Y-78359000D02*
X76601000Y-84201000D01*
X76201000Y-77697000D02*
X76201000Y-84863000D01*
X71320000Y-74960000D02*
X71320000Y-87600000D01*
X76441000Y-78072000D02*
X76441000Y-84488000D01*
X71520000Y-74974000D02*
X71520000Y-87586000D01*
X75481000Y-76831000D02*
X75481000Y-79840000D01*
X74281000Y-75883000D02*
X74281000Y-79840000D01*
X74081000Y-82720000D02*
X74081000Y-86794000D01*
X72761000Y-75209000D02*
X72761000Y-87351000D01*
X74241000Y-82720000D02*
X74241000Y-86701000D01*
X71921000Y-75022000D02*
X71921000Y-87538000D01*
X76121000Y-77584000D02*
X76121000Y-79840000D01*
X74481000Y-76010000D02*
X74481000Y-79840000D01*
X77001000Y-79296000D02*
X77001000Y-83264000D01*
X73321000Y-75403000D02*
X73321000Y-79840000D01*
X73881000Y-82720000D02*
X73881000Y-86902000D01*
X73801000Y-75618000D02*
X73801000Y-79840000D01*
X77201000Y-80039000D02*
X77201000Y-82521000D01*
X73481000Y-82720000D02*
X73481000Y-87091000D01*
X73521000Y-82720000D02*
X73521000Y-87073000D01*
X74441000Y-75984000D02*
X74441000Y-79840000D01*
X73681000Y-75559000D02*
X73681000Y-79840000D01*
X73561000Y-82720000D02*
X73561000Y-87056000D01*
X75961000Y-82720000D02*
X75961000Y-85187000D01*
X76881000Y-78968000D02*
X76881000Y-83592000D01*
X74201000Y-75835000D02*
X74201000Y-79840000D01*
X74441000Y-82720000D02*
X74441000Y-86576000D01*
X75641000Y-76998000D02*
X75641000Y-79840000D01*
X73561000Y-75504000D02*
X73561000Y-79840000D01*
X71881000Y-75016000D02*
X71881000Y-87544000D01*
X73441000Y-82720000D02*
X73441000Y-87108000D01*
X72201000Y-75071000D02*
X72201000Y-87489000D01*
X74361000Y-82720000D02*
X74361000Y-86627000D01*
X75001000Y-82720000D02*
X75001000Y-86165000D01*
X72801000Y-75221000D02*
X72801000Y-87339000D01*
X73961000Y-82720000D02*
X73961000Y-86860000D01*
X72641000Y-75175000D02*
X72641000Y-87385000D01*
X76841000Y-78870000D02*
X76841000Y-83690000D01*
X74841000Y-76268000D02*
X74841000Y-79840000D01*
X75721000Y-77086000D02*
X75721000Y-79840000D01*
X76361000Y-77941000D02*
X76361000Y-84619000D01*
X75441000Y-76791000D02*
X75441000Y-79840000D01*
X71160000Y-74953000D02*
X71160000Y-87607000D01*
X74641000Y-76120000D02*
X74641000Y-79840000D01*
X75921000Y-77323000D02*
X75921000Y-79840000D01*
X73841000Y-75638000D02*
X73841000Y-79840000D01*
X72041000Y-75042000D02*
X72041000Y-87518000D01*
X72321000Y-75096000D02*
X72321000Y-87464000D01*
X75121000Y-82720000D02*
X75121000Y-86065000D01*
X73761000Y-82720000D02*
X73761000Y-86962000D01*
X74201000Y-82720000D02*
X74201000Y-86725000D01*
X72001000Y-75035000D02*
X72001000Y-87525000D01*
X75801000Y-82720000D02*
X75801000Y-85382000D01*
X77330000Y-81280000D02*
G75*
G03*
X77330000Y-81280000I-6370000J0D01*
G01*
%TO.C,R8*%
X113165000Y-68730000D02*
X113785000Y-68730000D01*
X113165000Y-68730000D02*
G75*
G03*
X113165000Y-68730000I-920000J0D01*
G01*
%TO.C,Q2*%
X88940000Y-54509000D02*
X78700000Y-54509000D01*
X78700000Y-59150000D02*
X78700000Y-54509000D01*
X88940000Y-57640000D02*
X78700000Y-57640000D01*
X81969000Y-59150000D02*
X81969000Y-57640000D01*
X88940000Y-59150000D02*
X88940000Y-54509000D01*
X85670000Y-59150000D02*
X85670000Y-57640000D01*
X88940000Y-59150000D02*
X78700000Y-59150000D01*
%TO.C,J5*%
X58820000Y-53220000D02*
X73520000Y-53220000D01*
X73820000Y-52920000D02*
X72220000Y-52920000D01*
X73520000Y-60320000D02*
X73520000Y-62420000D01*
X73520000Y-53220000D02*
X73520000Y-55320000D01*
X73820000Y-54620000D02*
X73820000Y-52920000D01*
X67320000Y-62420000D02*
X58820000Y-62420000D01*
X58820000Y-62420000D02*
X58820000Y-53220000D01*
X73520000Y-62420000D02*
X71720000Y-62420000D01*
%TO.C,R3*%
X117435000Y-79320000D02*
X116815000Y-79320000D01*
X119275000Y-79320000D02*
G75*
G03*
X119275000Y-79320000I-920000J0D01*
G01*
%TO.C,D1*%
X72360000Y-70000000D02*
X72360000Y-67160000D01*
X74960000Y-68580000D02*
X72840000Y-68580000D01*
X72240000Y-70000000D02*
X72240000Y-67160000D01*
X72840000Y-67160000D02*
X69400000Y-67160000D01*
X69400000Y-70000000D02*
X72840000Y-70000000D01*
X69400000Y-67160000D02*
X69400000Y-70000000D01*
X72840000Y-70000000D02*
X72840000Y-67160000D01*
X72120000Y-70000000D02*
X72120000Y-67160000D01*
X67280000Y-68580000D02*
X69400000Y-68580000D01*
%TO.C,R6*%
X104055000Y-89120886D02*
X104675000Y-89120886D01*
X104055000Y-89120886D02*
G75*
G03*
X104055000Y-89120886I-920000J0D01*
G01*
%TO.C,D2*%
X114407220Y-58638856D02*
X114407220Y-58482856D01*
X114407220Y-56322856D02*
X114407220Y-56166856D01*
X111806090Y-58482693D02*
G75*
G03*
X113888181Y-58482856I1041130J1079837D01*
G01*
X111174885Y-58481464D02*
G75*
G03*
X114407220Y-58638372I1672335J1078608D01*
G01*
X113888181Y-56322856D02*
G75*
G03*
X111806090Y-56323019I-1040961J-1080000D01*
G01*
X114407220Y-56167340D02*
G75*
G03*
X111174885Y-56324248I-1560000J-1235516D01*
G01*
%TO.C,J2*%
X129360000Y-84110000D02*
X129360000Y-82780000D01*
X129360000Y-85380000D02*
X132020000Y-85380000D01*
X129360000Y-90520000D02*
X132020000Y-90520000D01*
X132020000Y-85380000D02*
X132020000Y-90520000D01*
X129360000Y-82780000D02*
X130690000Y-82780000D01*
X129360000Y-85380000D02*
X129360000Y-90520000D01*
%TO.C,Q3*%
X108128370Y-85520886D02*
X108128370Y-89120886D01*
X112578371Y-87320886D02*
G75*
G03*
X108139892Y-85482408I-2600001J0D01*
G01*
X108139892Y-89159364D02*
G75*
G03*
X112578370Y-87320886I1838478J1838478D01*
G01*
%TO.C,RV1*%
X107955000Y-59205000D02*
X107955000Y-50135000D01*
X95215000Y-50135000D02*
X107955000Y-50135000D01*
X99881000Y-43785000D02*
X99881000Y-37335000D01*
X99881000Y-37335000D02*
X103290000Y-37335000D01*
X104880000Y-50135000D02*
X104880000Y-43785000D01*
X98290000Y-43785000D02*
X104880000Y-43785000D01*
X95215000Y-59205000D02*
X95215000Y-50135000D01*
X98290000Y-50135000D02*
X104880000Y-50135000D01*
X103290000Y-43785000D02*
X103290000Y-37335000D01*
X99881000Y-43785000D02*
X103290000Y-43785000D01*
X98290000Y-50135000D02*
X98290000Y-43785000D01*
X95215000Y-59205000D02*
X107955000Y-59205000D01*
%TO.C,R1*%
X121835000Y-54860000D02*
X122455000Y-54860000D01*
X121835000Y-54860000D02*
G75*
G03*
X121835000Y-54860000I-920000J0D01*
G01*
%TO.C,R5*%
X116755000Y-87060000D02*
X117375000Y-87060000D01*
X116755000Y-87060000D02*
G75*
G03*
X116755000Y-87060000I-920000J0D01*
G01*
%TO.C,R4*%
X105005000Y-75980000D02*
X105625000Y-75980000D01*
X105005000Y-75980000D02*
G75*
G03*
X105005000Y-75980000I-920000J0D01*
G01*
%TO.C,J3*%
X85030000Y-92710000D02*
X85030000Y-92770000D01*
X85030000Y-92770000D02*
X87690000Y-92770000D01*
X85030000Y-91440000D02*
X85030000Y-90110000D01*
X87690000Y-92710000D02*
X87690000Y-92770000D01*
X85030000Y-90110000D02*
X86360000Y-90110000D01*
X85030000Y-92710000D02*
X87690000Y-92710000D01*
%TO.C,U1*%
X89710000Y-66280000D02*
X89710000Y-67790000D01*
X86440000Y-66280000D02*
X86440000Y-70921000D01*
X86440000Y-67790000D02*
X96680000Y-67790000D01*
X96680000Y-66280000D02*
X96680000Y-70921000D01*
X86440000Y-70921000D02*
X96680000Y-70921000D01*
X86440000Y-66280000D02*
X96680000Y-66280000D01*
X93411000Y-66280000D02*
X93411000Y-67790000D01*
%TO.C,J1*%
X125700000Y-80070000D02*
X125700000Y-78740000D01*
X128300000Y-77410000D02*
X130900000Y-77410000D01*
X127030000Y-80070000D02*
X125700000Y-80070000D01*
X128300000Y-80070000D02*
X130900000Y-80070000D01*
X128300000Y-80070000D02*
X128300000Y-77410000D01*
X130900000Y-80070000D02*
X130900000Y-77410000D01*
%TD*%
M02*
