%TF.GenerationSoftware,KiCad,Pcbnew,6.0.11+dfsg-1*%
%TF.CreationDate,2025-12-01T13:38:19+08:00*%
%TF.ProjectId,auto_sprinkler,6175746f-5f73-4707-9269-6e6b6c65722e,rev?*%
%TF.SameCoordinates,Original*%
%TF.FileFunction,Copper,L1,Top*%
%TF.FilePolarity,Positive*%
%FSLAX46Y46*%
G04 Gerber Fmt 4.6, Leading zero omitted, Abs format (unit mm)*
G04 Created by KiCad (PCBNEW 6.0.11+dfsg-1) date 2025-12-01 13:38:19*
%MOMM*%
%LPD*%
G01*
G04 APERTURE LIST*
%TA.AperFunction,ComponentPad*%
%ADD10C,1.400000*%
%TD*%
%TA.AperFunction,ComponentPad*%
%ADD11O,1.400000X1.400000*%
%TD*%
%TA.AperFunction,ComponentPad*%
%ADD12C,1.600000*%
%TD*%
%TA.AperFunction,ComponentPad*%
%ADD13R,1.600000X1.600000*%
%TD*%
%TA.AperFunction,ComponentPad*%
%ADD14O,1.600000X1.600000*%
%TD*%
%TA.AperFunction,ComponentPad*%
%ADD15C,2.000000*%
%TD*%
%TA.AperFunction,ComponentPad*%
%ADD16R,1.700000X1.700000*%
%TD*%
%TA.AperFunction,ComponentPad*%
%ADD17R,1.500000X1.050000*%
%TD*%
%TA.AperFunction,ComponentPad*%
%ADD18O,1.500000X1.050000*%
%TD*%
%TA.AperFunction,ComponentPad*%
%ADD19R,2.400000X2.400000*%
%TD*%
%TA.AperFunction,ComponentPad*%
%ADD20C,2.400000*%
%TD*%
%TA.AperFunction,ComponentPad*%
%ADD21R,1.905000X2.000000*%
%TD*%
%TA.AperFunction,ComponentPad*%
%ADD22O,1.905000X2.000000*%
%TD*%
%TA.AperFunction,ComponentPad*%
%ADD23R,1.800000X4.400000*%
%TD*%
%TA.AperFunction,ComponentPad*%
%ADD24O,1.800000X4.000000*%
%TD*%
%TA.AperFunction,ComponentPad*%
%ADD25O,4.000000X1.800000*%
%TD*%
%TA.AperFunction,ComponentPad*%
%ADD26R,2.000000X2.000000*%
%TD*%
%TA.AperFunction,ComponentPad*%
%ADD27O,2.000000X2.000000*%
%TD*%
%TA.AperFunction,ComponentPad*%
%ADD28R,1.800000X1.800000*%
%TD*%
%TA.AperFunction,ComponentPad*%
%ADD29C,1.800000*%
%TD*%
%TA.AperFunction,ComponentPad*%
%ADD30O,1.700000X1.700000*%
%TD*%
%TA.AperFunction,Conductor*%
%ADD31C,0.600000*%
%TD*%
G04 APERTURE END LIST*
D10*
%TO.P,R2,1*%
%TO.N,Net-(R2-Pad1)*%
X114095000Y-65020000D03*
D11*
%TO.P,R2,2*%
%TO.N,Net-(D2-Pad2)*%
X111555000Y-65020000D03*
%TD*%
D12*
%TO.P,C3,1*%
%TO.N,/Vcc*%
X96510000Y-77740000D03*
%TO.P,C3,2*%
%TO.N,/GND*%
X96510000Y-82740000D03*
%TD*%
D10*
%TO.P,R7,1*%
%TO.N,Net-(Q2-Pad1)*%
X104735000Y-81200000D03*
D11*
%TO.P,R7,2*%
%TO.N,/GND*%
X107275000Y-81200000D03*
%TD*%
D13*
%TO.P,U2,1,~{RESET}/PB5*%
%TO.N,Net-(R1-Pad1)*%
X118375000Y-62480000D03*
D14*
%TO.P,U2,2,PB3*%
%TO.N,Net-(R2-Pad1)*%
X118375000Y-65020000D03*
%TO.P,U2,3,PB4*%
%TO.N,Net-(R8-Pad2)*%
X118375000Y-67560000D03*
%TO.P,U2,4,GND*%
%TO.N,/GND*%
X118375000Y-70100000D03*
%TO.P,U2,5,PB0*%
%TO.N,Net-(R3-Pad1)*%
X125995000Y-70100000D03*
%TO.P,U2,6,PB1*%
%TO.N,Net-(J1-Pad2)*%
X125995000Y-67560000D03*
%TO.P,U2,7,PB2*%
%TO.N,Net-(J2-Pad1)*%
X125995000Y-65020000D03*
%TO.P,U2,8,VCC*%
%TO.N,/Vcc*%
X125995000Y-62480000D03*
%TD*%
D15*
%TO.P,SW1,1,A*%
%TO.N,Net-(R8-Pad2)*%
X122210000Y-89610000D03*
X122210000Y-83110000D03*
%TO.P,SW1,2,B*%
%TO.N,/Vcc*%
X126710000Y-89610000D03*
X126710000Y-83110000D03*
%TD*%
D16*
%TO.P,J4,1,Pin_1*%
%TO.N,/GND*%
X93980000Y-91440000D03*
%TD*%
D17*
%TO.P,Q1,1,E*%
%TO.N,/GND*%
X110755000Y-71624000D03*
D18*
%TO.P,Q1,2,B*%
%TO.N,Net-(Q1-Pad2)*%
X110755000Y-73910000D03*
%TO.P,Q1,3,C*%
%TO.N,Net-(Q1-Pad3)*%
X110755000Y-76196000D03*
%TD*%
D13*
%TO.P,C2,1*%
%TO.N,/GND*%
X84997210Y-78740000D03*
D12*
%TO.P,C2,2*%
%TO.N,/10V*%
X82497210Y-78740000D03*
%TD*%
D19*
%TO.P,C1,1*%
%TO.N,/Motor*%
X67210000Y-81280000D03*
D20*
%TO.P,C1,2*%
%TO.N,/GND*%
X74710000Y-81280000D03*
%TD*%
D10*
%TO.P,R8,1*%
%TO.N,/GND*%
X112245000Y-68730000D03*
D11*
%TO.P,R8,2*%
%TO.N,Net-(R8-Pad2)*%
X114785000Y-68730000D03*
%TD*%
D21*
%TO.P,Q2,1,G*%
%TO.N,Net-(Q2-Pad1)*%
X86360000Y-55880000D03*
D22*
%TO.P,Q2,2,D*%
%TO.N,/10V*%
X83820000Y-55880000D03*
%TO.P,Q2,3,S*%
%TO.N,/Motor*%
X81280000Y-55880000D03*
%TD*%
D23*
%TO.P,J5,1,Pin_1*%
%TO.N,/10V*%
X72520000Y-57820000D03*
D24*
%TO.P,J5,2,Pin_2*%
%TO.N,/GND*%
X66720000Y-57820000D03*
D25*
%TO.P,J5,3*%
%TO.N,N/C*%
X69520000Y-62620000D03*
%TD*%
D10*
%TO.P,R3,1*%
%TO.N,Net-(R3-Pad1)*%
X118355000Y-79320000D03*
D11*
%TO.P,R3,2*%
%TO.N,Net-(Q1-Pad2)*%
X115815000Y-79320000D03*
%TD*%
D26*
%TO.P,D1,1,K*%
%TO.N,/GND*%
X76200000Y-68580000D03*
D27*
%TO.P,D1,2,A*%
%TO.N,/Motor*%
X66040000Y-68580000D03*
%TD*%
D10*
%TO.P,R6,1*%
%TO.N,/10V*%
X103135000Y-89120886D03*
D11*
%TO.P,R6,2*%
%TO.N,Net-(Q3-Pad3)*%
X105675000Y-89120886D03*
%TD*%
D28*
%TO.P,D2,1,K*%
%TO.N,/Vcc*%
X114117220Y-57402856D03*
D29*
%TO.P,D2,2,A*%
%TO.N,Net-(D2-Pad2)*%
X111577220Y-57402856D03*
%TD*%
D16*
%TO.P,J2,1,Pin_1*%
%TO.N,Net-(J2-Pad1)*%
X130690000Y-84110000D03*
D30*
%TO.P,J2,2,Pin_2*%
%TO.N,/Vcc*%
X130690000Y-86650000D03*
%TO.P,J2,3,Pin_3*%
%TO.N,/GND*%
X130690000Y-89190000D03*
%TD*%
D17*
%TO.P,Q3,1,E*%
%TO.N,/GND*%
X109978370Y-85034886D03*
D18*
%TO.P,Q3,2,B*%
%TO.N,Net-(Q3-Pad2)*%
X109978370Y-87320886D03*
%TO.P,Q3,3,C*%
%TO.N,Net-(Q3-Pad3)*%
X109978370Y-89606886D03*
%TD*%
D29*
%TO.P,RV1,1,1*%
%TO.N,Net-(Q3-Pad3)*%
X104125000Y-55335000D03*
%TO.P,RV1,2,2*%
%TO.N,Net-(Q2-Pad1)*%
X101585000Y-55335000D03*
%TO.P,RV1,3,3*%
%TO.N,/GND*%
X99045000Y-55335000D03*
%TD*%
D10*
%TO.P,R1,1*%
%TO.N,Net-(R1-Pad1)*%
X120915000Y-54860000D03*
D11*
%TO.P,R1,2*%
%TO.N,/Vcc*%
X123455000Y-54860000D03*
%TD*%
D10*
%TO.P,R5,1*%
%TO.N,Net-(Q3-Pad2)*%
X115835000Y-87060000D03*
D11*
%TO.P,R5,2*%
%TO.N,Net-(Q1-Pad3)*%
X118375000Y-87060000D03*
%TD*%
D10*
%TO.P,R4,1*%
%TO.N,/Vcc*%
X104085000Y-75980000D03*
D11*
%TO.P,R4,2*%
%TO.N,Net-(Q1-Pad3)*%
X106625000Y-75980000D03*
%TD*%
D16*
%TO.P,J3,1,Pin_1*%
%TO.N,/Motor*%
X86360000Y-91440000D03*
%TD*%
D21*
%TO.P,U1,1,IN*%
%TO.N,/10V*%
X89020000Y-69550000D03*
D22*
%TO.P,U1,2,GND*%
%TO.N,/GND*%
X91560000Y-69550000D03*
%TO.P,U1,3,OUT*%
%TO.N,/Vcc*%
X94100000Y-69550000D03*
%TD*%
D16*
%TO.P,J1,1,Pin_1*%
%TO.N,/GND*%
X127030000Y-78740000D03*
D30*
%TO.P,J1,2,Pin_2*%
%TO.N,Net-(J1-Pad2)*%
X129570000Y-78740000D03*
%TD*%
D31*
%TO.N,Net-(Q3-Pad3)*%
X101600000Y-83805000D02*
X101600000Y-60960000D01*
%TO.N,Net-(Q1-Pad3)*%
X110755000Y-76196000D02*
X106841000Y-76196000D01*
X106841000Y-76196000D02*
X106625000Y-75980000D01*
%TO.N,Net-(Q3-Pad3)*%
X104125000Y-58405000D02*
X104125000Y-55335000D01*
X104140000Y-58420000D02*
X104125000Y-58405000D01*
X101600000Y-60960000D02*
X104140000Y-58420000D01*
X105675000Y-87880000D02*
X101600000Y-83805000D01*
X105675000Y-89120886D02*
X105675000Y-87880000D01*
%TO.N,/GND*%
X96510000Y-82740000D02*
X96510000Y-88910000D01*
X96510000Y-88910000D02*
X93980000Y-91440000D01*
%TO.N,/10V*%
X93980000Y-63500000D02*
X99060000Y-68580000D01*
X87330000Y-69550000D02*
X83820000Y-66040000D01*
X99060000Y-85045886D02*
X103135000Y-89120886D01*
X89020000Y-69550000D02*
X87330000Y-69550000D01*
X89020000Y-65920000D02*
X91440000Y-63500000D01*
X82497210Y-77522790D02*
X89020000Y-71000000D01*
X89020000Y-71000000D02*
X89020000Y-69550000D01*
X89020000Y-69550000D02*
X89020000Y-65920000D01*
X99060000Y-68580000D02*
X99060000Y-85045886D01*
X82497210Y-78740000D02*
X82497210Y-77522790D01*
X83820000Y-66040000D02*
X83820000Y-55880000D01*
X91440000Y-63500000D02*
X93980000Y-63500000D01*
%TO.N,Net-(D2-Pad2)*%
X111577220Y-57402856D02*
X111577220Y-64997780D01*
X111577220Y-64997780D02*
X111555000Y-65020000D01*
%TO.N,Net-(Q1-Pad2)*%
X115815000Y-75200000D02*
X115815000Y-79320000D01*
X110755000Y-73910000D02*
X114565000Y-73910000D01*
X114565000Y-73910000D02*
X115835000Y-75180000D01*
X115835000Y-75180000D02*
X115815000Y-75200000D01*
%TO.N,Net-(Q1-Pad3)*%
X110755000Y-80260000D02*
X110755000Y-76196000D01*
X118375000Y-85340000D02*
X115835000Y-82800000D01*
X115835000Y-82800000D02*
X113295000Y-82800000D01*
X113295000Y-82800000D02*
X110755000Y-80260000D01*
X118375000Y-87060000D02*
X118375000Y-85340000D01*
%TO.N,Net-(Q2-Pad1)*%
X88900000Y-60960000D02*
X99060000Y-60960000D01*
X86360000Y-58420000D02*
X86360000Y-55880000D01*
X88900000Y-60960000D02*
X86360000Y-58420000D01*
X99060000Y-60960000D02*
X101585000Y-58435000D01*
X101585000Y-58435000D02*
X101585000Y-55335000D01*
%TO.N,Net-(Q3-Pad2)*%
X109978370Y-87320886D02*
X115574114Y-87320886D01*
X115574114Y-87320886D02*
X115835000Y-87060000D01*
%TO.N,Net-(Q3-Pad3)*%
X107994114Y-91440000D02*
X109220000Y-91440000D01*
X109220000Y-91440000D02*
X109978370Y-90681630D01*
X105675000Y-89120886D02*
X107994114Y-91440000D01*
X109978370Y-90681630D02*
X109978370Y-89606886D01*
%TO.N,Net-(R1-Pad1)*%
X118375000Y-62480000D02*
X118375000Y-57400000D01*
X118375000Y-57400000D02*
X120915000Y-54860000D01*
%TO.N,Net-(R2-Pad1)*%
X114095000Y-65020000D02*
X118375000Y-65020000D01*
%TO.N,Net-(R3-Pad1)*%
X118355000Y-79320000D02*
X121855000Y-79320000D01*
X125995000Y-75180000D02*
X125995000Y-70100000D01*
X121855000Y-79320000D02*
X125995000Y-75180000D01*
%TO.N,Net-(R8-Pad2)*%
X114785000Y-68730000D02*
X115955000Y-67560000D01*
X115955000Y-67560000D02*
X118375000Y-67560000D01*
%TO.N,/Motor*%
X77370000Y-91440000D02*
X86360000Y-91440000D01*
X73660000Y-66040000D02*
X81280000Y-58420000D01*
X66040000Y-68580000D02*
X66040000Y-80110000D01*
X67210000Y-81280000D02*
X77370000Y-91440000D01*
X68580000Y-66040000D02*
X73660000Y-66040000D01*
X66040000Y-80110000D02*
X67210000Y-81280000D01*
X66040000Y-68580000D02*
X68580000Y-66040000D01*
X81280000Y-58420000D02*
X81280000Y-55880000D01*
%TD*%
%TA.AperFunction,Conductor*%
%TO.N,/GND*%
G36*
X134053621Y-51328502D02*
G01*
X134100114Y-51382158D01*
X134111500Y-51434500D01*
X134111500Y-93345500D01*
X134091498Y-93413621D01*
X134037842Y-93460114D01*
X133985500Y-93471500D01*
X64134500Y-93471500D01*
X64066379Y-93451498D01*
X64019886Y-93397842D01*
X64008500Y-93345500D01*
X64008500Y-68580000D01*
X64434551Y-68580000D01*
X64454317Y-68831148D01*
X64455471Y-68835955D01*
X64455472Y-68835961D01*
X64491519Y-68986105D01*
X64513127Y-69076111D01*
X64515020Y-69080682D01*
X64515021Y-69080684D01*
X64589517Y-69260533D01*
X64609534Y-69308859D01*
X64741164Y-69523659D01*
X64744376Y-69527419D01*
X64744379Y-69527424D01*
X64876700Y-69682351D01*
X64904776Y-69715224D01*
X65092598Y-69875639D01*
X65095331Y-69877973D01*
X65134140Y-69937424D01*
X65139500Y-69973784D01*
X65139500Y-80029213D01*
X65137949Y-80048923D01*
X65135781Y-80062612D01*
X65136126Y-80069200D01*
X65136126Y-80069204D01*
X65139327Y-80130280D01*
X65139500Y-80136874D01*
X65139500Y-80157192D01*
X65139843Y-80160459D01*
X65139844Y-80160470D01*
X65141624Y-80177400D01*
X65142141Y-80183966D01*
X65143278Y-80205674D01*
X65143917Y-80217858D01*
X65145687Y-80251646D01*
X65149274Y-80265031D01*
X65152878Y-80284479D01*
X65154326Y-80298256D01*
X65156366Y-80304533D01*
X65156366Y-80304535D01*
X65175265Y-80362701D01*
X65177138Y-80369025D01*
X65192970Y-80428109D01*
X65192972Y-80428115D01*
X65194680Y-80434488D01*
X65197676Y-80440367D01*
X65197677Y-80440371D01*
X65200973Y-80446840D01*
X65208536Y-80465097D01*
X65212821Y-80478284D01*
X65216121Y-80483999D01*
X65216121Y-80484000D01*
X65246703Y-80536971D01*
X65249849Y-80542766D01*
X65274106Y-80590371D01*
X65280617Y-80603149D01*
X65284771Y-80608278D01*
X65284771Y-80608279D01*
X65289339Y-80613920D01*
X65300534Y-80630209D01*
X65307467Y-80642216D01*
X65311888Y-80647126D01*
X65352815Y-80692580D01*
X65357099Y-80697596D01*
X65369881Y-80713380D01*
X65372595Y-80716094D01*
X65372653Y-80716200D01*
X65374417Y-80718159D01*
X65373952Y-80718578D01*
X65406621Y-80778406D01*
X65409500Y-80805189D01*
X65409501Y-81665713D01*
X65409501Y-82519360D01*
X65424956Y-82636762D01*
X65485464Y-82782841D01*
X65581718Y-82908282D01*
X65707159Y-83004536D01*
X65853238Y-83065044D01*
X65970639Y-83080500D01*
X66099935Y-83080500D01*
X67684810Y-83080499D01*
X67752931Y-83100501D01*
X67773905Y-83117404D01*
X72242367Y-87585867D01*
X76676128Y-92019628D01*
X76688962Y-92034654D01*
X76697112Y-92045871D01*
X76702015Y-92050285D01*
X76702017Y-92050288D01*
X76747477Y-92091220D01*
X76752261Y-92095761D01*
X76766620Y-92110120D01*
X76769180Y-92112193D01*
X76769181Y-92112194D01*
X76782411Y-92122908D01*
X76787421Y-92127188D01*
X76832874Y-92168113D01*
X76832879Y-92168117D01*
X76837784Y-92172533D01*
X76843500Y-92175833D01*
X76849786Y-92179462D01*
X76866083Y-92190663D01*
X76876851Y-92199383D01*
X76882739Y-92202383D01*
X76937234Y-92230151D01*
X76943029Y-92233297D01*
X76996000Y-92263879D01*
X77001716Y-92267179D01*
X77013547Y-92271023D01*
X77014903Y-92271464D01*
X77033160Y-92279027D01*
X77039629Y-92282323D01*
X77039633Y-92282324D01*
X77045512Y-92285320D01*
X77051882Y-92287027D01*
X77051885Y-92287028D01*
X77110972Y-92302860D01*
X77117298Y-92304734D01*
X77143962Y-92313397D01*
X77181744Y-92325674D01*
X77188311Y-92326364D01*
X77188315Y-92326365D01*
X77194319Y-92326996D01*
X77195523Y-92327122D01*
X77214964Y-92330725D01*
X77228355Y-92334313D01*
X77272075Y-92336604D01*
X77296020Y-92337859D01*
X77302595Y-92338376D01*
X77319534Y-92340156D01*
X77319537Y-92340156D01*
X77322808Y-92340500D01*
X77343127Y-92340500D01*
X77349721Y-92340673D01*
X77410796Y-92343874D01*
X77410800Y-92343874D01*
X77417388Y-92344219D01*
X77431077Y-92342051D01*
X77450787Y-92340500D01*
X84800916Y-92340500D01*
X84869037Y-92360502D01*
X84915530Y-92414158D01*
X84922623Y-92433890D01*
X84923878Y-92438574D01*
X84924956Y-92446762D01*
X84985464Y-92592841D01*
X85081718Y-92718282D01*
X85207159Y-92814536D01*
X85353238Y-92875044D01*
X85361426Y-92876122D01*
X85466545Y-92889961D01*
X85470639Y-92890500D01*
X86359892Y-92890500D01*
X87249360Y-92890499D01*
X87253444Y-92889961D01*
X87253450Y-92889961D01*
X87358575Y-92876122D01*
X87358577Y-92876122D01*
X87366762Y-92875044D01*
X87512841Y-92814536D01*
X87638282Y-92718282D01*
X87734536Y-92592841D01*
X87795044Y-92446762D01*
X87809313Y-92338375D01*
X87809801Y-92334669D01*
X92622001Y-92334669D01*
X92622371Y-92341490D01*
X92627895Y-92392352D01*
X92631521Y-92407604D01*
X92676676Y-92528054D01*
X92685214Y-92543649D01*
X92761715Y-92645724D01*
X92774276Y-92658285D01*
X92876351Y-92734786D01*
X92891946Y-92743324D01*
X93012394Y-92788478D01*
X93027649Y-92792105D01*
X93078514Y-92797631D01*
X93085328Y-92798000D01*
X93707885Y-92798000D01*
X93723124Y-92793525D01*
X93724329Y-92792135D01*
X93726000Y-92784452D01*
X93726000Y-92779884D01*
X94234000Y-92779884D01*
X94238475Y-92795123D01*
X94239865Y-92796328D01*
X94247548Y-92797999D01*
X94874669Y-92797999D01*
X94881490Y-92797629D01*
X94932352Y-92792105D01*
X94947604Y-92788479D01*
X95068054Y-92743324D01*
X95083649Y-92734786D01*
X95185724Y-92658285D01*
X95198285Y-92645724D01*
X95274786Y-92543649D01*
X95283324Y-92528054D01*
X95328478Y-92407606D01*
X95332105Y-92392351D01*
X95337631Y-92341486D01*
X95338000Y-92334672D01*
X95338000Y-91712115D01*
X95333525Y-91696876D01*
X95332135Y-91695671D01*
X95324452Y-91694000D01*
X94252115Y-91694000D01*
X94236876Y-91698475D01*
X94235671Y-91699865D01*
X94234000Y-91707548D01*
X94234000Y-92779884D01*
X93726000Y-92779884D01*
X93726000Y-91712115D01*
X93721525Y-91696876D01*
X93720135Y-91695671D01*
X93712452Y-91694000D01*
X92640116Y-91694000D01*
X92624877Y-91698475D01*
X92623672Y-91699865D01*
X92622001Y-91707548D01*
X92622001Y-92334669D01*
X87809801Y-92334669D01*
X87809962Y-92333448D01*
X87809962Y-92333447D01*
X87810500Y-92329361D01*
X87810499Y-91167885D01*
X92622000Y-91167885D01*
X92626475Y-91183124D01*
X92627865Y-91184329D01*
X92635548Y-91186000D01*
X93707885Y-91186000D01*
X93723124Y-91181525D01*
X93724329Y-91180135D01*
X93726000Y-91172452D01*
X93726000Y-91167885D01*
X94234000Y-91167885D01*
X94238475Y-91183124D01*
X94239865Y-91184329D01*
X94247548Y-91186000D01*
X95319884Y-91186000D01*
X95335123Y-91181525D01*
X95336328Y-91180135D01*
X95337999Y-91172452D01*
X95337999Y-90545331D01*
X95337629Y-90538510D01*
X95332105Y-90487648D01*
X95328479Y-90472396D01*
X95283324Y-90351946D01*
X95274786Y-90336351D01*
X95198285Y-90234276D01*
X95185724Y-90221715D01*
X95083649Y-90145214D01*
X95068054Y-90136676D01*
X94947606Y-90091522D01*
X94932351Y-90087895D01*
X94881486Y-90082369D01*
X94874672Y-90082000D01*
X94252115Y-90082000D01*
X94236876Y-90086475D01*
X94235671Y-90087865D01*
X94234000Y-90095548D01*
X94234000Y-91167885D01*
X93726000Y-91167885D01*
X93726000Y-90100116D01*
X93721525Y-90084877D01*
X93720135Y-90083672D01*
X93712452Y-90082001D01*
X93085331Y-90082001D01*
X93078510Y-90082371D01*
X93027648Y-90087895D01*
X93012396Y-90091521D01*
X92891946Y-90136676D01*
X92876351Y-90145214D01*
X92774276Y-90221715D01*
X92761715Y-90234276D01*
X92685214Y-90336351D01*
X92676676Y-90351946D01*
X92631522Y-90472394D01*
X92627895Y-90487649D01*
X92622369Y-90538514D01*
X92622000Y-90545328D01*
X92622000Y-91167885D01*
X87810499Y-91167885D01*
X87810499Y-90550640D01*
X87809801Y-90545331D01*
X87796122Y-90441425D01*
X87796122Y-90441423D01*
X87795044Y-90433238D01*
X87734536Y-90287159D01*
X87638282Y-90161718D01*
X87512841Y-90065464D01*
X87366762Y-90004956D01*
X87319235Y-89998699D01*
X87253448Y-89990038D01*
X87253447Y-89990038D01*
X87249361Y-89989500D01*
X86360108Y-89989500D01*
X85470640Y-89989501D01*
X85466556Y-89990039D01*
X85466550Y-89990039D01*
X85361425Y-90003878D01*
X85361423Y-90003878D01*
X85353238Y-90004956D01*
X85207159Y-90065464D01*
X85081718Y-90161718D01*
X84985464Y-90287159D01*
X84924956Y-90433238D01*
X84923878Y-90441425D01*
X84922623Y-90446110D01*
X84885672Y-90506733D01*
X84821811Y-90537755D01*
X84800916Y-90539500D01*
X77795190Y-90539500D01*
X77727069Y-90519498D01*
X77706095Y-90502595D01*
X71029561Y-83826062D01*
X95788493Y-83826062D01*
X95797789Y-83838077D01*
X95848994Y-83873931D01*
X95858489Y-83879414D01*
X96055947Y-83971490D01*
X96066239Y-83975236D01*
X96276688Y-84031625D01*
X96287481Y-84033528D01*
X96504525Y-84052517D01*
X96515475Y-84052517D01*
X96732519Y-84033528D01*
X96743312Y-84031625D01*
X96953761Y-83975236D01*
X96964053Y-83971490D01*
X97161511Y-83879414D01*
X97171006Y-83873931D01*
X97223048Y-83837491D01*
X97231424Y-83827012D01*
X97224356Y-83813566D01*
X96522812Y-83112022D01*
X96508868Y-83104408D01*
X96507035Y-83104539D01*
X96500420Y-83108790D01*
X95794923Y-83814287D01*
X95788493Y-83826062D01*
X71029561Y-83826062D01*
X69856858Y-82653359D01*
X73701386Y-82653359D01*
X73710099Y-82664879D01*
X73798586Y-82729760D01*
X73806505Y-82734708D01*
X74022877Y-82848547D01*
X74031451Y-82852275D01*
X74262282Y-82932885D01*
X74271291Y-82935299D01*
X74511518Y-82980908D01*
X74520775Y-82981962D01*
X74765107Y-82991563D01*
X74774420Y-82991237D01*
X75017478Y-82964618D01*
X75026655Y-82962917D01*
X75263107Y-82900665D01*
X75271926Y-82897628D01*
X75496584Y-82801107D01*
X75504856Y-82796800D01*
X75587797Y-82745475D01*
X95197483Y-82745475D01*
X95216472Y-82962519D01*
X95218375Y-82973312D01*
X95274764Y-83183761D01*
X95278510Y-83194053D01*
X95370586Y-83391511D01*
X95376069Y-83401006D01*
X95412509Y-83453048D01*
X95422988Y-83461424D01*
X95436434Y-83454356D01*
X96137978Y-82752812D01*
X96144356Y-82741132D01*
X96874408Y-82741132D01*
X96874539Y-82742965D01*
X96878790Y-82749580D01*
X97584287Y-83455077D01*
X97596062Y-83461507D01*
X97608077Y-83452211D01*
X97643931Y-83401006D01*
X97649414Y-83391511D01*
X97741490Y-83194053D01*
X97745236Y-83183761D01*
X97801625Y-82973312D01*
X97803528Y-82962519D01*
X97822517Y-82745475D01*
X97822517Y-82734525D01*
X97803528Y-82517481D01*
X97801625Y-82506688D01*
X97745236Y-82296239D01*
X97741490Y-82285947D01*
X97649414Y-82088489D01*
X97643931Y-82078994D01*
X97607491Y-82026952D01*
X97597012Y-82018576D01*
X97583566Y-82025644D01*
X96882022Y-82727188D01*
X96874408Y-82741132D01*
X96144356Y-82741132D01*
X96145592Y-82738868D01*
X96145461Y-82737035D01*
X96141210Y-82730420D01*
X95435713Y-82024923D01*
X95423938Y-82018493D01*
X95411923Y-82027789D01*
X95376069Y-82078994D01*
X95370586Y-82088489D01*
X95278510Y-82285947D01*
X95274764Y-82296239D01*
X95218375Y-82506688D01*
X95216472Y-82517481D01*
X95197483Y-82734525D01*
X95197483Y-82745475D01*
X75587797Y-82745475D01*
X75712777Y-82668135D01*
X75714620Y-82666796D01*
X75722038Y-82655541D01*
X75715974Y-82645184D01*
X74722812Y-81652022D01*
X74708868Y-81644408D01*
X74707035Y-81644539D01*
X74700420Y-81648790D01*
X73708044Y-82641166D01*
X73701386Y-82653359D01*
X69856858Y-82653359D01*
X69047405Y-81843906D01*
X69013379Y-81781594D01*
X69010500Y-81754811D01*
X69010500Y-81239835D01*
X72998022Y-81239835D01*
X73009754Y-81484064D01*
X73010891Y-81493324D01*
X73058593Y-81733143D01*
X73061082Y-81742118D01*
X73143708Y-81972250D01*
X73147505Y-81980778D01*
X73263234Y-82196160D01*
X73268245Y-82204027D01*
X73325173Y-82280263D01*
X73336431Y-82288712D01*
X73348850Y-82281940D01*
X74337978Y-81292812D01*
X74344356Y-81281132D01*
X75074408Y-81281132D01*
X75074539Y-81282965D01*
X75078790Y-81289580D01*
X76073732Y-82284522D01*
X76086112Y-82291282D01*
X76094453Y-82285038D01*
X76212700Y-82101202D01*
X76217147Y-82093011D01*
X76317572Y-81870076D01*
X76320767Y-81861298D01*
X76379516Y-81652988D01*
X95788576Y-81652988D01*
X95795644Y-81666434D01*
X96497188Y-82367978D01*
X96511132Y-82375592D01*
X96512965Y-82375461D01*
X96519580Y-82371210D01*
X97225077Y-81665713D01*
X97231507Y-81653938D01*
X97222211Y-81641923D01*
X97171006Y-81606069D01*
X97161511Y-81600586D01*
X96964053Y-81508510D01*
X96953761Y-81504764D01*
X96743312Y-81448375D01*
X96732519Y-81446472D01*
X96515475Y-81427483D01*
X96504525Y-81427483D01*
X96287481Y-81446472D01*
X96276688Y-81448375D01*
X96066239Y-81504764D01*
X96055947Y-81508510D01*
X95858489Y-81600586D01*
X95848994Y-81606069D01*
X95796952Y-81642509D01*
X95788576Y-81652988D01*
X76379516Y-81652988D01*
X76387135Y-81625973D01*
X76388993Y-81616844D01*
X76420044Y-81372770D01*
X76420525Y-81366483D01*
X76422706Y-81283160D01*
X76422555Y-81276851D01*
X76404321Y-81031486D01*
X76402944Y-81022280D01*
X76348979Y-80783786D01*
X76346255Y-80774875D01*
X76257633Y-80546983D01*
X76253619Y-80538567D01*
X76132284Y-80326276D01*
X76127074Y-80318553D01*
X76095787Y-80278865D01*
X76083863Y-80270395D01*
X76072328Y-80276882D01*
X75082022Y-81267188D01*
X75074408Y-81281132D01*
X74344356Y-81281132D01*
X74345592Y-81278868D01*
X74345461Y-81277035D01*
X74341210Y-81270420D01*
X73346828Y-80276038D01*
X73333520Y-80268771D01*
X73323481Y-80275893D01*
X73318581Y-80281784D01*
X73313168Y-80289373D01*
X73186322Y-80498409D01*
X73182084Y-80506726D01*
X73087529Y-80732214D01*
X73084572Y-80741052D01*
X73024384Y-80978042D01*
X73022763Y-80987232D01*
X72998267Y-81230510D01*
X72998022Y-81239835D01*
X69010500Y-81239835D01*
X69010499Y-80044763D01*
X69010499Y-80040640D01*
X69009831Y-80035561D01*
X68996122Y-79931425D01*
X68996122Y-79931423D01*
X68995044Y-79923238D01*
X68987455Y-79904917D01*
X73699330Y-79904917D01*
X73703903Y-79914693D01*
X74697188Y-80907978D01*
X74711132Y-80915592D01*
X74712965Y-80915461D01*
X74719580Y-80911210D01*
X75712488Y-79918302D01*
X75718872Y-79906612D01*
X75709460Y-79894502D01*
X75583144Y-79806873D01*
X75575116Y-79802145D01*
X75355810Y-79693995D01*
X75347177Y-79690507D01*
X75114288Y-79615958D01*
X75105238Y-79613785D01*
X74863891Y-79574480D01*
X74854602Y-79573668D01*
X74610114Y-79570467D01*
X74600803Y-79571037D01*
X74358522Y-79604010D01*
X74349403Y-79605948D01*
X74114668Y-79674367D01*
X74105915Y-79677639D01*
X73883869Y-79780004D01*
X73875714Y-79784524D01*
X73708468Y-79894175D01*
X73699330Y-79904917D01*
X68987455Y-79904917D01*
X68934536Y-79777159D01*
X68838282Y-79651718D01*
X68712841Y-79555464D01*
X68566762Y-79494956D01*
X68558156Y-79493823D01*
X68453448Y-79480038D01*
X68453447Y-79480038D01*
X68449361Y-79479500D01*
X68401563Y-79479500D01*
X67066500Y-79479501D01*
X66998379Y-79459499D01*
X66951886Y-79405843D01*
X66940500Y-79353501D01*
X66940500Y-69973784D01*
X66960502Y-69905663D01*
X66984669Y-69877973D01*
X66987402Y-69875639D01*
X67175224Y-69715224D01*
X67203300Y-69682351D01*
X67252565Y-69624669D01*
X74692001Y-69624669D01*
X74692371Y-69631490D01*
X74697895Y-69682352D01*
X74701521Y-69697604D01*
X74746676Y-69818054D01*
X74755214Y-69833649D01*
X74831715Y-69935724D01*
X74844276Y-69948285D01*
X74946351Y-70024786D01*
X74961946Y-70033324D01*
X75082394Y-70078478D01*
X75097649Y-70082105D01*
X75148514Y-70087631D01*
X75155328Y-70088000D01*
X75927885Y-70088000D01*
X75943124Y-70083525D01*
X75944329Y-70082135D01*
X75946000Y-70074452D01*
X75946000Y-70069884D01*
X76454000Y-70069884D01*
X76458475Y-70085123D01*
X76459865Y-70086328D01*
X76467548Y-70087999D01*
X77244669Y-70087999D01*
X77251490Y-70087629D01*
X77302352Y-70082105D01*
X77317604Y-70078479D01*
X77438054Y-70033324D01*
X77453649Y-70024786D01*
X77555724Y-69948285D01*
X77568285Y-69935724D01*
X77644786Y-69833649D01*
X77653324Y-69818054D01*
X77698478Y-69697606D01*
X77702105Y-69682351D01*
X77707631Y-69631486D01*
X77708000Y-69624672D01*
X77708000Y-68852115D01*
X77703525Y-68836876D01*
X77702135Y-68835671D01*
X77694452Y-68834000D01*
X76472115Y-68834000D01*
X76456876Y-68838475D01*
X76455671Y-68839865D01*
X76454000Y-68847548D01*
X76454000Y-70069884D01*
X75946000Y-70069884D01*
X75946000Y-68852115D01*
X75941525Y-68836876D01*
X75940135Y-68835671D01*
X75932452Y-68834000D01*
X74710116Y-68834000D01*
X74694877Y-68838475D01*
X74693672Y-68839865D01*
X74692001Y-68847548D01*
X74692001Y-69624669D01*
X67252565Y-69624669D01*
X67335621Y-69527424D01*
X67335624Y-69527419D01*
X67338836Y-69523659D01*
X67470466Y-69308859D01*
X67490484Y-69260533D01*
X67564979Y-69080684D01*
X67564980Y-69080682D01*
X67566873Y-69076111D01*
X67588481Y-68986105D01*
X67624528Y-68835961D01*
X67624529Y-68835955D01*
X67625683Y-68831148D01*
X67645449Y-68580000D01*
X67625787Y-68330175D01*
X67630470Y-68307885D01*
X74692000Y-68307885D01*
X74696475Y-68323124D01*
X74697865Y-68324329D01*
X74705548Y-68326000D01*
X75927885Y-68326000D01*
X75943124Y-68321525D01*
X75944329Y-68320135D01*
X75946000Y-68312452D01*
X75946000Y-68307885D01*
X76454000Y-68307885D01*
X76458475Y-68323124D01*
X76459865Y-68324329D01*
X76467548Y-68326000D01*
X77689884Y-68326000D01*
X77705123Y-68321525D01*
X77706328Y-68320135D01*
X77707999Y-68312452D01*
X77707999Y-67535331D01*
X77707629Y-67528510D01*
X77702105Y-67477648D01*
X77698479Y-67462396D01*
X77653324Y-67341946D01*
X77644786Y-67326351D01*
X77568285Y-67224276D01*
X77555724Y-67211715D01*
X77453649Y-67135214D01*
X77438054Y-67126676D01*
X77317606Y-67081522D01*
X77302351Y-67077895D01*
X77251486Y-67072369D01*
X77244672Y-67072000D01*
X76472115Y-67072000D01*
X76456876Y-67076475D01*
X76455671Y-67077865D01*
X76454000Y-67085548D01*
X76454000Y-68307885D01*
X75946000Y-68307885D01*
X75946000Y-67090116D01*
X75941525Y-67074877D01*
X75940135Y-67073672D01*
X75932452Y-67072001D01*
X75155331Y-67072001D01*
X75148510Y-67072371D01*
X75097648Y-67077895D01*
X75082396Y-67081521D01*
X74961946Y-67126676D01*
X74946351Y-67135214D01*
X74844276Y-67211715D01*
X74831715Y-67224276D01*
X74755214Y-67326351D01*
X74746676Y-67341946D01*
X74701522Y-67462394D01*
X74697895Y-67477649D01*
X74692369Y-67528514D01*
X74692000Y-67535328D01*
X74692000Y-68307885D01*
X67630470Y-68307885D01*
X67640383Y-68260696D01*
X67662304Y-68231195D01*
X68916094Y-66977405D01*
X68978406Y-66943379D01*
X69005189Y-66940500D01*
X73579213Y-66940500D01*
X73598923Y-66942051D01*
X73612612Y-66944219D01*
X73619200Y-66943874D01*
X73619204Y-66943874D01*
X73680280Y-66940673D01*
X73686874Y-66940500D01*
X73707192Y-66940500D01*
X73710459Y-66940157D01*
X73710470Y-66940156D01*
X73727400Y-66938376D01*
X73733966Y-66937859D01*
X73763627Y-66936305D01*
X73795052Y-66934659D01*
X73795057Y-66934658D01*
X73801646Y-66934313D01*
X73815037Y-66930725D01*
X73834479Y-66927122D01*
X73841693Y-66926364D01*
X73841695Y-66926364D01*
X73848256Y-66925674D01*
X73854533Y-66923634D01*
X73854535Y-66923634D01*
X73912701Y-66904735D01*
X73919025Y-66902862D01*
X73978109Y-66887030D01*
X73978115Y-66887028D01*
X73984488Y-66885320D01*
X73990367Y-66882324D01*
X73990371Y-66882323D01*
X73996840Y-66879027D01*
X74015097Y-66871464D01*
X74016453Y-66871023D01*
X74028284Y-66867179D01*
X74037975Y-66861584D01*
X74086971Y-66833297D01*
X74092766Y-66830151D01*
X74147266Y-66802381D01*
X74147269Y-66802379D01*
X74153149Y-66799383D01*
X74163920Y-66790661D01*
X74180209Y-66779466D01*
X74192216Y-66772533D01*
X74198691Y-66766703D01*
X74242580Y-66727185D01*
X74247596Y-66722901D01*
X74255922Y-66716158D01*
X74263380Y-66710119D01*
X74277729Y-66695770D01*
X74282513Y-66691229D01*
X74327985Y-66650286D01*
X74327986Y-66650284D01*
X74332888Y-66645871D01*
X74341041Y-66634649D01*
X74353878Y-66619621D01*
X81859621Y-59113878D01*
X81874649Y-59101041D01*
X81885871Y-59092888D01*
X81931229Y-59042513D01*
X81935770Y-59037729D01*
X81950119Y-59023380D01*
X81962901Y-59007596D01*
X81967185Y-59002580D01*
X82008112Y-58957126D01*
X82012533Y-58952216D01*
X82019466Y-58940209D01*
X82030661Y-58923920D01*
X82035229Y-58918279D01*
X82035229Y-58918278D01*
X82039383Y-58913149D01*
X82044373Y-58903356D01*
X82070151Y-58852766D01*
X82073297Y-58846971D01*
X82103879Y-58794000D01*
X82103879Y-58793999D01*
X82107179Y-58788284D01*
X82111464Y-58775097D01*
X82119027Y-58756840D01*
X82122323Y-58750371D01*
X82122326Y-58750364D01*
X82125320Y-58744488D01*
X82142862Y-58679020D01*
X82144729Y-58672719D01*
X82165674Y-58608256D01*
X82167123Y-58594467D01*
X82170726Y-58575029D01*
X82171533Y-58572017D01*
X82174312Y-58561646D01*
X82174658Y-58555045D01*
X82177858Y-58493989D01*
X82178375Y-58487415D01*
X82180156Y-58470466D01*
X82180156Y-58470464D01*
X82180500Y-58467192D01*
X82180500Y-58446867D01*
X82180673Y-58440273D01*
X82183874Y-58379204D01*
X82183874Y-58379199D01*
X82184219Y-58372612D01*
X82182051Y-58358923D01*
X82180500Y-58339213D01*
X82180500Y-57259964D01*
X82200502Y-57191843D01*
X82235676Y-57155753D01*
X82252086Y-57144600D01*
X82252087Y-57144600D01*
X82256281Y-57141749D01*
X82437858Y-56970040D01*
X82451912Y-56951658D01*
X82509176Y-56909691D01*
X82580040Y-56905346D01*
X82646521Y-56944862D01*
X82671353Y-56973029D01*
X82734338Y-57044472D01*
X82734341Y-57044475D01*
X82737686Y-57048269D01*
X82741592Y-57051478D01*
X82741602Y-57051487D01*
X82873476Y-57159809D01*
X82913419Y-57218503D01*
X82919500Y-57257173D01*
X82919500Y-65959213D01*
X82917949Y-65978923D01*
X82915781Y-65992612D01*
X82916126Y-65999200D01*
X82916126Y-65999204D01*
X82919327Y-66060280D01*
X82919500Y-66066874D01*
X82919500Y-66087192D01*
X82919843Y-66090459D01*
X82919844Y-66090470D01*
X82921624Y-66107400D01*
X82922142Y-66113983D01*
X82924059Y-66150568D01*
X82925687Y-66181646D01*
X82929274Y-66195031D01*
X82932878Y-66214479D01*
X82934326Y-66228256D01*
X82936366Y-66234533D01*
X82936366Y-66234535D01*
X82955265Y-66292701D01*
X82957138Y-66299025D01*
X82972970Y-66358109D01*
X82972972Y-66358115D01*
X82974680Y-66364488D01*
X82977676Y-66370367D01*
X82977677Y-66370371D01*
X82980973Y-66376840D01*
X82988536Y-66395097D01*
X82992821Y-66408284D01*
X82996121Y-66413999D01*
X82996121Y-66414000D01*
X83026703Y-66466971D01*
X83029849Y-66472766D01*
X83057619Y-66527266D01*
X83060617Y-66533149D01*
X83064771Y-66538278D01*
X83064771Y-66538279D01*
X83069339Y-66543920D01*
X83080534Y-66560209D01*
X83087467Y-66572216D01*
X83091888Y-66577126D01*
X83132815Y-66622580D01*
X83137099Y-66627596D01*
X83149881Y-66643380D01*
X83164230Y-66657729D01*
X83168771Y-66662513D01*
X83208743Y-66706906D01*
X83214129Y-66712888D01*
X83225351Y-66721041D01*
X83240379Y-66733878D01*
X86636128Y-70129628D01*
X86648963Y-70144655D01*
X86657112Y-70155871D01*
X86662015Y-70160285D01*
X86662017Y-70160288D01*
X86707477Y-70201220D01*
X86712261Y-70205761D01*
X86726620Y-70220120D01*
X86729180Y-70222193D01*
X86729181Y-70222194D01*
X86742411Y-70232908D01*
X86747421Y-70237188D01*
X86792874Y-70278113D01*
X86792879Y-70278117D01*
X86797784Y-70282533D01*
X86803500Y-70285833D01*
X86809786Y-70289462D01*
X86826083Y-70300663D01*
X86836851Y-70309383D01*
X86842731Y-70312379D01*
X86842734Y-70312381D01*
X86897237Y-70340151D01*
X86903031Y-70343297D01*
X86961716Y-70377179D01*
X86968001Y-70379221D01*
X86968005Y-70379223D01*
X86974906Y-70381466D01*
X86993163Y-70389028D01*
X86998695Y-70391846D01*
X87005513Y-70395320D01*
X87064884Y-70411229D01*
X87070963Y-70412858D01*
X87077288Y-70414731D01*
X87141744Y-70435674D01*
X87154799Y-70437046D01*
X87155531Y-70437123D01*
X87174967Y-70440726D01*
X87181092Y-70442367D01*
X87188355Y-70444313D01*
X87194954Y-70444659D01*
X87194955Y-70444659D01*
X87256020Y-70447859D01*
X87262595Y-70448376D01*
X87279534Y-70450156D01*
X87279537Y-70450156D01*
X87282808Y-70450500D01*
X87303127Y-70450500D01*
X87309721Y-70450673D01*
X87315325Y-70450967D01*
X87347596Y-70452658D01*
X87414576Y-70476198D01*
X87458197Y-70532213D01*
X87467001Y-70578485D01*
X87467001Y-70589360D01*
X87467539Y-70593444D01*
X87467539Y-70593450D01*
X87475538Y-70654214D01*
X87482456Y-70706762D01*
X87542964Y-70852841D01*
X87627960Y-70963610D01*
X87653560Y-71029830D01*
X87639295Y-71099379D01*
X87617092Y-71129409D01*
X81917589Y-76828912D01*
X81902561Y-76841749D01*
X81891339Y-76849902D01*
X81886926Y-76854804D01*
X81886924Y-76854805D01*
X81845981Y-76900277D01*
X81841440Y-76905061D01*
X81827091Y-76919410D01*
X81825015Y-76921974D01*
X81814309Y-76935194D01*
X81810025Y-76940210D01*
X81764677Y-76990574D01*
X81757744Y-77002581D01*
X81746549Y-77018870D01*
X81737827Y-77029641D01*
X81734831Y-77035521D01*
X81734829Y-77035524D01*
X81707059Y-77090024D01*
X81703913Y-77095819D01*
X81695398Y-77110568D01*
X81670031Y-77154506D01*
X81666187Y-77166337D01*
X81665746Y-77167693D01*
X81658183Y-77185950D01*
X81651890Y-77198302D01*
X81650182Y-77204675D01*
X81650180Y-77204681D01*
X81634348Y-77263765D01*
X81632475Y-77270089D01*
X81625313Y-77292132D01*
X81611536Y-77334534D01*
X81610846Y-77341095D01*
X81610846Y-77341097D01*
X81610088Y-77348311D01*
X81606485Y-77367753D01*
X81602897Y-77381144D01*
X81602552Y-77387733D01*
X81602551Y-77387738D01*
X81602000Y-77398255D01*
X81599523Y-77445548D01*
X81599352Y-77448807D01*
X81598834Y-77455390D01*
X81597054Y-77472320D01*
X81597053Y-77472331D01*
X81596710Y-77475598D01*
X81596710Y-77495916D01*
X81596537Y-77502510D01*
X81595217Y-77527707D01*
X81592991Y-77570178D01*
X81594023Y-77576694D01*
X81595159Y-77583866D01*
X81596710Y-77603577D01*
X81596710Y-77604569D01*
X81576708Y-77672690D01*
X81561804Y-77691620D01*
X81405087Y-77855616D01*
X81275309Y-78045863D01*
X81273133Y-78050552D01*
X81273129Y-78050558D01*
X81180525Y-78250057D01*
X81178346Y-78254752D01*
X81116802Y-78476673D01*
X81116253Y-78481810D01*
X81096433Y-78667266D01*
X81092329Y-78705665D01*
X81092626Y-78710817D01*
X81092626Y-78710821D01*
X81096308Y-78774672D01*
X81105586Y-78935580D01*
X81106723Y-78940626D01*
X81106724Y-78940632D01*
X81130501Y-79046137D01*
X81156216Y-79160242D01*
X81242859Y-79373618D01*
X81363189Y-79569978D01*
X81513973Y-79744048D01*
X81691163Y-79891154D01*
X81890000Y-80007345D01*
X81894825Y-80009187D01*
X81894826Y-80009188D01*
X81928456Y-80022030D01*
X82105144Y-80089501D01*
X82110210Y-80090532D01*
X82110211Y-80090532D01*
X82210907Y-80111018D01*
X82330817Y-80135414D01*
X82460562Y-80140172D01*
X82555795Y-80143664D01*
X82555799Y-80143664D01*
X82560959Y-80143853D01*
X82566079Y-80143197D01*
X82566081Y-80143197D01*
X82666914Y-80130280D01*
X82789388Y-80114591D01*
X82794336Y-80113106D01*
X82794343Y-80113105D01*
X82996238Y-80052533D01*
X83009971Y-80048413D01*
X83216784Y-79947096D01*
X83404272Y-79813363D01*
X83522798Y-79695249D01*
X83585171Y-79661333D01*
X83655977Y-79666521D01*
X83712739Y-79709167D01*
X83729721Y-79740270D01*
X83743886Y-79778054D01*
X83752424Y-79793649D01*
X83828925Y-79895724D01*
X83841486Y-79908285D01*
X83943561Y-79984786D01*
X83959156Y-79993324D01*
X84079604Y-80038478D01*
X84094859Y-80042105D01*
X84145724Y-80047631D01*
X84152538Y-80048000D01*
X84725095Y-80048000D01*
X84740334Y-80043525D01*
X84741539Y-80042135D01*
X84743210Y-80034452D01*
X84743210Y-80029884D01*
X85251210Y-80029884D01*
X85255685Y-80045123D01*
X85257075Y-80046328D01*
X85264758Y-80047999D01*
X85841879Y-80047999D01*
X85848700Y-80047629D01*
X85899562Y-80042105D01*
X85914814Y-80038479D01*
X86035264Y-79993324D01*
X86050859Y-79984786D01*
X86152934Y-79908285D01*
X86165495Y-79895724D01*
X86241996Y-79793649D01*
X86250534Y-79778054D01*
X86295688Y-79657606D01*
X86299315Y-79642351D01*
X86304841Y-79591486D01*
X86305210Y-79584672D01*
X86305210Y-79012115D01*
X86300735Y-78996876D01*
X86299345Y-78995671D01*
X86291662Y-78994000D01*
X85269325Y-78994000D01*
X85254086Y-78998475D01*
X85252881Y-78999865D01*
X85251210Y-79007548D01*
X85251210Y-80029884D01*
X84743210Y-80029884D01*
X84743210Y-78467885D01*
X85251210Y-78467885D01*
X85255685Y-78483124D01*
X85257075Y-78484329D01*
X85264758Y-78486000D01*
X86287094Y-78486000D01*
X86302333Y-78481525D01*
X86303538Y-78480135D01*
X86305209Y-78472452D01*
X86305209Y-77895331D01*
X86304839Y-77888510D01*
X86299315Y-77837648D01*
X86295689Y-77822396D01*
X86251928Y-77705665D01*
X95105119Y-77705665D01*
X95105416Y-77710817D01*
X95105416Y-77710821D01*
X95109846Y-77787649D01*
X95118376Y-77935580D01*
X95119513Y-77940626D01*
X95119514Y-77940632D01*
X95144661Y-78052216D01*
X95169006Y-78160242D01*
X95170948Y-78165024D01*
X95170949Y-78165028D01*
X95237582Y-78329124D01*
X95255649Y-78373618D01*
X95375979Y-78569978D01*
X95526763Y-78744048D01*
X95703953Y-78891154D01*
X95902790Y-79007345D01*
X96117934Y-79089501D01*
X96123000Y-79090532D01*
X96123001Y-79090532D01*
X96223697Y-79111018D01*
X96343607Y-79135414D01*
X96473352Y-79140172D01*
X96568585Y-79143664D01*
X96568589Y-79143664D01*
X96573749Y-79143853D01*
X96578869Y-79143197D01*
X96578871Y-79143197D01*
X96648272Y-79134307D01*
X96802178Y-79114591D01*
X96807126Y-79113106D01*
X96807133Y-79113105D01*
X97017811Y-79049898D01*
X97017810Y-79049898D01*
X97022761Y-79048413D01*
X97229574Y-78947096D01*
X97417062Y-78813363D01*
X97580190Y-78650803D01*
X97638269Y-78569978D01*
X97711559Y-78467983D01*
X97714577Y-78463783D01*
X97816615Y-78257325D01*
X97866462Y-78093261D01*
X97882059Y-78041927D01*
X97882060Y-78041921D01*
X97883563Y-78036975D01*
X97908578Y-77846963D01*
X97937300Y-77782036D01*
X97984871Y-77750658D01*
X97950988Y-77735183D01*
X97912604Y-77675457D01*
X97907924Y-77650283D01*
X97902497Y-77584276D01*
X97896430Y-77510478D01*
X97840326Y-77287120D01*
X97758781Y-77099578D01*
X97750556Y-77080661D01*
X97750554Y-77080658D01*
X97748496Y-77075924D01*
X97648901Y-76921974D01*
X97626215Y-76886906D01*
X97626213Y-76886903D01*
X97623405Y-76882563D01*
X97602774Y-76859889D01*
X97471890Y-76716051D01*
X97471889Y-76716050D01*
X97468412Y-76712229D01*
X97464361Y-76709030D01*
X97464357Y-76709026D01*
X97291735Y-76572697D01*
X97291730Y-76572693D01*
X97287681Y-76569496D01*
X97283165Y-76567003D01*
X97283162Y-76567001D01*
X97090589Y-76460695D01*
X97090585Y-76460693D01*
X97086065Y-76458198D01*
X97081196Y-76456474D01*
X97081192Y-76456472D01*
X96873853Y-76383049D01*
X96873849Y-76383048D01*
X96868978Y-76381323D01*
X96863885Y-76380416D01*
X96863882Y-76380415D01*
X96767707Y-76363284D01*
X96642250Y-76340937D01*
X96555802Y-76339881D01*
X96417141Y-76338186D01*
X96417139Y-76338186D01*
X96411971Y-76338123D01*
X96184325Y-76372958D01*
X95965424Y-76444506D01*
X95761149Y-76550845D01*
X95576984Y-76689119D01*
X95417877Y-76855616D01*
X95414963Y-76859888D01*
X95414962Y-76859889D01*
X95363592Y-76935194D01*
X95288099Y-77045863D01*
X95285923Y-77050552D01*
X95285919Y-77050558D01*
X95193315Y-77250057D01*
X95191136Y-77254752D01*
X95155847Y-77382000D01*
X95141879Y-77432369D01*
X95129592Y-77476673D01*
X95129043Y-77481810D01*
X95107931Y-77679358D01*
X95105119Y-77705665D01*
X86251928Y-77705665D01*
X86250534Y-77701946D01*
X86241996Y-77686351D01*
X86165495Y-77584276D01*
X86152934Y-77571715D01*
X86050859Y-77495214D01*
X86035264Y-77486676D01*
X85914816Y-77441522D01*
X85899561Y-77437895D01*
X85848696Y-77432369D01*
X85841882Y-77432000D01*
X85269325Y-77432000D01*
X85254086Y-77436475D01*
X85252881Y-77437865D01*
X85251210Y-77445548D01*
X85251210Y-78467885D01*
X84743210Y-78467885D01*
X84743210Y-77450116D01*
X84738735Y-77434877D01*
X84737345Y-77433672D01*
X84729662Y-77432001D01*
X84165688Y-77432001D01*
X84097567Y-77411999D01*
X84051074Y-77358343D01*
X84040970Y-77288069D01*
X84070464Y-77223489D01*
X84076593Y-77216906D01*
X89599621Y-71693878D01*
X89614649Y-71681041D01*
X89625871Y-71672888D01*
X89671229Y-71622513D01*
X89675770Y-71617729D01*
X89690119Y-71603380D01*
X89702901Y-71587596D01*
X89707185Y-71582580D01*
X89748112Y-71537126D01*
X89752533Y-71532216D01*
X89759466Y-71520209D01*
X89770661Y-71503920D01*
X89775229Y-71498279D01*
X89775229Y-71498278D01*
X89779383Y-71493149D01*
X89782381Y-71487266D01*
X89810151Y-71432766D01*
X89813297Y-71426971D01*
X89843879Y-71374000D01*
X89843879Y-71373999D01*
X89847179Y-71368284D01*
X89851464Y-71355097D01*
X89859027Y-71336840D01*
X89862323Y-71330371D01*
X89862324Y-71330367D01*
X89865320Y-71324488D01*
X89867028Y-71318115D01*
X89867030Y-71318109D01*
X89882862Y-71259025D01*
X89884733Y-71252705D01*
X89884998Y-71251890D01*
X89889652Y-71237565D01*
X89929723Y-71178960D01*
X89995118Y-71151321D01*
X90003622Y-71150834D01*
X90003618Y-71150769D01*
X90007739Y-71150499D01*
X90011860Y-71150499D01*
X90015944Y-71149961D01*
X90015950Y-71149961D01*
X90121075Y-71136122D01*
X90121077Y-71136122D01*
X90129262Y-71135044D01*
X90275341Y-71074536D01*
X90400782Y-70978282D01*
X90497036Y-70852841D01*
X90506215Y-70830681D01*
X90550762Y-70775400D01*
X90618125Y-70752978D01*
X90686916Y-70770535D01*
X90700716Y-70780016D01*
X90744944Y-70814945D01*
X90753531Y-70820650D01*
X90954722Y-70931714D01*
X90964134Y-70935944D01*
X91180768Y-71012659D01*
X91190739Y-71015293D01*
X91288163Y-71032647D01*
X91301460Y-71031187D01*
X91305543Y-71018096D01*
X91814000Y-71018096D01*
X91817918Y-71031440D01*
X91832194Y-71033427D01*
X91894515Y-71023890D01*
X91904543Y-71021501D01*
X92122988Y-70950102D01*
X92132497Y-70946105D01*
X92336344Y-70839989D01*
X92345069Y-70834495D01*
X92528852Y-70696507D01*
X92536559Y-70689664D01*
X92678862Y-70540753D01*
X92740387Y-70505323D01*
X92811299Y-70508780D01*
X92864470Y-70544479D01*
X92894450Y-70578485D01*
X93014338Y-70714472D01*
X93014341Y-70714475D01*
X93017686Y-70718269D01*
X93021594Y-70721479D01*
X93021595Y-70721480D01*
X93191385Y-70860946D01*
X93210799Y-70876893D01*
X93215167Y-70879435D01*
X93416560Y-70996649D01*
X93426788Y-71002602D01*
X93431511Y-71004415D01*
X93655368Y-71090346D01*
X93655371Y-71090347D01*
X93660097Y-71092161D01*
X93904724Y-71143266D01*
X93909773Y-71143495D01*
X93909779Y-71143496D01*
X94023740Y-71148671D01*
X94154375Y-71154603D01*
X94159395Y-71154022D01*
X94159399Y-71154022D01*
X94270866Y-71141124D01*
X94402627Y-71125879D01*
X94407501Y-71124500D01*
X94407505Y-71124499D01*
X94638224Y-71059212D01*
X94638226Y-71059211D01*
X94643093Y-71057834D01*
X94647668Y-71055700D01*
X94647675Y-71055698D01*
X94865006Y-70954354D01*
X94869587Y-70952218D01*
X94873767Y-70949377D01*
X94873771Y-70949375D01*
X94985145Y-70873685D01*
X95076281Y-70811749D01*
X95205382Y-70689664D01*
X95254176Y-70643522D01*
X95254177Y-70643521D01*
X95257858Y-70640040D01*
X95304921Y-70578485D01*
X95406568Y-70445536D01*
X95406569Y-70445535D01*
X95409646Y-70441510D01*
X95527741Y-70221265D01*
X95609103Y-69984972D01*
X95651640Y-69738710D01*
X95651923Y-69732486D01*
X95652936Y-69710179D01*
X95652936Y-69710158D01*
X95653000Y-69708759D01*
X95653000Y-69439708D01*
X95649933Y-69401584D01*
X95638416Y-69258438D01*
X95638415Y-69258433D01*
X95638010Y-69253397D01*
X95629605Y-69219176D01*
X95579605Y-69015616D01*
X95578398Y-69010702D01*
X95576059Y-69005190D01*
X95482727Y-68785316D01*
X95482727Y-68785315D01*
X95480751Y-68780661D01*
X95357493Y-68584930D01*
X95350277Y-68573471D01*
X95350276Y-68573470D01*
X95347581Y-68569190D01*
X95264058Y-68474451D01*
X95185662Y-68385528D01*
X95185659Y-68385525D01*
X95182314Y-68381731D01*
X95162666Y-68365592D01*
X94993107Y-68226315D01*
X94993104Y-68226313D01*
X94989201Y-68223107D01*
X94810653Y-68119189D01*
X94777580Y-68099940D01*
X94777578Y-68099939D01*
X94773212Y-68097398D01*
X94761075Y-68092739D01*
X94544632Y-68009654D01*
X94544629Y-68009653D01*
X94539903Y-68007839D01*
X94295276Y-67956734D01*
X94290227Y-67956505D01*
X94290221Y-67956504D01*
X94176260Y-67951329D01*
X94045625Y-67945397D01*
X94040605Y-67945978D01*
X94040601Y-67945978D01*
X93938698Y-67957769D01*
X93797373Y-67974121D01*
X93792499Y-67975500D01*
X93792495Y-67975501D01*
X93561776Y-68040788D01*
X93561774Y-68040789D01*
X93556907Y-68042166D01*
X93552332Y-68044300D01*
X93552325Y-68044302D01*
X93433010Y-68099940D01*
X93330413Y-68147782D01*
X93326233Y-68150623D01*
X93326229Y-68150625D01*
X93300242Y-68168286D01*
X93123719Y-68288251D01*
X93116158Y-68295401D01*
X92989276Y-68415388D01*
X92942142Y-68459960D01*
X92939064Y-68463986D01*
X92939063Y-68463987D01*
X92871266Y-68552662D01*
X92814001Y-68594630D01*
X92743138Y-68598975D01*
X92677976Y-68560932D01*
X92562950Y-68434519D01*
X92555417Y-68427494D01*
X92375056Y-68285055D01*
X92366469Y-68279350D01*
X92165278Y-68168286D01*
X92155866Y-68164056D01*
X91939232Y-68087341D01*
X91929261Y-68084707D01*
X91831837Y-68067353D01*
X91818540Y-68068813D01*
X91814000Y-68083370D01*
X91814000Y-71018096D01*
X91305543Y-71018096D01*
X91306000Y-71016630D01*
X91306000Y-68081904D01*
X91302082Y-68068560D01*
X91287806Y-68066573D01*
X91225485Y-68076110D01*
X91215457Y-68078499D01*
X90997012Y-68149898D01*
X90987503Y-68153895D01*
X90783656Y-68260011D01*
X90774931Y-68265505D01*
X90698655Y-68322775D01*
X90632170Y-68347681D01*
X90562775Y-68332689D01*
X90512501Y-68282558D01*
X90506598Y-68270243D01*
X90497036Y-68247159D01*
X90400782Y-68121718D01*
X90275341Y-68025464D01*
X90129262Y-67964956D01*
X90121074Y-67963878D01*
X90030054Y-67951895D01*
X89965127Y-67923173D01*
X89926035Y-67863907D01*
X89920500Y-67826973D01*
X89920500Y-66345189D01*
X89940502Y-66277068D01*
X89957405Y-66256094D01*
X91776095Y-64437405D01*
X91838407Y-64403379D01*
X91865190Y-64400500D01*
X93554811Y-64400500D01*
X93622932Y-64420502D01*
X93643906Y-64437405D01*
X98122595Y-68916095D01*
X98156621Y-68978407D01*
X98159500Y-69005190D01*
X98159500Y-77639959D01*
X98139498Y-77708080D01*
X98086531Y-77753976D01*
X98127736Y-77779769D01*
X98157995Y-77843994D01*
X98159500Y-77863409D01*
X98159500Y-84965099D01*
X98157949Y-84984809D01*
X98155781Y-84998498D01*
X98156126Y-85005086D01*
X98156126Y-85005090D01*
X98159327Y-85066166D01*
X98159500Y-85072760D01*
X98159500Y-85093078D01*
X98159843Y-85096345D01*
X98159844Y-85096356D01*
X98161624Y-85113286D01*
X98162141Y-85119852D01*
X98163483Y-85145463D01*
X98165051Y-85175392D01*
X98165687Y-85187532D01*
X98168587Y-85198354D01*
X98169274Y-85200917D01*
X98172878Y-85220365D01*
X98174326Y-85234142D01*
X98176366Y-85240419D01*
X98176366Y-85240421D01*
X98195265Y-85298587D01*
X98197138Y-85304911D01*
X98212970Y-85363995D01*
X98212972Y-85364001D01*
X98214680Y-85370374D01*
X98217676Y-85376253D01*
X98217677Y-85376257D01*
X98220973Y-85382726D01*
X98228536Y-85400983D01*
X98232821Y-85414170D01*
X98236121Y-85419885D01*
X98236121Y-85419886D01*
X98266703Y-85472857D01*
X98269849Y-85478652D01*
X98282698Y-85503868D01*
X98300617Y-85539035D01*
X98304771Y-85544164D01*
X98304771Y-85544165D01*
X98309339Y-85549806D01*
X98320534Y-85566095D01*
X98327467Y-85578102D01*
X98331888Y-85583012D01*
X98372815Y-85628466D01*
X98377099Y-85633482D01*
X98389881Y-85649266D01*
X98404230Y-85663615D01*
X98408771Y-85668399D01*
X98454129Y-85718774D01*
X98465351Y-85726927D01*
X98480379Y-85739764D01*
X101794038Y-89053423D01*
X101828064Y-89115735D01*
X101830464Y-89131535D01*
X101832104Y-89150283D01*
X101848129Y-89333448D01*
X101849365Y-89347578D01*
X101850789Y-89352891D01*
X101850789Y-89352893D01*
X101876773Y-89449865D01*
X101908261Y-89567382D01*
X101910583Y-89572362D01*
X101910584Y-89572364D01*
X101998176Y-89760203D01*
X102004432Y-89773620D01*
X102134953Y-89960025D01*
X102295861Y-90120933D01*
X102482266Y-90251454D01*
X102487244Y-90253775D01*
X102487247Y-90253777D01*
X102659896Y-90334285D01*
X102688504Y-90347625D01*
X102693812Y-90349047D01*
X102693814Y-90349048D01*
X102902993Y-90405097D01*
X102902995Y-90405097D01*
X102908308Y-90406521D01*
X103135000Y-90426354D01*
X103361692Y-90406521D01*
X103367005Y-90405097D01*
X103367007Y-90405097D01*
X103576186Y-90349048D01*
X103576188Y-90349047D01*
X103581496Y-90347625D01*
X103610104Y-90334285D01*
X103782753Y-90253777D01*
X103782756Y-90253775D01*
X103787734Y-90251454D01*
X103974139Y-90120933D01*
X104135047Y-89960025D01*
X104265568Y-89773620D01*
X104271825Y-89760203D01*
X104290805Y-89719499D01*
X104337722Y-89666214D01*
X104406000Y-89646753D01*
X104473959Y-89667295D01*
X104519195Y-89719499D01*
X104538176Y-89760203D01*
X104544432Y-89773620D01*
X104674953Y-89960025D01*
X104835861Y-90120933D01*
X105022266Y-90251454D01*
X105027244Y-90253775D01*
X105027247Y-90253777D01*
X105199896Y-90334285D01*
X105228504Y-90347625D01*
X105233812Y-90349047D01*
X105233814Y-90349048D01*
X105442993Y-90405097D01*
X105442995Y-90405097D01*
X105448308Y-90406521D01*
X105453784Y-90407000D01*
X105453789Y-90407001D01*
X105610706Y-90420729D01*
X105664350Y-90425422D01*
X105730468Y-90451285D01*
X105742463Y-90461848D01*
X107300236Y-92019621D01*
X107313073Y-92034649D01*
X107321226Y-92045871D01*
X107326128Y-92050284D01*
X107326129Y-92050286D01*
X107371601Y-92091229D01*
X107376376Y-92095761D01*
X107390734Y-92110119D01*
X107393298Y-92112195D01*
X107406518Y-92122901D01*
X107411534Y-92127185D01*
X107456988Y-92168112D01*
X107461898Y-92172533D01*
X107473905Y-92179466D01*
X107490194Y-92190661D01*
X107500965Y-92199383D01*
X107506845Y-92202379D01*
X107506848Y-92202381D01*
X107561348Y-92230151D01*
X107567143Y-92233297D01*
X107620114Y-92263879D01*
X107625830Y-92267179D01*
X107637661Y-92271023D01*
X107639017Y-92271464D01*
X107657274Y-92279027D01*
X107663743Y-92282323D01*
X107663747Y-92282324D01*
X107669626Y-92285320D01*
X107735094Y-92302862D01*
X107741395Y-92304729D01*
X107805858Y-92325674D01*
X107819201Y-92327076D01*
X107819647Y-92327123D01*
X107839085Y-92330726D01*
X107840654Y-92331146D01*
X107852468Y-92334312D01*
X107859068Y-92334658D01*
X107859069Y-92334658D01*
X107920125Y-92337858D01*
X107926699Y-92338375D01*
X107943648Y-92340156D01*
X107943650Y-92340156D01*
X107946922Y-92340500D01*
X107967247Y-92340500D01*
X107973841Y-92340673D01*
X108034910Y-92343874D01*
X108034915Y-92343874D01*
X108041502Y-92344219D01*
X108055191Y-92342051D01*
X108074901Y-92340500D01*
X109139213Y-92340500D01*
X109158923Y-92342051D01*
X109172612Y-92344219D01*
X109179200Y-92343874D01*
X109179204Y-92343874D01*
X109240280Y-92340673D01*
X109246874Y-92340500D01*
X109267192Y-92340500D01*
X109270459Y-92340157D01*
X109270470Y-92340156D01*
X109287400Y-92338376D01*
X109293966Y-92337859D01*
X109323627Y-92336305D01*
X109355052Y-92334659D01*
X109355057Y-92334658D01*
X109361646Y-92334313D01*
X109375037Y-92330725D01*
X109394479Y-92327122D01*
X109401693Y-92326364D01*
X109401695Y-92326364D01*
X109408256Y-92325674D01*
X109414533Y-92323634D01*
X109414535Y-92323634D01*
X109472701Y-92304735D01*
X109479025Y-92302862D01*
X109538109Y-92287030D01*
X109538117Y-92287027D01*
X109544488Y-92285320D01*
X109550367Y-92282324D01*
X109550371Y-92282323D01*
X109556840Y-92279027D01*
X109575097Y-92271464D01*
X109576453Y-92271023D01*
X109588284Y-92267179D01*
X109594000Y-92263879D01*
X109646971Y-92233297D01*
X109652766Y-92230151D01*
X109707266Y-92202381D01*
X109707269Y-92202379D01*
X109713149Y-92199383D01*
X109723920Y-92190661D01*
X109740209Y-92179466D01*
X109752216Y-92172533D01*
X109757126Y-92168112D01*
X109802580Y-92127185D01*
X109807596Y-92122901D01*
X109820816Y-92112195D01*
X109823380Y-92110119D01*
X109837738Y-92095761D01*
X109842513Y-92091229D01*
X109887985Y-92050286D01*
X109887986Y-92050284D01*
X109892888Y-92045871D01*
X109901041Y-92034649D01*
X109913878Y-92019621D01*
X110557991Y-91375508D01*
X110573019Y-91362671D01*
X110584241Y-91354518D01*
X110629599Y-91304143D01*
X110634140Y-91299359D01*
X110648489Y-91285010D01*
X110661271Y-91269226D01*
X110665555Y-91264210D01*
X110706482Y-91218756D01*
X110710903Y-91213846D01*
X110717836Y-91201839D01*
X110729031Y-91185550D01*
X110733599Y-91179909D01*
X110733599Y-91179908D01*
X110737753Y-91174779D01*
X110741266Y-91167885D01*
X110768521Y-91114396D01*
X110771667Y-91108601D01*
X110802249Y-91055630D01*
X110802249Y-91055629D01*
X110805549Y-91049914D01*
X110809834Y-91036727D01*
X110817397Y-91018470D01*
X110820693Y-91012001D01*
X110820694Y-91011997D01*
X110823690Y-91006118D01*
X110841232Y-90940650D01*
X110843099Y-90934349D01*
X110864044Y-90869886D01*
X110865493Y-90856097D01*
X110869096Y-90836659D01*
X110869516Y-90835090D01*
X110872682Y-90823276D01*
X110876228Y-90755619D01*
X110876745Y-90749045D01*
X110878526Y-90732096D01*
X110878526Y-90732094D01*
X110878870Y-90728822D01*
X110878870Y-90708497D01*
X110879043Y-90701903D01*
X110882244Y-90640834D01*
X110882244Y-90640829D01*
X110882589Y-90634242D01*
X110880421Y-90620553D01*
X110878870Y-90600843D01*
X110878870Y-90568748D01*
X110898872Y-90500627D01*
X110927037Y-90469662D01*
X110978350Y-90429355D01*
X110983068Y-90425649D01*
X110987338Y-90420729D01*
X111037658Y-90362739D01*
X111123825Y-90263440D01*
X111132585Y-90248299D01*
X111214843Y-90106111D01*
X111231371Y-90077541D01*
X111301823Y-89874660D01*
X111303085Y-89865961D01*
X111331779Y-89668057D01*
X111331779Y-89668054D01*
X111332640Y-89662117D01*
X111330228Y-89610000D01*
X120604551Y-89610000D01*
X120624317Y-89861148D01*
X120625471Y-89865955D01*
X120625472Y-89865961D01*
X120657340Y-89998699D01*
X120683127Y-90106111D01*
X120685020Y-90110682D01*
X120685021Y-90110684D01*
X120761280Y-90294789D01*
X120779534Y-90338859D01*
X120911164Y-90553659D01*
X120914376Y-90557419D01*
X120914379Y-90557424D01*
X120974423Y-90627726D01*
X121074776Y-90745224D01*
X121078538Y-90748437D01*
X121262576Y-90905621D01*
X121262581Y-90905624D01*
X121266341Y-90908836D01*
X121445247Y-91018470D01*
X121475040Y-91036727D01*
X121481141Y-91040466D01*
X121485711Y-91042359D01*
X121485715Y-91042361D01*
X121709316Y-91134979D01*
X121713889Y-91136873D01*
X121798289Y-91157135D01*
X121954039Y-91194528D01*
X121954045Y-91194529D01*
X121958852Y-91195683D01*
X122210000Y-91215449D01*
X122461148Y-91195683D01*
X122465955Y-91194529D01*
X122465961Y-91194528D01*
X122621711Y-91157135D01*
X122706111Y-91136873D01*
X122710684Y-91134979D01*
X122934285Y-91042361D01*
X122934289Y-91042359D01*
X122938859Y-91040466D01*
X122944961Y-91036727D01*
X122974753Y-91018470D01*
X123153659Y-90908836D01*
X123157419Y-90905624D01*
X123157424Y-90905621D01*
X123341462Y-90748437D01*
X123345224Y-90745224D01*
X123445577Y-90627726D01*
X123505621Y-90557424D01*
X123505624Y-90557419D01*
X123508836Y-90553659D01*
X123640466Y-90338859D01*
X123658721Y-90294789D01*
X123734979Y-90110684D01*
X123734980Y-90110682D01*
X123736873Y-90106111D01*
X123762660Y-89998699D01*
X123794528Y-89865961D01*
X123794529Y-89865955D01*
X123795683Y-89861148D01*
X123815449Y-89610000D01*
X125104551Y-89610000D01*
X125124317Y-89861148D01*
X125125471Y-89865955D01*
X125125472Y-89865961D01*
X125157340Y-89998699D01*
X125183127Y-90106111D01*
X125185020Y-90110682D01*
X125185021Y-90110684D01*
X125261280Y-90294789D01*
X125279534Y-90338859D01*
X125411164Y-90553659D01*
X125414376Y-90557419D01*
X125414379Y-90557424D01*
X125474423Y-90627726D01*
X125574776Y-90745224D01*
X125578538Y-90748437D01*
X125762576Y-90905621D01*
X125762581Y-90905624D01*
X125766341Y-90908836D01*
X125945247Y-91018470D01*
X125975040Y-91036727D01*
X125981141Y-91040466D01*
X125985711Y-91042359D01*
X125985715Y-91042361D01*
X126209316Y-91134979D01*
X126213889Y-91136873D01*
X126298289Y-91157135D01*
X126454039Y-91194528D01*
X126454045Y-91194529D01*
X126458852Y-91195683D01*
X126710000Y-91215449D01*
X126961148Y-91195683D01*
X126965955Y-91194529D01*
X126965961Y-91194528D01*
X127121711Y-91157135D01*
X127206111Y-91136873D01*
X127210684Y-91134979D01*
X127434285Y-91042361D01*
X127434289Y-91042359D01*
X127438859Y-91040466D01*
X127444961Y-91036727D01*
X127474753Y-91018470D01*
X127653659Y-90908836D01*
X127657419Y-90905624D01*
X127657424Y-90905621D01*
X127841462Y-90748437D01*
X127845224Y-90745224D01*
X127945577Y-90627726D01*
X128005621Y-90557424D01*
X128005624Y-90557419D01*
X128008836Y-90553659D01*
X128140466Y-90338859D01*
X128158721Y-90294789D01*
X128234979Y-90110684D01*
X128234980Y-90110682D01*
X128236873Y-90106111D01*
X128262660Y-89998699D01*
X128294528Y-89865961D01*
X128294529Y-89865955D01*
X128295683Y-89861148D01*
X128315449Y-89610000D01*
X128303484Y-89457966D01*
X129358257Y-89457966D01*
X129388565Y-89592446D01*
X129391645Y-89602275D01*
X129471770Y-89799603D01*
X129476413Y-89808794D01*
X129587694Y-89990388D01*
X129593777Y-89998699D01*
X129733213Y-90159667D01*
X129740580Y-90166883D01*
X129904434Y-90302916D01*
X129912881Y-90308831D01*
X130096756Y-90416279D01*
X130106042Y-90420729D01*
X130305001Y-90496703D01*
X130314899Y-90499579D01*
X130418250Y-90520606D01*
X130432299Y-90519410D01*
X130436000Y-90509065D01*
X130436000Y-90508517D01*
X130944000Y-90508517D01*
X130948064Y-90522359D01*
X130961478Y-90524393D01*
X130968184Y-90523534D01*
X130978262Y-90521392D01*
X131182255Y-90460191D01*
X131191842Y-90456433D01*
X131383095Y-90362739D01*
X131391945Y-90357464D01*
X131565328Y-90233792D01*
X131573200Y-90227139D01*
X131724052Y-90076812D01*
X131730730Y-90068965D01*
X131855003Y-89896020D01*
X131860313Y-89887183D01*
X131954670Y-89696267D01*
X131958469Y-89686672D01*
X132020377Y-89482910D01*
X132022555Y-89472837D01*
X132023986Y-89461962D01*
X132021775Y-89447778D01*
X132008617Y-89444000D01*
X130962115Y-89444000D01*
X130946876Y-89448475D01*
X130945671Y-89449865D01*
X130944000Y-89457548D01*
X130944000Y-90508517D01*
X130436000Y-90508517D01*
X130436000Y-89462115D01*
X130431525Y-89446876D01*
X130430135Y-89445671D01*
X130422452Y-89444000D01*
X129373225Y-89444000D01*
X129359694Y-89447973D01*
X129358257Y-89457966D01*
X128303484Y-89457966D01*
X128295683Y-89358852D01*
X128294253Y-89352893D01*
X128245610Y-89150283D01*
X128236873Y-89113889D01*
X128227595Y-89091489D01*
X128142361Y-88885715D01*
X128142359Y-88885711D01*
X128140466Y-88881141D01*
X128008836Y-88666341D01*
X128005624Y-88662581D01*
X128005621Y-88662576D01*
X127848437Y-88478538D01*
X127845224Y-88474776D01*
X127758970Y-88401108D01*
X127657424Y-88314379D01*
X127657419Y-88314376D01*
X127653659Y-88311164D01*
X127438859Y-88179534D01*
X127434289Y-88177641D01*
X127434285Y-88177639D01*
X127210684Y-88085021D01*
X127210682Y-88085020D01*
X127206111Y-88083127D01*
X127108347Y-88059656D01*
X126965961Y-88025472D01*
X126965955Y-88025471D01*
X126961148Y-88024317D01*
X126710000Y-88004551D01*
X126458852Y-88024317D01*
X126454045Y-88025471D01*
X126454039Y-88025472D01*
X126311653Y-88059656D01*
X126213889Y-88083127D01*
X126209318Y-88085020D01*
X126209316Y-88085021D01*
X125985715Y-88177639D01*
X125985711Y-88177641D01*
X125981141Y-88179534D01*
X125766341Y-88311164D01*
X125762581Y-88314376D01*
X125762576Y-88314379D01*
X125661030Y-88401108D01*
X125574776Y-88474776D01*
X125571563Y-88478538D01*
X125414379Y-88662576D01*
X125414376Y-88662581D01*
X125411164Y-88666341D01*
X125279534Y-88881141D01*
X125277641Y-88885711D01*
X125277639Y-88885715D01*
X125192405Y-89091489D01*
X125183127Y-89113889D01*
X125174390Y-89150283D01*
X125125748Y-89352893D01*
X125124317Y-89358852D01*
X125104551Y-89610000D01*
X123815449Y-89610000D01*
X123795683Y-89358852D01*
X123794253Y-89352893D01*
X123745610Y-89150283D01*
X123736873Y-89113889D01*
X123727595Y-89091489D01*
X123642361Y-88885715D01*
X123642359Y-88885711D01*
X123640466Y-88881141D01*
X123508836Y-88666341D01*
X123505624Y-88662581D01*
X123505621Y-88662576D01*
X123348437Y-88478538D01*
X123345224Y-88474776D01*
X123258970Y-88401108D01*
X123157424Y-88314379D01*
X123157419Y-88314376D01*
X123153659Y-88311164D01*
X122938859Y-88179534D01*
X122934289Y-88177641D01*
X122934285Y-88177639D01*
X122710684Y-88085021D01*
X122710682Y-88085020D01*
X122706111Y-88083127D01*
X122608347Y-88059656D01*
X122465961Y-88025472D01*
X122465955Y-88025471D01*
X122461148Y-88024317D01*
X122210000Y-88004551D01*
X121958852Y-88024317D01*
X121954045Y-88025471D01*
X121954039Y-88025472D01*
X121811653Y-88059656D01*
X121713889Y-88083127D01*
X121709318Y-88085020D01*
X121709316Y-88085021D01*
X121485715Y-88177639D01*
X121485711Y-88177641D01*
X121481141Y-88179534D01*
X121266341Y-88311164D01*
X121262581Y-88314376D01*
X121262576Y-88314379D01*
X121161030Y-88401108D01*
X121074776Y-88474776D01*
X121071563Y-88478538D01*
X120914379Y-88662576D01*
X120914376Y-88662581D01*
X120911164Y-88666341D01*
X120779534Y-88881141D01*
X120777641Y-88885711D01*
X120777639Y-88885715D01*
X120692405Y-89091489D01*
X120683127Y-89113889D01*
X120674390Y-89150283D01*
X120625748Y-89352893D01*
X120624317Y-89358852D01*
X120604551Y-89610000D01*
X111330228Y-89610000D01*
X111322711Y-89447580D01*
X111272392Y-89238792D01*
X111232150Y-89150283D01*
X111213523Y-89109316D01*
X111183501Y-89043286D01*
X111059244Y-88868116D01*
X111054921Y-88863977D01*
X111054917Y-88863973D01*
X110908435Y-88723747D01*
X110908434Y-88723747D01*
X110904105Y-88719602D01*
X110723681Y-88603104D01*
X110669386Y-88581222D01*
X110613683Y-88537209D01*
X110590616Y-88470064D01*
X110607513Y-88401108D01*
X110658795Y-88352342D01*
X110808846Y-88275061D01*
X110808849Y-88275059D01*
X110814177Y-88272315D01*
X110818890Y-88268613D01*
X110818893Y-88268611D01*
X110844748Y-88248301D01*
X110910674Y-88221950D01*
X110922582Y-88221386D01*
X115220421Y-88221386D01*
X115273671Y-88233191D01*
X115377799Y-88281747D01*
X115388504Y-88286739D01*
X115393812Y-88288161D01*
X115393814Y-88288162D01*
X115602993Y-88344211D01*
X115602995Y-88344211D01*
X115608308Y-88345635D01*
X115835000Y-88365468D01*
X116061692Y-88345635D01*
X116067005Y-88344211D01*
X116067007Y-88344211D01*
X116276186Y-88288162D01*
X116276188Y-88288161D01*
X116281496Y-88286739D01*
X116286478Y-88284416D01*
X116482753Y-88192891D01*
X116482756Y-88192889D01*
X116487734Y-88190568D01*
X116674139Y-88060047D01*
X116835047Y-87899139D01*
X116965568Y-87712734D01*
X116990805Y-87658613D01*
X117037722Y-87605328D01*
X117106000Y-87585867D01*
X117173959Y-87606409D01*
X117219195Y-87658612D01*
X117244432Y-87712734D01*
X117374953Y-87899139D01*
X117535861Y-88060047D01*
X117722266Y-88190568D01*
X117727244Y-88192889D01*
X117727247Y-88192891D01*
X117923522Y-88284416D01*
X117928504Y-88286739D01*
X117933812Y-88288161D01*
X117933814Y-88288162D01*
X118142993Y-88344211D01*
X118142995Y-88344211D01*
X118148308Y-88345635D01*
X118375000Y-88365468D01*
X118601692Y-88345635D01*
X118607005Y-88344211D01*
X118607007Y-88344211D01*
X118816186Y-88288162D01*
X118816188Y-88288161D01*
X118821496Y-88286739D01*
X118826478Y-88284416D01*
X119022753Y-88192891D01*
X119022756Y-88192889D01*
X119027734Y-88190568D01*
X119214139Y-88060047D01*
X119375047Y-87899139D01*
X119505568Y-87712734D01*
X119518041Y-87685987D01*
X119599416Y-87511478D01*
X119599417Y-87511476D01*
X119601739Y-87506496D01*
X119616066Y-87453029D01*
X119659211Y-87292007D01*
X119659211Y-87292005D01*
X119660635Y-87286692D01*
X119680468Y-87060000D01*
X119660635Y-86833308D01*
X119630569Y-86721099D01*
X119603162Y-86618814D01*
X119603161Y-86618812D01*
X119601990Y-86614440D01*
X129234963Y-86614440D01*
X129235260Y-86619592D01*
X129235260Y-86619596D01*
X129248396Y-86847403D01*
X129248397Y-86847409D01*
X129248694Y-86852562D01*
X129249831Y-86857606D01*
X129293890Y-87053112D01*
X129301131Y-87085245D01*
X129303075Y-87090032D01*
X129303076Y-87090036D01*
X129374388Y-87265655D01*
X129390867Y-87306239D01*
X129515493Y-87509609D01*
X129671660Y-87689894D01*
X129855176Y-87842252D01*
X129859644Y-87844863D01*
X129859647Y-87844865D01*
X129898371Y-87867494D01*
X129947094Y-87919133D01*
X129960165Y-87988916D01*
X129933433Y-88054687D01*
X129910453Y-88077041D01*
X129789433Y-88167905D01*
X129781726Y-88174748D01*
X129634590Y-88328717D01*
X129628104Y-88336727D01*
X129508098Y-88512649D01*
X129503000Y-88521623D01*
X129413338Y-88714783D01*
X129409775Y-88724470D01*
X129354389Y-88924183D01*
X129355912Y-88932607D01*
X129368292Y-88936000D01*
X132008344Y-88936000D01*
X132021875Y-88932027D01*
X132023180Y-88922947D01*
X131981214Y-88755875D01*
X131977894Y-88746124D01*
X131892972Y-88550814D01*
X131888105Y-88541739D01*
X131772426Y-88362926D01*
X131766136Y-88354757D01*
X131622806Y-88197240D01*
X131615273Y-88190215D01*
X131468588Y-88074371D01*
X131427525Y-88016454D01*
X131424293Y-87945531D01*
X131459918Y-87884119D01*
X131473511Y-87872911D01*
X131625234Y-87764688D01*
X131625244Y-87764680D01*
X131629445Y-87761683D01*
X131666286Y-87724971D01*
X131794736Y-87596968D01*
X131798397Y-87593320D01*
X131847560Y-87524903D01*
X131934564Y-87403823D01*
X131937582Y-87399623D01*
X131943895Y-87386851D01*
X132040969Y-87190437D01*
X132040970Y-87190435D01*
X132043263Y-87185795D01*
X132112600Y-86957577D01*
X132113275Y-86952451D01*
X132143296Y-86724421D01*
X132143297Y-86724414D01*
X132143733Y-86721099D01*
X132145121Y-86664332D01*
X132145389Y-86653364D01*
X132145389Y-86653360D01*
X132145471Y-86650000D01*
X132133313Y-86502123D01*
X132126351Y-86417435D01*
X132126350Y-86417429D01*
X132125927Y-86412284D01*
X132122902Y-86400238D01*
X132069080Y-86185963D01*
X132069079Y-86185959D01*
X132067821Y-86180952D01*
X132065762Y-86176216D01*
X131974772Y-85966953D01*
X131974770Y-85966950D01*
X131972712Y-85962216D01*
X131843155Y-85761951D01*
X131836405Y-85754532D01*
X131780397Y-85692981D01*
X131749345Y-85629135D01*
X131757740Y-85558636D01*
X131802916Y-85503868D01*
X131825368Y-85491773D01*
X131842841Y-85484536D01*
X131942724Y-85407893D01*
X131961736Y-85393305D01*
X131968282Y-85388282D01*
X132064536Y-85262841D01*
X132125044Y-85116762D01*
X132126122Y-85108574D01*
X132139962Y-85003448D01*
X132139962Y-85003447D01*
X132140500Y-84999361D01*
X132140499Y-83220640D01*
X132135645Y-83183761D01*
X132126122Y-83111425D01*
X132126122Y-83111423D01*
X132125044Y-83103238D01*
X132064536Y-82957159D01*
X131989103Y-82858852D01*
X131973305Y-82838264D01*
X131968282Y-82831718D01*
X131842841Y-82735464D01*
X131696762Y-82674956D01*
X131620219Y-82664879D01*
X131583448Y-82660038D01*
X131583447Y-82660038D01*
X131579361Y-82659500D01*
X130690108Y-82659500D01*
X129800640Y-82659501D01*
X129796556Y-82660039D01*
X129796550Y-82660039D01*
X129691425Y-82673878D01*
X129691423Y-82673878D01*
X129683238Y-82674956D01*
X129537159Y-82735464D01*
X129411718Y-82831718D01*
X129406695Y-82838264D01*
X129390897Y-82858852D01*
X129315464Y-82957159D01*
X129254956Y-83103238D01*
X129239500Y-83220639D01*
X129239501Y-84999360D01*
X129240039Y-85003444D01*
X129240039Y-85003450D01*
X129253878Y-85108574D01*
X129254956Y-85116762D01*
X129315464Y-85262841D01*
X129411718Y-85388282D01*
X129418264Y-85393305D01*
X129437276Y-85407893D01*
X129537159Y-85484536D01*
X129553532Y-85491318D01*
X129608813Y-85535865D01*
X129631235Y-85603228D01*
X129613678Y-85672019D01*
X129596409Y-85694778D01*
X129558887Y-85734042D01*
X129555973Y-85738314D01*
X129555972Y-85738315D01*
X129462204Y-85875773D01*
X129424475Y-85931082D01*
X129390316Y-86004672D01*
X129328778Y-86137245D01*
X129324051Y-86147428D01*
X129260309Y-86377272D01*
X129259760Y-86382409D01*
X129245741Y-86513591D01*
X129234963Y-86614440D01*
X119601990Y-86614440D01*
X119601739Y-86613504D01*
X119599416Y-86608522D01*
X119507891Y-86412247D01*
X119507889Y-86412244D01*
X119505568Y-86407266D01*
X119375047Y-86220861D01*
X119312405Y-86158219D01*
X119278379Y-86095907D01*
X119275500Y-86069124D01*
X119275500Y-85420787D01*
X119277051Y-85401076D01*
X119278187Y-85393904D01*
X119279219Y-85387388D01*
X119278328Y-85370374D01*
X119275673Y-85319727D01*
X119275500Y-85313133D01*
X119275500Y-85292808D01*
X119275088Y-85288886D01*
X119273375Y-85272585D01*
X119272858Y-85266011D01*
X119269658Y-85204955D01*
X119269658Y-85204954D01*
X119269312Y-85198354D01*
X119265726Y-85184971D01*
X119262123Y-85165533D01*
X119261364Y-85158312D01*
X119260674Y-85151744D01*
X119239729Y-85087281D01*
X119237860Y-85080973D01*
X119220320Y-85015512D01*
X119215010Y-85005090D01*
X119214027Y-85003160D01*
X119206464Y-84984903D01*
X119206023Y-84983547D01*
X119202179Y-84971716D01*
X119198359Y-84965099D01*
X119168297Y-84913029D01*
X119165151Y-84907234D01*
X119137381Y-84852734D01*
X119137379Y-84852731D01*
X119134383Y-84846851D01*
X119125661Y-84836080D01*
X119114466Y-84819791D01*
X119107533Y-84807784D01*
X119080724Y-84778010D01*
X119062185Y-84757420D01*
X119057901Y-84752404D01*
X119047195Y-84739184D01*
X119045119Y-84736620D01*
X119030770Y-84722271D01*
X119026229Y-84717487D01*
X118985286Y-84672015D01*
X118985284Y-84672014D01*
X118980871Y-84667112D01*
X118969649Y-84658959D01*
X118954621Y-84646122D01*
X117418499Y-83110000D01*
X120604551Y-83110000D01*
X120624317Y-83361148D01*
X120625471Y-83365955D01*
X120625472Y-83365961D01*
X120662865Y-83521711D01*
X120683127Y-83606111D01*
X120685020Y-83610682D01*
X120685021Y-83610684D01*
X120776641Y-83831874D01*
X120779534Y-83838859D01*
X120911164Y-84053659D01*
X120914376Y-84057419D01*
X120914379Y-84057424D01*
X121007972Y-84167007D01*
X121074776Y-84245224D01*
X121078538Y-84248437D01*
X121262576Y-84405621D01*
X121262581Y-84405624D01*
X121266341Y-84408836D01*
X121481141Y-84540466D01*
X121485711Y-84542359D01*
X121485715Y-84542361D01*
X121709316Y-84634979D01*
X121713889Y-84636873D01*
X121758071Y-84647480D01*
X121954039Y-84694528D01*
X121954045Y-84694529D01*
X121958852Y-84695683D01*
X122210000Y-84715449D01*
X122461148Y-84695683D01*
X122465955Y-84694529D01*
X122465961Y-84694528D01*
X122661929Y-84647480D01*
X122706111Y-84636873D01*
X122710684Y-84634979D01*
X122934285Y-84542361D01*
X122934289Y-84542359D01*
X122938859Y-84540466D01*
X123153659Y-84408836D01*
X123157419Y-84405624D01*
X123157424Y-84405621D01*
X123341462Y-84248437D01*
X123345224Y-84245224D01*
X123412028Y-84167007D01*
X123505621Y-84057424D01*
X123505624Y-84057419D01*
X123508836Y-84053659D01*
X123640466Y-83838859D01*
X123643360Y-83831874D01*
X123734979Y-83610684D01*
X123734980Y-83610682D01*
X123736873Y-83606111D01*
X123757135Y-83521711D01*
X123794528Y-83365961D01*
X123794529Y-83365955D01*
X123795683Y-83361148D01*
X123815449Y-83110000D01*
X125104551Y-83110000D01*
X125124317Y-83361148D01*
X125125471Y-83365955D01*
X125125472Y-83365961D01*
X125162865Y-83521711D01*
X125183127Y-83606111D01*
X125185020Y-83610682D01*
X125185021Y-83610684D01*
X125276641Y-83831874D01*
X125279534Y-83838859D01*
X125411164Y-84053659D01*
X125414376Y-84057419D01*
X125414379Y-84057424D01*
X125507972Y-84167007D01*
X125574776Y-84245224D01*
X125578538Y-84248437D01*
X125762576Y-84405621D01*
X125762581Y-84405624D01*
X125766341Y-84408836D01*
X125981141Y-84540466D01*
X125985711Y-84542359D01*
X125985715Y-84542361D01*
X126209316Y-84634979D01*
X126213889Y-84636873D01*
X126258071Y-84647480D01*
X126454039Y-84694528D01*
X126454045Y-84694529D01*
X126458852Y-84695683D01*
X126710000Y-84715449D01*
X126961148Y-84695683D01*
X126965955Y-84694529D01*
X126965961Y-84694528D01*
X127161929Y-84647480D01*
X127206111Y-84636873D01*
X127210684Y-84634979D01*
X127434285Y-84542361D01*
X127434289Y-84542359D01*
X127438859Y-84540466D01*
X127653659Y-84408836D01*
X127657419Y-84405624D01*
X127657424Y-84405621D01*
X127841462Y-84248437D01*
X127845224Y-84245224D01*
X127912028Y-84167007D01*
X128005621Y-84057424D01*
X128005624Y-84057419D01*
X128008836Y-84053659D01*
X128140466Y-83838859D01*
X128143360Y-83831874D01*
X128234979Y-83610684D01*
X128234980Y-83610682D01*
X128236873Y-83606111D01*
X128257135Y-83521711D01*
X128294528Y-83365961D01*
X128294529Y-83365955D01*
X128295683Y-83361148D01*
X128315449Y-83110000D01*
X128295683Y-82858852D01*
X128290741Y-82838264D01*
X128249575Y-82666796D01*
X128236873Y-82613889D01*
X128191964Y-82505468D01*
X128142361Y-82385715D01*
X128142359Y-82385711D01*
X128140466Y-82381141D01*
X128008836Y-82166341D01*
X128005624Y-82162581D01*
X128005621Y-82162576D01*
X127848437Y-81978538D01*
X127845224Y-81974776D01*
X127733668Y-81879498D01*
X127657424Y-81814379D01*
X127657419Y-81814376D01*
X127653659Y-81811164D01*
X127438859Y-81679534D01*
X127434289Y-81677641D01*
X127434285Y-81677639D01*
X127210684Y-81585021D01*
X127210682Y-81585020D01*
X127206111Y-81583127D01*
X127121711Y-81562865D01*
X126965961Y-81525472D01*
X126965955Y-81525471D01*
X126961148Y-81524317D01*
X126710000Y-81504551D01*
X126458852Y-81524317D01*
X126454045Y-81525471D01*
X126454039Y-81525472D01*
X126298289Y-81562865D01*
X126213889Y-81583127D01*
X126209318Y-81585020D01*
X126209316Y-81585021D01*
X125985715Y-81677639D01*
X125985711Y-81677641D01*
X125981141Y-81679534D01*
X125766341Y-81811164D01*
X125762581Y-81814376D01*
X125762576Y-81814379D01*
X125686332Y-81879498D01*
X125574776Y-81974776D01*
X125571563Y-81978538D01*
X125414379Y-82162576D01*
X125414376Y-82162581D01*
X125411164Y-82166341D01*
X125279534Y-82381141D01*
X125277641Y-82385711D01*
X125277639Y-82385715D01*
X125228036Y-82505468D01*
X125183127Y-82613889D01*
X125170425Y-82666796D01*
X125129260Y-82838264D01*
X125124317Y-82858852D01*
X125104551Y-83110000D01*
X123815449Y-83110000D01*
X123795683Y-82858852D01*
X123790741Y-82838264D01*
X123749575Y-82666796D01*
X123736873Y-82613889D01*
X123691964Y-82505468D01*
X123642361Y-82385715D01*
X123642359Y-82385711D01*
X123640466Y-82381141D01*
X123508836Y-82166341D01*
X123505624Y-82162581D01*
X123505621Y-82162576D01*
X123348437Y-81978538D01*
X123345224Y-81974776D01*
X123233668Y-81879498D01*
X123157424Y-81814379D01*
X123157419Y-81814376D01*
X123153659Y-81811164D01*
X122938859Y-81679534D01*
X122934289Y-81677641D01*
X122934285Y-81677639D01*
X122710684Y-81585021D01*
X122710682Y-81585020D01*
X122706111Y-81583127D01*
X122621711Y-81562865D01*
X122465961Y-81525472D01*
X122465955Y-81525471D01*
X122461148Y-81524317D01*
X122210000Y-81504551D01*
X121958852Y-81524317D01*
X121954045Y-81525471D01*
X121954039Y-81525472D01*
X121798289Y-81562865D01*
X121713889Y-81583127D01*
X121709318Y-81585020D01*
X121709316Y-81585021D01*
X121485715Y-81677639D01*
X121485711Y-81677641D01*
X121481141Y-81679534D01*
X121266341Y-81811164D01*
X121262581Y-81814376D01*
X121262576Y-81814379D01*
X121186332Y-81879498D01*
X121074776Y-81974776D01*
X121071563Y-81978538D01*
X120914379Y-82162576D01*
X120914376Y-82162581D01*
X120911164Y-82166341D01*
X120779534Y-82381141D01*
X120777641Y-82385711D01*
X120777639Y-82385715D01*
X120728036Y-82505468D01*
X120683127Y-82613889D01*
X120670425Y-82666796D01*
X120629260Y-82838264D01*
X120624317Y-82858852D01*
X120604551Y-83110000D01*
X117418499Y-83110000D01*
X116528878Y-82220379D01*
X116516041Y-82205351D01*
X116507888Y-82194129D01*
X116477027Y-82166341D01*
X116457513Y-82148771D01*
X116452729Y-82144230D01*
X116438380Y-82129881D01*
X116430922Y-82123842D01*
X116422596Y-82117099D01*
X116417580Y-82112815D01*
X116372126Y-82071888D01*
X116367216Y-82067467D01*
X116355209Y-82060534D01*
X116338920Y-82049339D01*
X116333279Y-82044771D01*
X116333278Y-82044771D01*
X116328149Y-82040617D01*
X116322269Y-82037621D01*
X116322266Y-82037619D01*
X116267766Y-82009849D01*
X116261971Y-82006703D01*
X116209000Y-81976121D01*
X116208999Y-81976121D01*
X116203284Y-81972821D01*
X116190097Y-81968536D01*
X116171840Y-81960973D01*
X116165371Y-81957677D01*
X116165367Y-81957676D01*
X116159488Y-81954680D01*
X116153115Y-81952972D01*
X116153109Y-81952970D01*
X116094025Y-81937138D01*
X116087701Y-81935265D01*
X116029535Y-81916366D01*
X116029533Y-81916366D01*
X116023256Y-81914326D01*
X116016695Y-81913636D01*
X116016693Y-81913636D01*
X116009479Y-81912878D01*
X115990037Y-81909275D01*
X115976646Y-81905687D01*
X115970057Y-81905342D01*
X115970052Y-81905341D01*
X115938627Y-81903695D01*
X115908966Y-81902141D01*
X115902400Y-81901624D01*
X115885470Y-81899844D01*
X115885459Y-81899843D01*
X115882192Y-81899500D01*
X115861874Y-81899500D01*
X115855280Y-81899327D01*
X115794204Y-81896126D01*
X115794200Y-81896126D01*
X115787612Y-81895781D01*
X115781096Y-81896813D01*
X115773924Y-81897949D01*
X115754213Y-81899500D01*
X113720189Y-81899500D01*
X113652068Y-81879498D01*
X113631094Y-81862595D01*
X111692405Y-79923906D01*
X111658379Y-79861594D01*
X111655500Y-79834811D01*
X111655500Y-77157862D01*
X111675502Y-77089741D01*
X111703667Y-77058776D01*
X111740758Y-77029641D01*
X111759698Y-77014763D01*
X111900455Y-76852554D01*
X111914133Y-76828912D01*
X111960524Y-76748721D01*
X112008001Y-76666655D01*
X112078453Y-76463774D01*
X112090158Y-76383049D01*
X112108409Y-76257171D01*
X112108409Y-76257168D01*
X112109270Y-76251231D01*
X112099341Y-76036694D01*
X112085678Y-75980000D01*
X112050428Y-75833740D01*
X112049022Y-75827906D01*
X112035302Y-75797729D01*
X111978658Y-75673149D01*
X111960131Y-75632400D01*
X111835874Y-75457230D01*
X111831551Y-75453091D01*
X111831547Y-75453087D01*
X111685065Y-75312861D01*
X111685064Y-75312861D01*
X111680735Y-75308716D01*
X111500311Y-75192218D01*
X111446016Y-75170336D01*
X111390313Y-75126323D01*
X111367246Y-75059178D01*
X111384143Y-74990222D01*
X111435425Y-74941456D01*
X111585476Y-74864175D01*
X111585479Y-74864173D01*
X111590807Y-74861429D01*
X111595520Y-74857727D01*
X111595523Y-74857725D01*
X111621378Y-74837415D01*
X111687304Y-74811064D01*
X111699212Y-74810500D01*
X114139811Y-74810500D01*
X114207932Y-74830502D01*
X114228906Y-74847405D01*
X114877595Y-75496094D01*
X114911621Y-75558406D01*
X114914500Y-75585189D01*
X114914500Y-78329124D01*
X114894498Y-78397245D01*
X114877595Y-78418219D01*
X114814953Y-78480861D01*
X114684432Y-78667266D01*
X114682111Y-78672244D01*
X114682109Y-78672247D01*
X114617361Y-78811099D01*
X114588261Y-78873504D01*
X114586839Y-78878812D01*
X114586838Y-78878814D01*
X114540294Y-79052521D01*
X114529365Y-79093308D01*
X114509532Y-79320000D01*
X114529365Y-79546692D01*
X114530789Y-79552005D01*
X114530789Y-79552007D01*
X114586591Y-79760262D01*
X114588261Y-79766496D01*
X114590583Y-79771476D01*
X114590584Y-79771478D01*
X114673539Y-79949373D01*
X114684432Y-79972734D01*
X114814953Y-80159139D01*
X114975861Y-80320047D01*
X115162266Y-80450568D01*
X115167244Y-80452889D01*
X115167247Y-80452891D01*
X115350979Y-80538567D01*
X115368504Y-80546739D01*
X115373812Y-80548161D01*
X115373814Y-80548162D01*
X115582993Y-80604211D01*
X115582995Y-80604211D01*
X115588308Y-80605635D01*
X115815000Y-80625468D01*
X116041692Y-80605635D01*
X116047005Y-80604211D01*
X116047007Y-80604211D01*
X116256186Y-80548162D01*
X116256188Y-80548161D01*
X116261496Y-80546739D01*
X116279021Y-80538567D01*
X116462753Y-80452891D01*
X116462756Y-80452889D01*
X116467734Y-80450568D01*
X116654139Y-80320047D01*
X116815047Y-80159139D01*
X116945568Y-79972734D01*
X116956462Y-79949373D01*
X116968337Y-79923906D01*
X116970805Y-79918613D01*
X117017722Y-79865328D01*
X117086000Y-79845867D01*
X117153959Y-79866409D01*
X117199195Y-79918612D01*
X117201663Y-79923906D01*
X117213539Y-79949373D01*
X117224432Y-79972734D01*
X117354953Y-80159139D01*
X117515861Y-80320047D01*
X117702266Y-80450568D01*
X117707244Y-80452889D01*
X117707247Y-80452891D01*
X117890979Y-80538567D01*
X117908504Y-80546739D01*
X117913812Y-80548161D01*
X117913814Y-80548162D01*
X118122993Y-80604211D01*
X118122995Y-80604211D01*
X118128308Y-80605635D01*
X118355000Y-80625468D01*
X118581692Y-80605635D01*
X118587005Y-80604211D01*
X118587007Y-80604211D01*
X118796186Y-80548162D01*
X118796188Y-80548161D01*
X118801496Y-80546739D01*
X118819021Y-80538567D01*
X119002753Y-80452891D01*
X119002756Y-80452889D01*
X119007734Y-80450568D01*
X119194139Y-80320047D01*
X119256781Y-80257405D01*
X119319093Y-80223379D01*
X119345876Y-80220500D01*
X121774213Y-80220500D01*
X121793923Y-80222051D01*
X121807612Y-80224219D01*
X121814200Y-80223874D01*
X121814204Y-80223874D01*
X121875280Y-80220673D01*
X121881874Y-80220500D01*
X121902192Y-80220500D01*
X121905459Y-80220157D01*
X121905470Y-80220156D01*
X121922400Y-80218376D01*
X121928966Y-80217859D01*
X121958627Y-80216305D01*
X121990052Y-80214659D01*
X121990057Y-80214658D01*
X121996646Y-80214313D01*
X122010037Y-80210725D01*
X122029479Y-80207122D01*
X122036693Y-80206364D01*
X122036695Y-80206364D01*
X122043256Y-80205674D01*
X122049533Y-80203634D01*
X122049535Y-80203634D01*
X122107701Y-80184735D01*
X122114025Y-80182862D01*
X122173109Y-80167030D01*
X122173115Y-80167028D01*
X122179488Y-80165320D01*
X122185367Y-80162324D01*
X122185371Y-80162323D01*
X122191840Y-80159027D01*
X122210097Y-80151464D01*
X122211453Y-80151023D01*
X122223284Y-80147179D01*
X122230181Y-80143197D01*
X122281971Y-80113297D01*
X122287766Y-80110151D01*
X122342266Y-80082381D01*
X122342269Y-80082379D01*
X122348149Y-80079383D01*
X122358920Y-80070661D01*
X122375209Y-80059466D01*
X122387216Y-80052533D01*
X122402100Y-80039131D01*
X122437580Y-80007185D01*
X122442596Y-80002901D01*
X122455816Y-79992195D01*
X122458380Y-79990119D01*
X122472729Y-79975770D01*
X122477513Y-79971229D01*
X122522985Y-79930286D01*
X122522986Y-79930284D01*
X122527888Y-79925871D01*
X122536041Y-79914649D01*
X122548878Y-79899621D01*
X122813830Y-79634669D01*
X125672001Y-79634669D01*
X125672371Y-79641490D01*
X125677895Y-79692352D01*
X125681521Y-79707604D01*
X125726676Y-79828054D01*
X125735214Y-79843649D01*
X125811715Y-79945724D01*
X125824276Y-79958285D01*
X125926351Y-80034786D01*
X125941946Y-80043324D01*
X126062394Y-80088478D01*
X126077649Y-80092105D01*
X126128514Y-80097631D01*
X126135328Y-80098000D01*
X126757885Y-80098000D01*
X126773124Y-80093525D01*
X126774329Y-80092135D01*
X126776000Y-80084452D01*
X126776000Y-80079884D01*
X127284000Y-80079884D01*
X127288475Y-80095123D01*
X127289865Y-80096328D01*
X127297548Y-80097999D01*
X127924669Y-80097999D01*
X127931490Y-80097629D01*
X127982352Y-80092105D01*
X127997604Y-80088479D01*
X128118054Y-80043324D01*
X128133649Y-80034786D01*
X128235724Y-79958285D01*
X128248285Y-79945724D01*
X128324786Y-79843649D01*
X128333324Y-79828054D01*
X128337458Y-79817027D01*
X128380100Y-79760262D01*
X128446662Y-79735563D01*
X128516011Y-79750771D01*
X128543774Y-79773189D01*
X128544579Y-79772367D01*
X128548274Y-79775986D01*
X128551660Y-79779894D01*
X128735176Y-79932252D01*
X128941112Y-80052591D01*
X128945937Y-80054433D01*
X128945938Y-80054434D01*
X128979131Y-80067109D01*
X129163937Y-80137680D01*
X129169005Y-80138711D01*
X129169008Y-80138712D01*
X129259841Y-80157192D01*
X129397666Y-80185233D01*
X129402839Y-80185423D01*
X129402842Y-80185423D01*
X129630861Y-80193784D01*
X129630865Y-80193784D01*
X129636025Y-80193973D01*
X129673822Y-80189131D01*
X129867489Y-80164321D01*
X129867490Y-80164321D01*
X129872609Y-80163665D01*
X130101068Y-80095125D01*
X130110444Y-80090532D01*
X130141681Y-80075229D01*
X130315264Y-79990191D01*
X130335482Y-79975770D01*
X130505242Y-79854681D01*
X130509445Y-79851683D01*
X130515282Y-79845867D01*
X130614143Y-79747350D01*
X130678397Y-79683320D01*
X130684831Y-79674367D01*
X130814564Y-79493823D01*
X130817582Y-79489623D01*
X130832471Y-79459499D01*
X130920969Y-79280437D01*
X130920970Y-79280435D01*
X130923263Y-79275795D01*
X130992600Y-79047577D01*
X130993996Y-79036975D01*
X131023296Y-78814421D01*
X131023297Y-78814414D01*
X131023733Y-78811099D01*
X131024148Y-78794133D01*
X131025389Y-78743364D01*
X131025389Y-78743360D01*
X131025471Y-78740000D01*
X131017755Y-78646143D01*
X131006351Y-78507435D01*
X131006350Y-78507429D01*
X131005927Y-78502284D01*
X130962433Y-78329124D01*
X130949080Y-78275963D01*
X130949079Y-78275959D01*
X130947821Y-78270952D01*
X130938736Y-78250057D01*
X130854772Y-78056953D01*
X130854770Y-78056950D01*
X130852712Y-78052216D01*
X130723155Y-77851951D01*
X130718617Y-77846963D01*
X130566107Y-77679358D01*
X130566105Y-77679357D01*
X130562629Y-77675536D01*
X130558578Y-77672337D01*
X130558574Y-77672333D01*
X130379500Y-77530909D01*
X130379496Y-77530907D01*
X130375445Y-77527707D01*
X130364591Y-77521715D01*
X130292302Y-77481810D01*
X130166631Y-77412436D01*
X130161762Y-77410712D01*
X130161758Y-77410710D01*
X129946663Y-77334541D01*
X129946661Y-77334540D01*
X129941794Y-77332817D01*
X129824383Y-77311903D01*
X129712060Y-77291894D01*
X129712056Y-77291894D01*
X129706972Y-77290988D01*
X129623140Y-77289964D01*
X129473640Y-77288137D01*
X129473638Y-77288137D01*
X129468471Y-77288074D01*
X129232698Y-77324153D01*
X129005982Y-77398255D01*
X129001394Y-77400643D01*
X129001390Y-77400645D01*
X128805709Y-77502510D01*
X128794414Y-77508390D01*
X128790281Y-77511493D01*
X128790278Y-77511495D01*
X128607810Y-77648497D01*
X128603675Y-77651602D01*
X128600103Y-77655340D01*
X128548041Y-77709819D01*
X128486517Y-77745248D01*
X128415605Y-77741791D01*
X128357818Y-77700544D01*
X128338965Y-77666995D01*
X128333323Y-77651944D01*
X128324786Y-77636351D01*
X128248285Y-77534276D01*
X128235724Y-77521715D01*
X128133649Y-77445214D01*
X128118054Y-77436676D01*
X127997606Y-77391522D01*
X127982351Y-77387895D01*
X127931486Y-77382369D01*
X127924672Y-77382000D01*
X127302115Y-77382000D01*
X127286876Y-77386475D01*
X127285671Y-77387865D01*
X127284000Y-77395548D01*
X127284000Y-80079884D01*
X126776000Y-80079884D01*
X126776000Y-79012115D01*
X126771525Y-78996876D01*
X126770135Y-78995671D01*
X126762452Y-78994000D01*
X125690116Y-78994000D01*
X125674877Y-78998475D01*
X125673672Y-78999865D01*
X125672001Y-79007548D01*
X125672001Y-79634669D01*
X122813830Y-79634669D01*
X123980614Y-78467885D01*
X125672000Y-78467885D01*
X125676475Y-78483124D01*
X125677865Y-78484329D01*
X125685548Y-78486000D01*
X126757885Y-78486000D01*
X126773124Y-78481525D01*
X126774329Y-78480135D01*
X126776000Y-78472452D01*
X126776000Y-77400116D01*
X126771525Y-77384877D01*
X126770135Y-77383672D01*
X126762452Y-77382001D01*
X126135331Y-77382001D01*
X126128510Y-77382371D01*
X126077648Y-77387895D01*
X126062396Y-77391521D01*
X125941946Y-77436676D01*
X125926351Y-77445214D01*
X125824276Y-77521715D01*
X125811715Y-77534276D01*
X125735214Y-77636351D01*
X125726676Y-77651946D01*
X125681522Y-77772394D01*
X125677895Y-77787649D01*
X125672369Y-77838514D01*
X125672000Y-77845328D01*
X125672000Y-78467885D01*
X123980614Y-78467885D01*
X126574621Y-75873878D01*
X126589649Y-75861041D01*
X126600871Y-75852888D01*
X126646229Y-75802513D01*
X126650770Y-75797729D01*
X126665119Y-75783380D01*
X126677901Y-75767596D01*
X126682185Y-75762580D01*
X126723112Y-75717126D01*
X126727533Y-75712216D01*
X126734466Y-75700209D01*
X126745661Y-75683920D01*
X126750229Y-75678279D01*
X126750229Y-75678278D01*
X126754383Y-75673149D01*
X126757381Y-75667266D01*
X126785151Y-75612766D01*
X126788297Y-75606971D01*
X126818879Y-75554000D01*
X126818879Y-75553999D01*
X126822179Y-75548284D01*
X126826464Y-75535097D01*
X126834027Y-75516840D01*
X126837323Y-75510371D01*
X126837324Y-75510367D01*
X126840320Y-75504488D01*
X126857862Y-75439020D01*
X126859729Y-75432719D01*
X126880674Y-75368256D01*
X126882123Y-75354467D01*
X126885726Y-75335029D01*
X126886471Y-75332247D01*
X126889312Y-75321646D01*
X126891731Y-75275498D01*
X126892858Y-75253989D01*
X126893375Y-75247415D01*
X126895156Y-75230466D01*
X126895156Y-75230464D01*
X126895500Y-75227192D01*
X126895500Y-75206867D01*
X126895673Y-75200273D01*
X126898874Y-75139204D01*
X126898874Y-75139199D01*
X126899219Y-75132612D01*
X126897051Y-75118923D01*
X126895500Y-75099213D01*
X126895500Y-71232222D01*
X126915502Y-71164101D01*
X126932560Y-71142971D01*
X126943686Y-71131884D01*
X127065190Y-71010803D01*
X127075362Y-70996648D01*
X127196559Y-70827983D01*
X127199577Y-70823783D01*
X127223490Y-70775400D01*
X127287603Y-70645676D01*
X127301615Y-70617325D01*
X127320839Y-70554053D01*
X127367059Y-70401927D01*
X127367060Y-70401921D01*
X127368563Y-70396975D01*
X127389889Y-70234985D01*
X127398185Y-70171971D01*
X127398185Y-70171965D01*
X127398622Y-70168649D01*
X127399208Y-70144663D01*
X127400218Y-70103364D01*
X127400218Y-70103360D01*
X127400300Y-70100000D01*
X127381430Y-69870478D01*
X127325326Y-69647120D01*
X127269810Y-69519442D01*
X127235556Y-69440661D01*
X127235554Y-69440658D01*
X127233496Y-69435924D01*
X127148335Y-69304285D01*
X127111215Y-69246906D01*
X127111213Y-69246903D01*
X127108405Y-69242563D01*
X127087774Y-69219889D01*
X126956890Y-69076051D01*
X126956889Y-69076050D01*
X126953412Y-69072229D01*
X126949361Y-69069030D01*
X126949357Y-69069026D01*
X126772681Y-68929496D01*
X126773346Y-68928653D01*
X126731089Y-68878346D01*
X126722064Y-68807925D01*
X126752545Y-68743805D01*
X126773324Y-68725190D01*
X126902062Y-68633363D01*
X127065190Y-68470803D01*
X127072594Y-68460500D01*
X127196559Y-68287983D01*
X127199577Y-68283783D01*
X127210988Y-68260696D01*
X127276439Y-68128264D01*
X127301615Y-68077325D01*
X127336083Y-67963878D01*
X127367059Y-67861927D01*
X127367060Y-67861921D01*
X127368563Y-67856975D01*
X127385285Y-67729953D01*
X127398185Y-67631971D01*
X127398185Y-67631965D01*
X127398622Y-67628649D01*
X127400300Y-67560000D01*
X127381430Y-67330478D01*
X127325326Y-67107120D01*
X127254130Y-66943379D01*
X127235556Y-66900661D01*
X127235554Y-66900658D01*
X127233496Y-66895924D01*
X127124334Y-66727185D01*
X127111215Y-66706906D01*
X127111213Y-66706903D01*
X127108405Y-66702563D01*
X127103471Y-66697140D01*
X126956890Y-66536051D01*
X126956889Y-66536050D01*
X126953412Y-66532229D01*
X126949361Y-66529030D01*
X126949357Y-66529026D01*
X126772681Y-66389496D01*
X126773346Y-66388653D01*
X126731089Y-66338346D01*
X126722064Y-66267925D01*
X126752545Y-66203805D01*
X126773324Y-66185190D01*
X126793002Y-66171154D01*
X126902062Y-66093363D01*
X127065190Y-65930803D01*
X127072594Y-65920500D01*
X127196559Y-65747983D01*
X127199577Y-65743783D01*
X127202284Y-65738307D01*
X127291400Y-65557993D01*
X127301615Y-65537325D01*
X127332969Y-65434129D01*
X127367059Y-65321927D01*
X127367060Y-65321921D01*
X127368563Y-65316975D01*
X127377597Y-65248353D01*
X127398185Y-65091971D01*
X127398185Y-65091965D01*
X127398622Y-65088649D01*
X127400300Y-65020000D01*
X127381430Y-64790478D01*
X127325326Y-64567120D01*
X127252878Y-64400500D01*
X127235556Y-64360661D01*
X127235554Y-64360658D01*
X127233496Y-64355924D01*
X127156964Y-64237624D01*
X127111215Y-64166906D01*
X127111213Y-64166903D01*
X127108405Y-64162563D01*
X127087774Y-64139889D01*
X126956890Y-63996051D01*
X126956889Y-63996050D01*
X126953412Y-63992229D01*
X126949361Y-63989030D01*
X126949357Y-63989026D01*
X126772681Y-63849496D01*
X126773346Y-63848653D01*
X126731089Y-63798346D01*
X126722064Y-63727925D01*
X126752545Y-63663805D01*
X126773324Y-63645190D01*
X126902062Y-63553363D01*
X127065190Y-63390803D01*
X127119490Y-63315237D01*
X127196559Y-63207983D01*
X127199577Y-63203783D01*
X127202168Y-63198542D01*
X127295605Y-63009485D01*
X127301615Y-62997325D01*
X127346750Y-62848771D01*
X127367059Y-62781927D01*
X127367060Y-62781921D01*
X127368563Y-62776975D01*
X127386972Y-62637140D01*
X127398185Y-62551971D01*
X127398185Y-62551965D01*
X127398622Y-62548649D01*
X127400300Y-62480000D01*
X127381430Y-62250478D01*
X127335936Y-62069362D01*
X127326585Y-62032132D01*
X127326585Y-62032131D01*
X127325326Y-62027120D01*
X127254345Y-61863874D01*
X127235556Y-61820661D01*
X127235554Y-61820658D01*
X127233496Y-61815924D01*
X127122766Y-61644761D01*
X127111215Y-61626906D01*
X127111213Y-61626903D01*
X127108405Y-61622563D01*
X127087774Y-61599889D01*
X126956890Y-61456051D01*
X126956889Y-61456050D01*
X126953412Y-61452229D01*
X126949361Y-61449030D01*
X126949357Y-61449026D01*
X126776735Y-61312697D01*
X126776730Y-61312693D01*
X126772681Y-61309496D01*
X126768165Y-61307003D01*
X126768162Y-61307001D01*
X126575589Y-61200695D01*
X126575585Y-61200693D01*
X126571065Y-61198198D01*
X126566196Y-61196474D01*
X126566192Y-61196472D01*
X126358853Y-61123049D01*
X126358849Y-61123048D01*
X126353978Y-61121323D01*
X126348885Y-61120416D01*
X126348882Y-61120415D01*
X126252707Y-61103284D01*
X126127250Y-61080937D01*
X126040802Y-61079881D01*
X125902141Y-61078186D01*
X125902139Y-61078186D01*
X125896971Y-61078123D01*
X125669325Y-61112958D01*
X125450424Y-61184506D01*
X125246149Y-61290845D01*
X125061984Y-61429119D01*
X124902877Y-61595616D01*
X124899963Y-61599888D01*
X124899962Y-61599889D01*
X124877924Y-61632195D01*
X124773099Y-61785863D01*
X124770923Y-61790552D01*
X124770919Y-61790558D01*
X124736727Y-61864219D01*
X124676136Y-61994752D01*
X124614592Y-62216673D01*
X124590119Y-62445665D01*
X124590416Y-62450817D01*
X124590416Y-62450821D01*
X124599326Y-62605341D01*
X124603376Y-62675580D01*
X124604513Y-62680626D01*
X124604514Y-62680632D01*
X124625080Y-62771887D01*
X124654006Y-62900242D01*
X124655948Y-62905024D01*
X124655949Y-62905028D01*
X124693427Y-62997325D01*
X124740649Y-63113618D01*
X124860979Y-63309978D01*
X125011763Y-63484048D01*
X125188953Y-63631154D01*
X125193417Y-63633762D01*
X125193419Y-63633764D01*
X125206940Y-63641665D01*
X125255663Y-63693305D01*
X125268733Y-63763088D01*
X125242000Y-63828859D01*
X125219021Y-63851212D01*
X125066125Y-63966009D01*
X125066119Y-63966015D01*
X125061984Y-63969119D01*
X124902877Y-64135616D01*
X124773099Y-64325863D01*
X124770923Y-64330552D01*
X124770919Y-64330558D01*
X124678315Y-64530057D01*
X124676136Y-64534752D01*
X124614592Y-64756673D01*
X124590119Y-64985665D01*
X124590416Y-64990817D01*
X124590416Y-64990821D01*
X124599804Y-65153636D01*
X124603376Y-65215580D01*
X124604513Y-65220626D01*
X124604514Y-65220632D01*
X124630281Y-65334967D01*
X124654006Y-65440242D01*
X124655948Y-65445024D01*
X124655949Y-65445028D01*
X124738705Y-65648831D01*
X124740649Y-65653618D01*
X124860979Y-65849978D01*
X125011763Y-66024048D01*
X125188953Y-66171154D01*
X125193417Y-66173762D01*
X125193419Y-66173764D01*
X125206940Y-66181665D01*
X125255663Y-66233305D01*
X125268733Y-66303088D01*
X125242000Y-66368859D01*
X125219021Y-66391212D01*
X125066125Y-66506009D01*
X125066119Y-66506015D01*
X125061984Y-66509119D01*
X124902877Y-66675616D01*
X124899963Y-66679888D01*
X124899962Y-66679889D01*
X124839780Y-66768112D01*
X124773099Y-66865863D01*
X124770923Y-66870552D01*
X124770919Y-66870558D01*
X124678315Y-67070057D01*
X124676136Y-67074752D01*
X124655923Y-67147639D01*
X124619610Y-67278580D01*
X124614592Y-67296673D01*
X124614043Y-67301810D01*
X124590953Y-67517865D01*
X124590119Y-67525665D01*
X124590416Y-67530817D01*
X124590416Y-67530821D01*
X124596744Y-67640558D01*
X124603376Y-67755580D01*
X124604513Y-67760626D01*
X124604514Y-67760632D01*
X124626226Y-67856975D01*
X124654006Y-67980242D01*
X124655948Y-67985024D01*
X124655949Y-67985028D01*
X124724519Y-68153895D01*
X124740649Y-68193618D01*
X124795902Y-68283783D01*
X124853958Y-68378520D01*
X124860979Y-68389978D01*
X125011763Y-68564048D01*
X125188953Y-68711154D01*
X125193417Y-68713762D01*
X125193419Y-68713764D01*
X125206940Y-68721665D01*
X125255663Y-68773305D01*
X125268733Y-68843088D01*
X125242000Y-68908859D01*
X125219021Y-68931212D01*
X125066125Y-69046009D01*
X125066119Y-69046015D01*
X125061984Y-69049119D01*
X124902877Y-69215616D01*
X124899963Y-69219888D01*
X124899962Y-69219889D01*
X124877972Y-69252125D01*
X124773099Y-69405863D01*
X124770923Y-69410552D01*
X124770919Y-69410558D01*
X124678315Y-69610057D01*
X124676136Y-69614752D01*
X124614592Y-69836673D01*
X124614043Y-69841810D01*
X124594488Y-70024786D01*
X124590119Y-70065665D01*
X124590416Y-70070817D01*
X124590416Y-70070821D01*
X124599348Y-70225726D01*
X124603376Y-70295580D01*
X124604513Y-70300626D01*
X124604514Y-70300632D01*
X124630228Y-70414731D01*
X124654006Y-70520242D01*
X124655948Y-70525024D01*
X124655949Y-70525028D01*
X124734416Y-70718269D01*
X124740649Y-70733618D01*
X124860979Y-70929978D01*
X125011763Y-71104048D01*
X125048985Y-71134950D01*
X125088620Y-71193852D01*
X125094500Y-71231894D01*
X125094500Y-74754811D01*
X125074498Y-74822932D01*
X125057595Y-74843906D01*
X121518906Y-78382595D01*
X121456594Y-78416621D01*
X121429811Y-78419500D01*
X119345876Y-78419500D01*
X119277755Y-78399498D01*
X119256781Y-78382595D01*
X119194139Y-78319953D01*
X119007734Y-78189432D01*
X119002756Y-78187111D01*
X119002753Y-78187109D01*
X118806478Y-78095584D01*
X118806476Y-78095583D01*
X118801496Y-78093261D01*
X118796188Y-78091839D01*
X118796186Y-78091838D01*
X118587007Y-78035789D01*
X118587005Y-78035789D01*
X118581692Y-78034365D01*
X118355000Y-78014532D01*
X118128308Y-78034365D01*
X118122995Y-78035789D01*
X118122993Y-78035789D01*
X117913814Y-78091838D01*
X117913812Y-78091839D01*
X117908504Y-78093261D01*
X117903524Y-78095583D01*
X117903522Y-78095584D01*
X117707247Y-78187109D01*
X117707244Y-78187111D01*
X117702266Y-78189432D01*
X117515861Y-78319953D01*
X117354953Y-78480861D01*
X117224432Y-78667266D01*
X117222111Y-78672244D01*
X117222109Y-78672247D01*
X117199195Y-78721387D01*
X117152278Y-78774672D01*
X117084000Y-78794133D01*
X117016041Y-78773591D01*
X116970805Y-78721387D01*
X116947891Y-78672247D01*
X116947889Y-78672244D01*
X116945568Y-78667266D01*
X116815047Y-78480861D01*
X116752405Y-78418219D01*
X116718379Y-78355907D01*
X116715500Y-78329124D01*
X116715500Y-75389783D01*
X116719793Y-75357172D01*
X116725726Y-75335029D01*
X116729312Y-75321646D01*
X116729773Y-75312861D01*
X116731450Y-75280855D01*
X116732828Y-75267740D01*
X116738187Y-75233905D01*
X116738187Y-75233904D01*
X116739219Y-75227388D01*
X116738874Y-75220801D01*
X116738874Y-75220796D01*
X116737081Y-75186595D01*
X116737081Y-75173405D01*
X116738874Y-75139204D01*
X116738874Y-75139199D01*
X116739219Y-75132612D01*
X116732827Y-75092255D01*
X116731450Y-75079145D01*
X116731012Y-75070776D01*
X116729312Y-75038354D01*
X116718739Y-74998893D01*
X116715997Y-74985994D01*
X116714540Y-74976794D01*
X116709607Y-74945650D01*
X116694967Y-74907510D01*
X116690898Y-74894985D01*
X116682030Y-74861890D01*
X116682027Y-74861881D01*
X116680320Y-74855512D01*
X116661766Y-74819099D01*
X116656412Y-74807072D01*
X116641771Y-74768930D01*
X116619524Y-74734672D01*
X116612932Y-74723254D01*
X116597380Y-74692732D01*
X116597378Y-74692729D01*
X116594383Y-74686851D01*
X116568670Y-74655098D01*
X116560925Y-74644438D01*
X116538674Y-74610175D01*
X115258878Y-73330379D01*
X115246041Y-73315351D01*
X115237888Y-73304129D01*
X115187513Y-73258771D01*
X115182729Y-73254230D01*
X115168380Y-73239881D01*
X115160922Y-73233842D01*
X115152596Y-73227099D01*
X115147580Y-73222815D01*
X115102126Y-73181888D01*
X115097216Y-73177467D01*
X115085209Y-73170534D01*
X115068920Y-73159339D01*
X115063279Y-73154771D01*
X115063278Y-73154771D01*
X115058149Y-73150617D01*
X115052269Y-73147621D01*
X115052266Y-73147619D01*
X114997766Y-73119849D01*
X114991971Y-73116703D01*
X114939000Y-73086121D01*
X114938999Y-73086121D01*
X114933284Y-73082821D01*
X114920097Y-73078536D01*
X114901840Y-73070973D01*
X114895371Y-73067677D01*
X114895367Y-73067676D01*
X114889488Y-73064680D01*
X114883115Y-73062972D01*
X114883109Y-73062970D01*
X114824025Y-73047138D01*
X114817701Y-73045265D01*
X114759535Y-73026366D01*
X114759533Y-73026366D01*
X114753256Y-73024326D01*
X114746695Y-73023636D01*
X114746693Y-73023636D01*
X114739479Y-73022878D01*
X114720037Y-73019275D01*
X114706646Y-73015687D01*
X114700057Y-73015342D01*
X114700052Y-73015341D01*
X114668627Y-73013695D01*
X114638966Y-73012141D01*
X114632400Y-73011624D01*
X114615470Y-73009844D01*
X114615459Y-73009843D01*
X114612192Y-73009500D01*
X114591874Y-73009500D01*
X114585280Y-73009327D01*
X114524204Y-73006126D01*
X114524200Y-73006126D01*
X114517612Y-73005781D01*
X114511096Y-73006813D01*
X114503924Y-73007949D01*
X114484213Y-73009500D01*
X111697411Y-73009500D01*
X111629063Y-72989352D01*
X111505349Y-72909471D01*
X111500311Y-72906218D01*
X111484547Y-72899865D01*
X111428841Y-72855850D01*
X111405774Y-72788705D01*
X111422671Y-72719749D01*
X111474166Y-72670873D01*
X111531645Y-72656999D01*
X111549669Y-72656999D01*
X111556490Y-72656629D01*
X111607352Y-72651105D01*
X111622604Y-72647479D01*
X111743054Y-72602324D01*
X111758649Y-72593786D01*
X111860724Y-72517285D01*
X111873285Y-72504724D01*
X111949786Y-72402649D01*
X111958324Y-72387054D01*
X112003478Y-72266606D01*
X112007105Y-72251351D01*
X112012631Y-72200486D01*
X112013000Y-72193672D01*
X112013000Y-71896115D01*
X112008525Y-71880876D01*
X112007135Y-71879671D01*
X111999452Y-71878000D01*
X109515116Y-71878000D01*
X109499877Y-71882475D01*
X109498672Y-71883865D01*
X109497001Y-71891548D01*
X109497001Y-72193669D01*
X109497371Y-72200490D01*
X109502895Y-72251352D01*
X109506521Y-72266604D01*
X109551676Y-72387054D01*
X109560214Y-72402649D01*
X109636715Y-72504724D01*
X109649276Y-72517285D01*
X109751351Y-72593786D01*
X109766946Y-72602324D01*
X109887394Y-72647478D01*
X109902649Y-72651105D01*
X109953514Y-72656631D01*
X109960328Y-72657000D01*
X109984901Y-72657000D01*
X110053022Y-72677002D01*
X110099515Y-72730658D01*
X110109619Y-72800932D01*
X110080125Y-72865512D01*
X110042594Y-72895015D01*
X109996768Y-72918617D01*
X109924524Y-72955825D01*
X109924521Y-72955827D01*
X109919193Y-72958571D01*
X109750302Y-73091237D01*
X109609545Y-73253446D01*
X109606545Y-73258631D01*
X109606544Y-73258633D01*
X109573735Y-73315346D01*
X109501999Y-73439345D01*
X109431547Y-73642226D01*
X109400730Y-73854769D01*
X109410659Y-74069306D01*
X109460978Y-74278094D01*
X109549869Y-74473600D01*
X109674126Y-74648770D01*
X109678449Y-74652909D01*
X109678453Y-74652913D01*
X109783278Y-74753261D01*
X109829265Y-74797284D01*
X110009689Y-74913782D01*
X110063984Y-74935664D01*
X110119687Y-74979677D01*
X110142754Y-75046822D01*
X110125857Y-75115778D01*
X110074575Y-75164544D01*
X109924524Y-75241825D01*
X109924521Y-75241827D01*
X109919193Y-75244571D01*
X109914480Y-75248273D01*
X109914477Y-75248275D01*
X109888622Y-75268585D01*
X109822696Y-75294936D01*
X109810788Y-75295500D01*
X107798917Y-75295500D01*
X107730796Y-75275498D01*
X107695703Y-75241770D01*
X107668959Y-75203574D01*
X107625047Y-75140861D01*
X107464139Y-74979953D01*
X107277734Y-74849432D01*
X107272756Y-74847111D01*
X107272753Y-74847109D01*
X107076478Y-74755584D01*
X107076476Y-74755583D01*
X107071496Y-74753261D01*
X107066188Y-74751839D01*
X107066186Y-74751838D01*
X106857007Y-74695789D01*
X106857005Y-74695789D01*
X106851692Y-74694365D01*
X106625000Y-74674532D01*
X106398308Y-74694365D01*
X106392995Y-74695789D01*
X106392993Y-74695789D01*
X106183814Y-74751838D01*
X106183812Y-74751839D01*
X106178504Y-74753261D01*
X106173524Y-74755583D01*
X106173522Y-74755584D01*
X105977247Y-74847109D01*
X105977244Y-74847111D01*
X105972266Y-74849432D01*
X105785861Y-74979953D01*
X105624953Y-75140861D01*
X105494432Y-75327266D01*
X105492111Y-75332244D01*
X105492109Y-75332247D01*
X105469195Y-75381387D01*
X105422278Y-75434672D01*
X105354000Y-75454133D01*
X105286041Y-75433591D01*
X105240805Y-75381387D01*
X105217891Y-75332247D01*
X105217889Y-75332244D01*
X105215568Y-75327266D01*
X105085047Y-75140861D01*
X104924139Y-74979953D01*
X104737734Y-74849432D01*
X104732756Y-74847111D01*
X104732753Y-74847109D01*
X104536478Y-74755584D01*
X104536476Y-74755583D01*
X104531496Y-74753261D01*
X104526188Y-74751839D01*
X104526186Y-74751838D01*
X104317007Y-74695789D01*
X104317005Y-74695789D01*
X104311692Y-74694365D01*
X104085000Y-74674532D01*
X103858308Y-74694365D01*
X103852995Y-74695789D01*
X103852993Y-74695789D01*
X103643814Y-74751838D01*
X103643812Y-74751839D01*
X103638504Y-74753261D01*
X103633524Y-74755583D01*
X103633522Y-74755584D01*
X103437247Y-74847109D01*
X103437244Y-74847111D01*
X103432266Y-74849432D01*
X103245861Y-74979953D01*
X103084953Y-75140861D01*
X102954432Y-75327266D01*
X102952111Y-75332244D01*
X102952109Y-75332247D01*
X102861913Y-75525673D01*
X102858261Y-75533504D01*
X102856839Y-75538812D01*
X102856838Y-75538814D01*
X102809060Y-75717126D01*
X102799365Y-75753308D01*
X102779532Y-75980000D01*
X102799365Y-76206692D01*
X102800789Y-76212005D01*
X102800789Y-76212007D01*
X102843916Y-76372958D01*
X102858261Y-76426496D01*
X102860583Y-76431476D01*
X102860584Y-76431478D01*
X102917694Y-76553949D01*
X102954432Y-76632734D01*
X103084953Y-76819139D01*
X103245861Y-76980047D01*
X103432266Y-77110568D01*
X103437244Y-77112889D01*
X103437247Y-77112891D01*
X103620411Y-77198302D01*
X103638504Y-77206739D01*
X103643812Y-77208161D01*
X103643814Y-77208162D01*
X103852993Y-77264211D01*
X103852995Y-77264211D01*
X103858308Y-77265635D01*
X104085000Y-77285468D01*
X104311692Y-77265635D01*
X104317005Y-77264211D01*
X104317007Y-77264211D01*
X104526186Y-77208162D01*
X104526188Y-77208161D01*
X104531496Y-77206739D01*
X104549589Y-77198302D01*
X104732753Y-77112891D01*
X104732756Y-77112889D01*
X104737734Y-77110568D01*
X104924139Y-76980047D01*
X105085047Y-76819139D01*
X105215568Y-76632734D01*
X105240805Y-76578613D01*
X105287722Y-76525328D01*
X105356000Y-76505867D01*
X105423959Y-76526409D01*
X105469195Y-76578612D01*
X105494432Y-76632734D01*
X105624953Y-76819139D01*
X105785861Y-76980047D01*
X105972266Y-77110568D01*
X105977244Y-77112889D01*
X105977247Y-77112891D01*
X106160411Y-77198302D01*
X106178504Y-77206739D01*
X106183812Y-77208161D01*
X106183814Y-77208162D01*
X106392993Y-77264211D01*
X106392995Y-77264211D01*
X106398308Y-77265635D01*
X106625000Y-77285468D01*
X106851692Y-77265635D01*
X106857005Y-77264211D01*
X106857007Y-77264211D01*
X107066186Y-77208162D01*
X107066188Y-77208161D01*
X107071496Y-77206739D01*
X107176313Y-77157862D01*
X107277734Y-77110568D01*
X107278252Y-77111678D01*
X107334904Y-77096500D01*
X109728500Y-77096500D01*
X109796621Y-77116502D01*
X109843114Y-77170158D01*
X109854500Y-77222500D01*
X109854500Y-80179213D01*
X109852949Y-80198923D01*
X109850781Y-80212612D01*
X109851126Y-80219200D01*
X109851126Y-80219204D01*
X109854327Y-80280280D01*
X109854500Y-80286874D01*
X109854500Y-80307192D01*
X109854843Y-80310459D01*
X109854844Y-80310470D01*
X109856624Y-80327400D01*
X109857141Y-80333966D01*
X109860687Y-80401646D01*
X109864274Y-80415031D01*
X109867878Y-80434479D01*
X109869326Y-80448256D01*
X109871366Y-80454533D01*
X109871366Y-80454535D01*
X109890265Y-80512701D01*
X109892138Y-80519025D01*
X109907970Y-80578109D01*
X109907972Y-80578115D01*
X109909680Y-80584488D01*
X109912676Y-80590367D01*
X109912677Y-80590371D01*
X109915973Y-80596840D01*
X109923536Y-80615097D01*
X109927821Y-80628284D01*
X109931121Y-80633999D01*
X109931121Y-80634000D01*
X109961703Y-80686971D01*
X109964849Y-80692766D01*
X109989453Y-80741052D01*
X109995617Y-80753149D01*
X109999771Y-80758278D01*
X109999771Y-80758279D01*
X110004339Y-80763920D01*
X110015534Y-80780209D01*
X110022467Y-80792216D01*
X110026888Y-80797126D01*
X110067815Y-80842580D01*
X110072099Y-80847596D01*
X110084881Y-80863380D01*
X110099230Y-80877729D01*
X110103771Y-80882513D01*
X110133556Y-80915592D01*
X110149129Y-80932888D01*
X110160351Y-80941041D01*
X110175379Y-80953878D01*
X112601122Y-83379621D01*
X112613959Y-83394649D01*
X112622112Y-83405871D01*
X112627014Y-83410284D01*
X112627015Y-83410286D01*
X112672487Y-83451229D01*
X112677271Y-83455770D01*
X112691620Y-83470119D01*
X112694184Y-83472195D01*
X112707404Y-83482901D01*
X112712420Y-83487185D01*
X112762784Y-83532533D01*
X112774791Y-83539466D01*
X112791080Y-83550661D01*
X112801851Y-83559383D01*
X112807731Y-83562379D01*
X112807734Y-83562381D01*
X112862234Y-83590151D01*
X112868029Y-83593297D01*
X112898145Y-83610684D01*
X112926716Y-83627179D01*
X112938547Y-83631023D01*
X112939903Y-83631464D01*
X112958160Y-83639027D01*
X112964629Y-83642323D01*
X112964633Y-83642324D01*
X112970512Y-83645320D01*
X113035980Y-83662862D01*
X113042281Y-83664729D01*
X113106744Y-83685674D01*
X113120087Y-83687076D01*
X113120533Y-83687123D01*
X113139971Y-83690726D01*
X113141540Y-83691146D01*
X113153354Y-83694312D01*
X113159954Y-83694658D01*
X113159955Y-83694658D01*
X113221011Y-83697858D01*
X113227585Y-83698375D01*
X113244534Y-83700156D01*
X113244536Y-83700156D01*
X113247808Y-83700500D01*
X113268133Y-83700500D01*
X113274727Y-83700673D01*
X113335796Y-83703874D01*
X113335801Y-83703874D01*
X113342388Y-83704219D01*
X113356077Y-83702051D01*
X113375787Y-83700500D01*
X115409811Y-83700500D01*
X115477932Y-83720502D01*
X115498906Y-83737405D01*
X117437595Y-85676094D01*
X117471621Y-85738406D01*
X117474500Y-85765189D01*
X117474500Y-86069124D01*
X117454498Y-86137245D01*
X117437595Y-86158219D01*
X117374953Y-86220861D01*
X117244432Y-86407266D01*
X117242111Y-86412244D01*
X117242109Y-86412247D01*
X117219195Y-86461387D01*
X117172278Y-86514672D01*
X117104000Y-86534133D01*
X117036041Y-86513591D01*
X116990805Y-86461387D01*
X116967891Y-86412247D01*
X116967889Y-86412244D01*
X116965568Y-86407266D01*
X116835047Y-86220861D01*
X116674139Y-86059953D01*
X116487734Y-85929432D01*
X116482756Y-85927111D01*
X116482753Y-85927109D01*
X116286478Y-85835584D01*
X116286476Y-85835583D01*
X116281496Y-85833261D01*
X116276188Y-85831839D01*
X116276186Y-85831838D01*
X116067007Y-85775789D01*
X116067005Y-85775789D01*
X116061692Y-85774365D01*
X115835000Y-85754532D01*
X115608308Y-85774365D01*
X115602995Y-85775789D01*
X115602993Y-85775789D01*
X115393814Y-85831838D01*
X115393812Y-85831839D01*
X115388504Y-85833261D01*
X115383524Y-85835583D01*
X115383522Y-85835584D01*
X115187247Y-85927109D01*
X115187244Y-85927111D01*
X115182266Y-85929432D01*
X114995861Y-86059953D01*
X114834953Y-86220861D01*
X114831794Y-86225373D01*
X114732867Y-86366656D01*
X114677410Y-86410985D01*
X114629654Y-86420386D01*
X110920781Y-86420386D01*
X110852433Y-86400238D01*
X110728719Y-86320357D01*
X110723681Y-86317104D01*
X110707917Y-86310751D01*
X110652211Y-86266736D01*
X110629144Y-86199591D01*
X110646041Y-86130635D01*
X110697536Y-86081759D01*
X110755015Y-86067885D01*
X110773039Y-86067885D01*
X110779860Y-86067515D01*
X110830722Y-86061991D01*
X110845974Y-86058365D01*
X110966424Y-86013210D01*
X110982019Y-86004672D01*
X111084094Y-85928171D01*
X111096655Y-85915610D01*
X111173156Y-85813535D01*
X111181694Y-85797940D01*
X111226848Y-85677492D01*
X111230475Y-85662237D01*
X111236001Y-85611372D01*
X111236370Y-85604558D01*
X111236370Y-85307001D01*
X111231895Y-85291762D01*
X111230505Y-85290557D01*
X111222822Y-85288886D01*
X108738486Y-85288886D01*
X108723247Y-85293361D01*
X108722042Y-85294751D01*
X108720371Y-85302434D01*
X108720371Y-85604555D01*
X108720741Y-85611376D01*
X108726265Y-85662238D01*
X108729891Y-85677490D01*
X108775046Y-85797940D01*
X108783584Y-85813535D01*
X108860085Y-85915610D01*
X108872646Y-85928171D01*
X108974721Y-86004672D01*
X108990316Y-86013210D01*
X109110764Y-86058364D01*
X109126019Y-86061991D01*
X109176884Y-86067517D01*
X109183698Y-86067886D01*
X109208271Y-86067886D01*
X109276392Y-86087888D01*
X109322885Y-86141544D01*
X109332989Y-86211818D01*
X109303495Y-86276398D01*
X109265964Y-86305901D01*
X109220138Y-86329503D01*
X109147894Y-86366711D01*
X109147891Y-86366713D01*
X109142563Y-86369457D01*
X108973672Y-86502123D01*
X108969741Y-86506653D01*
X108969740Y-86506654D01*
X108945895Y-86534133D01*
X108832915Y-86664332D01*
X108725369Y-86850231D01*
X108654917Y-87053112D01*
X108654057Y-87059045D01*
X108654056Y-87059048D01*
X108633770Y-87198963D01*
X108624100Y-87265655D01*
X108634029Y-87480192D01*
X108684348Y-87688980D01*
X108686830Y-87694438D01*
X108686831Y-87694442D01*
X108706797Y-87738354D01*
X108773239Y-87884486D01*
X108897496Y-88059656D01*
X108901819Y-88063795D01*
X108901823Y-88063799D01*
X109030952Y-88187413D01*
X109052635Y-88208170D01*
X109233059Y-88324668D01*
X109287354Y-88346550D01*
X109343057Y-88390563D01*
X109366124Y-88457708D01*
X109349227Y-88526664D01*
X109297945Y-88575430D01*
X109147894Y-88652711D01*
X109147891Y-88652713D01*
X109142563Y-88655457D01*
X108973672Y-88788123D01*
X108832915Y-88950332D01*
X108725369Y-89136231D01*
X108654917Y-89339112D01*
X108654057Y-89345045D01*
X108654056Y-89345048D01*
X108635528Y-89472837D01*
X108624100Y-89551655D01*
X108634029Y-89766192D01*
X108684348Y-89974980D01*
X108686830Y-89980438D01*
X108686831Y-89980442D01*
X108733007Y-90082000D01*
X108773239Y-90170486D01*
X108890896Y-90336351D01*
X108893910Y-90340600D01*
X108917008Y-90407734D01*
X108900144Y-90476699D01*
X108848672Y-90525598D01*
X108791140Y-90539500D01*
X108419303Y-90539500D01*
X108351182Y-90519498D01*
X108330208Y-90502595D01*
X107015962Y-89188349D01*
X106981936Y-89126037D01*
X106979536Y-89110235D01*
X106961115Y-88899675D01*
X106961114Y-88899670D01*
X106960635Y-88894194D01*
X106958363Y-88885715D01*
X106903162Y-88679700D01*
X106903161Y-88679698D01*
X106901739Y-88674390D01*
X106894638Y-88659161D01*
X106807891Y-88473133D01*
X106807889Y-88473130D01*
X106805568Y-88468152D01*
X106675047Y-88281747D01*
X106612405Y-88219105D01*
X106578379Y-88156793D01*
X106575500Y-88130010D01*
X106575500Y-87960787D01*
X106577051Y-87941076D01*
X106578187Y-87933904D01*
X106579219Y-87927388D01*
X106578787Y-87919133D01*
X106575673Y-87859727D01*
X106575500Y-87853133D01*
X106575500Y-87832808D01*
X106573943Y-87817990D01*
X106573375Y-87812585D01*
X106572858Y-87806011D01*
X106569658Y-87744955D01*
X106569658Y-87744954D01*
X106569312Y-87738354D01*
X106565726Y-87724971D01*
X106562123Y-87705533D01*
X106561364Y-87698312D01*
X106560674Y-87691744D01*
X106539729Y-87627281D01*
X106537860Y-87620973D01*
X106531428Y-87596968D01*
X106520320Y-87555512D01*
X106514027Y-87543160D01*
X106506464Y-87524903D01*
X106506023Y-87523547D01*
X106502179Y-87511716D01*
X106480521Y-87474203D01*
X106468297Y-87453029D01*
X106465151Y-87447234D01*
X106437381Y-87392734D01*
X106437379Y-87392731D01*
X106434383Y-87386851D01*
X106425661Y-87376080D01*
X106414466Y-87359791D01*
X106407533Y-87347784D01*
X106374102Y-87310655D01*
X106362185Y-87297420D01*
X106357901Y-87292404D01*
X106351158Y-87284078D01*
X106345119Y-87276620D01*
X106330770Y-87262271D01*
X106326229Y-87257487D01*
X106285286Y-87212015D01*
X106285284Y-87212014D01*
X106280871Y-87207112D01*
X106269649Y-87198959D01*
X106254621Y-87186122D01*
X103831270Y-84762771D01*
X108720370Y-84762771D01*
X108724845Y-84778010D01*
X108726235Y-84779215D01*
X108733918Y-84780886D01*
X109706255Y-84780886D01*
X109721494Y-84776411D01*
X109722699Y-84775021D01*
X109724370Y-84767338D01*
X109724370Y-84762771D01*
X110232370Y-84762771D01*
X110236845Y-84778010D01*
X110238235Y-84779215D01*
X110245918Y-84780886D01*
X111218254Y-84780886D01*
X111233493Y-84776411D01*
X111234698Y-84775021D01*
X111236369Y-84767338D01*
X111236369Y-84465217D01*
X111235999Y-84458396D01*
X111230475Y-84407534D01*
X111226849Y-84392282D01*
X111181694Y-84271832D01*
X111173156Y-84256237D01*
X111096655Y-84154162D01*
X111084094Y-84141601D01*
X110982019Y-84065100D01*
X110966424Y-84056562D01*
X110845976Y-84011408D01*
X110830721Y-84007781D01*
X110779856Y-84002255D01*
X110773042Y-84001886D01*
X110250485Y-84001886D01*
X110235246Y-84006361D01*
X110234041Y-84007751D01*
X110232370Y-84015434D01*
X110232370Y-84762771D01*
X109724370Y-84762771D01*
X109724370Y-84020002D01*
X109719895Y-84004763D01*
X109718505Y-84003558D01*
X109710822Y-84001887D01*
X109183701Y-84001887D01*
X109176880Y-84002257D01*
X109126018Y-84007781D01*
X109110766Y-84011407D01*
X108990316Y-84056562D01*
X108974721Y-84065100D01*
X108872646Y-84141601D01*
X108860085Y-84154162D01*
X108783584Y-84256237D01*
X108775046Y-84271832D01*
X108729892Y-84392280D01*
X108726265Y-84407535D01*
X108720739Y-84458400D01*
X108720370Y-84465214D01*
X108720370Y-84762771D01*
X103831270Y-84762771D01*
X102537405Y-83468906D01*
X102503379Y-83406594D01*
X102500500Y-83379811D01*
X102500500Y-81200000D01*
X103429532Y-81200000D01*
X103449365Y-81426692D01*
X103450789Y-81432005D01*
X103450789Y-81432007D01*
X103497429Y-81606069D01*
X103508261Y-81646496D01*
X103510583Y-81651476D01*
X103510584Y-81651478D01*
X103586547Y-81814379D01*
X103604432Y-81852734D01*
X103734953Y-82039139D01*
X103895861Y-82200047D01*
X104082266Y-82330568D01*
X104087244Y-82332889D01*
X104087247Y-82332891D01*
X104190719Y-82381141D01*
X104288504Y-82426739D01*
X104293812Y-82428161D01*
X104293814Y-82428162D01*
X104502993Y-82484211D01*
X104502995Y-82484211D01*
X104508308Y-82485635D01*
X104735000Y-82505468D01*
X104961692Y-82485635D01*
X104967005Y-82484211D01*
X104967007Y-82484211D01*
X105176186Y-82428162D01*
X105176188Y-82428161D01*
X105181496Y-82426739D01*
X105279281Y-82381141D01*
X105382753Y-82332891D01*
X105382756Y-82332889D01*
X105387734Y-82330568D01*
X105574139Y-82200047D01*
X105735047Y-82039139D01*
X105865568Y-81852734D01*
X105883454Y-81814379D01*
X105941837Y-81689176D01*
X105988755Y-81635891D01*
X106057032Y-81616430D01*
X106124992Y-81636972D01*
X106170227Y-81689177D01*
X106222521Y-81801323D01*
X106227998Y-81810811D01*
X106342925Y-81974942D01*
X106349981Y-81983350D01*
X106491650Y-82125019D01*
X106500058Y-82132075D01*
X106664189Y-82247002D01*
X106673677Y-82252479D01*
X106855273Y-82337158D01*
X106865577Y-82340908D01*
X107003503Y-82377866D01*
X107017599Y-82377530D01*
X107021000Y-82369588D01*
X107021000Y-82364439D01*
X107529000Y-82364439D01*
X107532973Y-82377970D01*
X107541522Y-82379199D01*
X107684423Y-82340908D01*
X107694727Y-82337158D01*
X107876323Y-82252479D01*
X107885811Y-82247002D01*
X108049942Y-82132075D01*
X108058350Y-82125019D01*
X108200019Y-81983350D01*
X108207075Y-81974942D01*
X108322002Y-81810811D01*
X108327479Y-81801323D01*
X108412158Y-81619727D01*
X108415908Y-81609423D01*
X108452866Y-81471497D01*
X108452530Y-81457401D01*
X108444588Y-81454000D01*
X107547115Y-81454000D01*
X107531876Y-81458475D01*
X107530671Y-81459865D01*
X107529000Y-81467548D01*
X107529000Y-82364439D01*
X107021000Y-82364439D01*
X107021000Y-80927885D01*
X107529000Y-80927885D01*
X107533475Y-80943124D01*
X107534865Y-80944329D01*
X107542548Y-80946000D01*
X108439439Y-80946000D01*
X108452970Y-80942027D01*
X108454199Y-80933478D01*
X108415908Y-80790577D01*
X108412158Y-80780273D01*
X108327479Y-80598677D01*
X108322002Y-80589189D01*
X108207075Y-80425058D01*
X108200019Y-80416650D01*
X108058350Y-80274981D01*
X108049942Y-80267925D01*
X107885811Y-80152998D01*
X107876323Y-80147521D01*
X107694727Y-80062842D01*
X107684423Y-80059092D01*
X107546497Y-80022134D01*
X107532401Y-80022470D01*
X107529000Y-80030412D01*
X107529000Y-80927885D01*
X107021000Y-80927885D01*
X107021000Y-80035561D01*
X107017027Y-80022030D01*
X107008478Y-80020801D01*
X106865577Y-80059092D01*
X106855273Y-80062842D01*
X106673677Y-80147521D01*
X106664189Y-80152998D01*
X106500058Y-80267925D01*
X106491650Y-80274981D01*
X106349981Y-80416650D01*
X106342925Y-80425058D01*
X106227998Y-80589189D01*
X106222521Y-80598677D01*
X106170227Y-80710823D01*
X106123310Y-80764109D01*
X106055033Y-80783570D01*
X105987073Y-80763028D01*
X105941837Y-80710824D01*
X105867891Y-80552247D01*
X105867889Y-80552244D01*
X105865568Y-80547266D01*
X105735047Y-80360861D01*
X105574139Y-80199953D01*
X105387734Y-80069432D01*
X105382756Y-80067111D01*
X105382753Y-80067109D01*
X105186478Y-79975584D01*
X105186476Y-79975583D01*
X105181496Y-79973261D01*
X105176188Y-79971839D01*
X105176186Y-79971838D01*
X104967007Y-79915789D01*
X104967005Y-79915789D01*
X104961692Y-79914365D01*
X104735000Y-79894532D01*
X104508308Y-79914365D01*
X104502995Y-79915789D01*
X104502993Y-79915789D01*
X104293814Y-79971838D01*
X104293812Y-79971839D01*
X104288504Y-79973261D01*
X104283524Y-79975583D01*
X104283522Y-79975584D01*
X104087247Y-80067109D01*
X104087244Y-80067111D01*
X104082266Y-80069432D01*
X103895861Y-80199953D01*
X103734953Y-80360861D01*
X103604432Y-80547266D01*
X103602111Y-80552244D01*
X103602109Y-80552247D01*
X103511170Y-80747266D01*
X103508261Y-80753504D01*
X103506839Y-80758812D01*
X103506838Y-80758814D01*
X103494412Y-80805189D01*
X103449365Y-80973308D01*
X103429532Y-81200000D01*
X102500500Y-81200000D01*
X102500500Y-71351885D01*
X109497000Y-71351885D01*
X109501475Y-71367124D01*
X109502865Y-71368329D01*
X109510548Y-71370000D01*
X110482885Y-71370000D01*
X110498124Y-71365525D01*
X110499329Y-71364135D01*
X110501000Y-71356452D01*
X110501000Y-71351885D01*
X111009000Y-71351885D01*
X111013475Y-71367124D01*
X111014865Y-71368329D01*
X111022548Y-71370000D01*
X111994884Y-71370000D01*
X112010123Y-71365525D01*
X112011328Y-71364135D01*
X112012999Y-71356452D01*
X112012999Y-71054331D01*
X112012629Y-71047510D01*
X112007105Y-70996648D01*
X112003479Y-70981396D01*
X111958324Y-70860946D01*
X111949786Y-70845351D01*
X111873285Y-70743276D01*
X111860724Y-70730715D01*
X111758649Y-70654214D01*
X111743054Y-70645676D01*
X111622606Y-70600522D01*
X111607351Y-70596895D01*
X111556486Y-70591369D01*
X111549672Y-70591000D01*
X111027115Y-70591000D01*
X111011876Y-70595475D01*
X111010671Y-70596865D01*
X111009000Y-70604548D01*
X111009000Y-71351885D01*
X110501000Y-71351885D01*
X110501000Y-70609116D01*
X110496525Y-70593877D01*
X110495135Y-70592672D01*
X110487452Y-70591001D01*
X109960331Y-70591001D01*
X109953510Y-70591371D01*
X109902648Y-70596895D01*
X109887396Y-70600521D01*
X109766946Y-70645676D01*
X109751351Y-70654214D01*
X109649276Y-70730715D01*
X109636715Y-70743276D01*
X109560214Y-70845351D01*
X109551676Y-70860946D01*
X109506522Y-70981394D01*
X109502895Y-70996649D01*
X109497369Y-71047514D01*
X109497000Y-71054328D01*
X109497000Y-71351885D01*
X102500500Y-71351885D01*
X102500500Y-70366522D01*
X117092273Y-70366522D01*
X117139764Y-70543761D01*
X117143510Y-70554053D01*
X117235586Y-70751511D01*
X117241069Y-70761007D01*
X117366028Y-70939467D01*
X117373084Y-70947875D01*
X117527125Y-71101916D01*
X117535533Y-71108972D01*
X117713993Y-71233931D01*
X117723489Y-71239414D01*
X117920947Y-71331490D01*
X117931239Y-71335236D01*
X118103503Y-71381394D01*
X118117599Y-71381058D01*
X118121000Y-71373116D01*
X118121000Y-71367967D01*
X118629000Y-71367967D01*
X118632973Y-71381498D01*
X118641522Y-71382727D01*
X118818761Y-71335236D01*
X118829053Y-71331490D01*
X119026511Y-71239414D01*
X119036007Y-71233931D01*
X119214467Y-71108972D01*
X119222875Y-71101916D01*
X119376916Y-70947875D01*
X119383972Y-70939467D01*
X119508931Y-70761007D01*
X119514414Y-70751511D01*
X119606490Y-70554053D01*
X119610236Y-70543761D01*
X119656394Y-70371497D01*
X119656058Y-70357401D01*
X119648116Y-70354000D01*
X118647115Y-70354000D01*
X118631876Y-70358475D01*
X118630671Y-70359865D01*
X118629000Y-70367548D01*
X118629000Y-71367967D01*
X118121000Y-71367967D01*
X118121000Y-70372115D01*
X118116525Y-70356876D01*
X118115135Y-70355671D01*
X118107452Y-70354000D01*
X117107033Y-70354000D01*
X117093502Y-70357973D01*
X117092273Y-70366522D01*
X102500500Y-70366522D01*
X102500500Y-69744261D01*
X111595294Y-69744261D01*
X111604590Y-69756276D01*
X111634189Y-69777001D01*
X111643677Y-69782479D01*
X111825277Y-69867159D01*
X111835571Y-69870907D01*
X112029122Y-69922769D01*
X112039909Y-69924671D01*
X112239525Y-69942135D01*
X112250475Y-69942135D01*
X112450091Y-69924671D01*
X112460878Y-69922769D01*
X112654429Y-69870907D01*
X112664723Y-69867159D01*
X112846323Y-69782479D01*
X112855811Y-69777001D01*
X112886248Y-69755689D01*
X112894623Y-69745212D01*
X112887554Y-69731764D01*
X112257812Y-69102022D01*
X112243868Y-69094408D01*
X112242035Y-69094539D01*
X112235420Y-69098790D01*
X111601724Y-69732486D01*
X111595294Y-69744261D01*
X102500500Y-69744261D01*
X102500500Y-68735475D01*
X111032865Y-68735475D01*
X111050329Y-68935091D01*
X111052231Y-68945878D01*
X111104093Y-69139429D01*
X111107841Y-69149723D01*
X111192521Y-69331323D01*
X111197999Y-69340811D01*
X111219311Y-69371248D01*
X111229788Y-69379623D01*
X111243236Y-69372554D01*
X111872978Y-68742812D01*
X111880592Y-68728868D01*
X111880461Y-68727035D01*
X111876210Y-68720420D01*
X111242514Y-68086724D01*
X111230739Y-68080294D01*
X111218724Y-68089590D01*
X111197999Y-68119189D01*
X111192521Y-68128677D01*
X111107841Y-68310277D01*
X111104093Y-68320571D01*
X111052231Y-68514122D01*
X111050329Y-68524909D01*
X111032865Y-68724525D01*
X111032865Y-68735475D01*
X102500500Y-68735475D01*
X102500500Y-67714788D01*
X111595377Y-67714788D01*
X111602446Y-67728236D01*
X112232188Y-68357978D01*
X112246132Y-68365592D01*
X112247965Y-68365461D01*
X112254580Y-68361210D01*
X112888276Y-67727514D01*
X112894706Y-67715739D01*
X112885410Y-67703724D01*
X112855811Y-67682999D01*
X112846323Y-67677521D01*
X112664723Y-67592841D01*
X112654429Y-67589093D01*
X112460878Y-67537231D01*
X112450091Y-67535329D01*
X112250475Y-67517865D01*
X112239525Y-67517865D01*
X112039909Y-67535329D01*
X112029122Y-67537231D01*
X111835571Y-67589093D01*
X111825277Y-67592841D01*
X111643677Y-67677521D01*
X111634189Y-67682999D01*
X111603752Y-67704311D01*
X111595377Y-67714788D01*
X102500500Y-67714788D01*
X102500500Y-61385189D01*
X102520502Y-61317068D01*
X102537405Y-61296094D01*
X104843674Y-58989825D01*
X104865925Y-58955562D01*
X104873672Y-58944899D01*
X104895229Y-58918279D01*
X104895230Y-58918278D01*
X104899383Y-58913149D01*
X104904373Y-58903356D01*
X104917932Y-58876746D01*
X104924524Y-58865328D01*
X104930046Y-58856824D01*
X104946771Y-58831070D01*
X104961412Y-58792928D01*
X104966766Y-58780901D01*
X104985320Y-58744488D01*
X104987027Y-58738119D01*
X104987030Y-58738110D01*
X104995898Y-58705015D01*
X104999967Y-58692490D01*
X105014607Y-58654350D01*
X105020997Y-58614006D01*
X105023739Y-58601107D01*
X105032603Y-58568025D01*
X105032603Y-58568023D01*
X105034312Y-58561646D01*
X105036450Y-58520851D01*
X105037828Y-58507740D01*
X105040532Y-58490671D01*
X105041921Y-58481900D01*
X105043187Y-58473905D01*
X105043187Y-58473904D01*
X105044219Y-58467388D01*
X105043874Y-58460801D01*
X105043874Y-58460796D01*
X105042081Y-58426595D01*
X105042081Y-58413405D01*
X105043874Y-58379204D01*
X105043874Y-58379199D01*
X105044219Y-58372612D01*
X105037827Y-58332255D01*
X105036450Y-58319145D01*
X105034658Y-58284949D01*
X105034658Y-58284946D01*
X105034312Y-58278354D01*
X105029793Y-58261489D01*
X105025500Y-58228878D01*
X105025500Y-57366070D01*
X110072026Y-57366070D01*
X110072323Y-57371222D01*
X110072323Y-57371226D01*
X110080142Y-57506827D01*
X110086230Y-57612401D01*
X110087367Y-57617447D01*
X110087368Y-57617453D01*
X110114105Y-57736094D01*
X110140475Y-57853105D01*
X110233304Y-58081717D01*
X110236009Y-58086132D01*
X110236010Y-58086133D01*
X110282509Y-58162011D01*
X110362226Y-58292097D01*
X110523777Y-58478597D01*
X110527752Y-58481897D01*
X110527755Y-58481900D01*
X110631205Y-58567786D01*
X110670840Y-58626689D01*
X110676720Y-58664730D01*
X110676720Y-64006904D01*
X110656718Y-64075025D01*
X110639815Y-64095999D01*
X110554953Y-64180861D01*
X110424432Y-64367266D01*
X110422111Y-64372244D01*
X110422109Y-64372247D01*
X110333448Y-64562381D01*
X110328261Y-64573504D01*
X110269365Y-64793308D01*
X110249532Y-65020000D01*
X110269365Y-65246692D01*
X110270789Y-65252005D01*
X110270789Y-65252007D01*
X110319215Y-65432734D01*
X110328261Y-65466496D01*
X110330583Y-65471476D01*
X110330584Y-65471478D01*
X110421898Y-65667299D01*
X110424432Y-65672734D01*
X110554953Y-65859139D01*
X110715861Y-66020047D01*
X110902266Y-66150568D01*
X110907244Y-66152889D01*
X110907247Y-66152891D01*
X111103522Y-66244416D01*
X111108504Y-66246739D01*
X111113812Y-66248161D01*
X111113814Y-66248162D01*
X111322993Y-66304211D01*
X111322995Y-66304211D01*
X111328308Y-66305635D01*
X111555000Y-66325468D01*
X111781692Y-66305635D01*
X111787005Y-66304211D01*
X111787007Y-66304211D01*
X111996186Y-66248162D01*
X111996188Y-66248161D01*
X112001496Y-66246739D01*
X112006478Y-66244416D01*
X112202753Y-66152891D01*
X112202756Y-66152889D01*
X112207734Y-66150568D01*
X112394139Y-66020047D01*
X112555047Y-65859139D01*
X112685568Y-65672734D01*
X112688103Y-65667299D01*
X112710805Y-65618613D01*
X112757722Y-65565328D01*
X112826000Y-65545867D01*
X112893959Y-65566409D01*
X112939195Y-65618613D01*
X112961898Y-65667299D01*
X112964432Y-65672734D01*
X113094953Y-65859139D01*
X113255861Y-66020047D01*
X113442266Y-66150568D01*
X113447244Y-66152889D01*
X113447247Y-66152891D01*
X113643522Y-66244416D01*
X113648504Y-66246739D01*
X113653812Y-66248161D01*
X113653814Y-66248162D01*
X113862993Y-66304211D01*
X113862995Y-66304211D01*
X113868308Y-66305635D01*
X114095000Y-66325468D01*
X114321692Y-66305635D01*
X114327005Y-66304211D01*
X114327007Y-66304211D01*
X114536186Y-66248162D01*
X114536188Y-66248161D01*
X114541496Y-66246739D01*
X114546478Y-66244416D01*
X114742753Y-66152891D01*
X114742756Y-66152889D01*
X114747734Y-66150568D01*
X114934139Y-66020047D01*
X114996781Y-65957405D01*
X115059093Y-65923379D01*
X115085876Y-65920500D01*
X117244512Y-65920500D01*
X117312633Y-65940502D01*
X117339749Y-65964002D01*
X117388377Y-66020140D01*
X117388382Y-66020145D01*
X117391763Y-66024048D01*
X117568953Y-66171154D01*
X117573417Y-66173762D01*
X117573419Y-66173764D01*
X117586940Y-66181665D01*
X117635663Y-66233305D01*
X117648733Y-66303088D01*
X117622000Y-66368859D01*
X117599021Y-66391212D01*
X117446125Y-66506009D01*
X117446119Y-66506015D01*
X117441984Y-66509119D01*
X117438410Y-66512859D01*
X117335498Y-66620551D01*
X117273974Y-66655981D01*
X117244404Y-66659500D01*
X116035787Y-66659500D01*
X116016076Y-66657949D01*
X116008904Y-66656813D01*
X116002388Y-66655781D01*
X115995800Y-66656126D01*
X115995796Y-66656126D01*
X115934721Y-66659327D01*
X115928127Y-66659500D01*
X115907808Y-66659500D01*
X115904537Y-66659844D01*
X115904534Y-66659844D01*
X115887595Y-66661624D01*
X115881020Y-66662141D01*
X115857075Y-66663396D01*
X115813355Y-66665687D01*
X115799964Y-66669275D01*
X115780523Y-66672878D01*
X115779319Y-66673004D01*
X115773315Y-66673635D01*
X115773311Y-66673636D01*
X115766744Y-66674326D01*
X115728962Y-66686603D01*
X115702298Y-66695266D01*
X115695972Y-66697140D01*
X115636885Y-66712972D01*
X115636882Y-66712973D01*
X115630512Y-66714680D01*
X115624633Y-66717676D01*
X115624629Y-66717677D01*
X115618160Y-66720973D01*
X115599903Y-66728536D01*
X115586716Y-66732821D01*
X115581001Y-66736121D01*
X115581000Y-66736121D01*
X115528029Y-66766703D01*
X115522234Y-66769849D01*
X115473456Y-66794704D01*
X115461851Y-66800617D01*
X115456718Y-66804774D01*
X115451083Y-66809337D01*
X115434786Y-66820538D01*
X115422784Y-66827467D01*
X115417879Y-66831883D01*
X115417874Y-66831887D01*
X115372421Y-66872812D01*
X115367411Y-66877092D01*
X115351620Y-66889880D01*
X115337261Y-66904239D01*
X115332477Y-66908780D01*
X115282112Y-66954129D01*
X115273968Y-66965339D01*
X115261125Y-66980376D01*
X114852463Y-67389038D01*
X114790151Y-67423064D01*
X114774351Y-67425464D01*
X114721894Y-67430053D01*
X114563789Y-67443885D01*
X114563784Y-67443886D01*
X114558308Y-67444365D01*
X114552995Y-67445789D01*
X114552993Y-67445789D01*
X114343814Y-67501838D01*
X114343812Y-67501839D01*
X114338504Y-67503261D01*
X114333524Y-67505583D01*
X114333522Y-67505584D01*
X114137247Y-67597109D01*
X114137244Y-67597111D01*
X114132266Y-67599432D01*
X113945861Y-67729953D01*
X113784953Y-67890861D01*
X113654432Y-68077266D01*
X113652111Y-68082244D01*
X113652109Y-68082247D01*
X113578163Y-68240824D01*
X113531245Y-68294109D01*
X113462968Y-68313570D01*
X113395008Y-68293028D01*
X113349773Y-68240823D01*
X113297479Y-68128677D01*
X113292001Y-68119189D01*
X113270689Y-68088752D01*
X113260212Y-68080377D01*
X113246764Y-68087446D01*
X112617022Y-68717188D01*
X112609408Y-68731132D01*
X112609539Y-68732965D01*
X112613790Y-68739580D01*
X113247486Y-69373276D01*
X113259261Y-69379706D01*
X113271276Y-69370410D01*
X113292001Y-69340811D01*
X113297479Y-69331323D01*
X113349773Y-69219177D01*
X113396690Y-69165891D01*
X113464967Y-69146430D01*
X113532927Y-69166972D01*
X113578163Y-69219176D01*
X113650022Y-69373276D01*
X113654432Y-69382734D01*
X113784953Y-69569139D01*
X113945861Y-69730047D01*
X114132266Y-69860568D01*
X114137244Y-69862889D01*
X114137247Y-69862891D01*
X114320374Y-69948285D01*
X114338504Y-69956739D01*
X114343812Y-69958161D01*
X114343814Y-69958162D01*
X114552993Y-70014211D01*
X114552995Y-70014211D01*
X114558308Y-70015635D01*
X114785000Y-70035468D01*
X115011692Y-70015635D01*
X115017005Y-70014211D01*
X115017007Y-70014211D01*
X115226186Y-69958162D01*
X115226188Y-69958161D01*
X115231496Y-69956739D01*
X115249626Y-69948285D01*
X115432753Y-69862891D01*
X115432756Y-69862889D01*
X115437734Y-69860568D01*
X115624139Y-69730047D01*
X115785047Y-69569139D01*
X115915568Y-69382734D01*
X115919979Y-69373276D01*
X116009416Y-69181478D01*
X116009417Y-69181476D01*
X116011739Y-69176496D01*
X116032750Y-69098084D01*
X116069211Y-68962007D01*
X116069211Y-68962005D01*
X116070635Y-68956692D01*
X116089536Y-68740650D01*
X116115399Y-68674533D01*
X116125962Y-68662537D01*
X116208500Y-68580000D01*
X116291096Y-68497404D01*
X116353408Y-68463379D01*
X116380191Y-68460500D01*
X117244512Y-68460500D01*
X117312633Y-68480502D01*
X117339749Y-68504002D01*
X117388377Y-68560140D01*
X117388382Y-68560145D01*
X117391763Y-68564048D01*
X117568953Y-68711154D01*
X117664686Y-68767096D01*
X117676679Y-68774104D01*
X117725402Y-68825743D01*
X117738473Y-68895526D01*
X117711741Y-68961298D01*
X117685379Y-68986105D01*
X117535533Y-69091028D01*
X117527125Y-69098084D01*
X117373084Y-69252125D01*
X117366028Y-69260533D01*
X117241069Y-69438993D01*
X117235586Y-69448489D01*
X117143510Y-69645947D01*
X117139764Y-69656239D01*
X117093606Y-69828503D01*
X117093942Y-69842599D01*
X117101884Y-69846000D01*
X119642967Y-69846000D01*
X119656498Y-69842027D01*
X119657727Y-69833478D01*
X119610236Y-69656239D01*
X119606490Y-69645947D01*
X119514414Y-69448489D01*
X119508931Y-69438993D01*
X119383972Y-69260533D01*
X119376916Y-69252125D01*
X119222875Y-69098084D01*
X119214467Y-69091028D01*
X119067797Y-68988329D01*
X119023469Y-68932872D01*
X119016160Y-68862253D01*
X119048191Y-68798892D01*
X119084630Y-68771968D01*
X119094574Y-68767096D01*
X119282062Y-68633363D01*
X119445190Y-68470803D01*
X119452594Y-68460500D01*
X119576559Y-68287983D01*
X119579577Y-68283783D01*
X119590988Y-68260696D01*
X119656439Y-68128264D01*
X119681615Y-68077325D01*
X119716083Y-67963878D01*
X119747059Y-67861927D01*
X119747060Y-67861921D01*
X119748563Y-67856975D01*
X119765285Y-67729953D01*
X119778185Y-67631971D01*
X119778185Y-67631965D01*
X119778622Y-67628649D01*
X119780300Y-67560000D01*
X119761430Y-67330478D01*
X119705326Y-67107120D01*
X119634130Y-66943379D01*
X119615556Y-66900661D01*
X119615554Y-66900658D01*
X119613496Y-66895924D01*
X119504334Y-66727185D01*
X119491215Y-66706906D01*
X119491213Y-66706903D01*
X119488405Y-66702563D01*
X119483471Y-66697140D01*
X119336890Y-66536051D01*
X119336889Y-66536050D01*
X119333412Y-66532229D01*
X119329361Y-66529030D01*
X119329357Y-66529026D01*
X119152681Y-66389496D01*
X119153346Y-66388653D01*
X119111089Y-66338346D01*
X119102064Y-66267925D01*
X119132545Y-66203805D01*
X119153324Y-66185190D01*
X119173002Y-66171154D01*
X119282062Y-66093363D01*
X119445190Y-65930803D01*
X119452594Y-65920500D01*
X119576559Y-65747983D01*
X119579577Y-65743783D01*
X119582284Y-65738307D01*
X119671400Y-65557993D01*
X119681615Y-65537325D01*
X119712969Y-65434129D01*
X119747059Y-65321927D01*
X119747060Y-65321921D01*
X119748563Y-65316975D01*
X119757597Y-65248353D01*
X119778185Y-65091971D01*
X119778185Y-65091965D01*
X119778622Y-65088649D01*
X119780300Y-65020000D01*
X119761430Y-64790478D01*
X119705326Y-64567120D01*
X119632878Y-64400500D01*
X119615556Y-64360661D01*
X119615554Y-64360658D01*
X119613496Y-64355924D01*
X119536964Y-64237624D01*
X119491215Y-64166906D01*
X119491213Y-64166903D01*
X119488405Y-64162563D01*
X119450131Y-64120500D01*
X119369568Y-64031964D01*
X119338516Y-63968118D01*
X119346910Y-63897620D01*
X119392087Y-63842851D01*
X119414543Y-63830755D01*
X119421777Y-63827759D01*
X119477841Y-63804536D01*
X119603282Y-63708282D01*
X119699536Y-63582841D01*
X119760044Y-63436762D01*
X119775500Y-63319361D01*
X119775499Y-61640640D01*
X119774388Y-61632195D01*
X119761122Y-61531425D01*
X119761122Y-61531423D01*
X119760044Y-61523238D01*
X119699536Y-61377159D01*
X119603282Y-61251718D01*
X119477841Y-61155464D01*
X119353282Y-61103870D01*
X119298001Y-61059322D01*
X119275500Y-60987461D01*
X119275500Y-57825189D01*
X119295502Y-57757068D01*
X119312405Y-57736094D01*
X120847537Y-56200962D01*
X120909849Y-56166936D01*
X120925649Y-56164536D01*
X120978106Y-56159947D01*
X121136211Y-56146115D01*
X121136216Y-56146114D01*
X121141692Y-56145635D01*
X121147005Y-56144211D01*
X121147007Y-56144211D01*
X121356186Y-56088162D01*
X121356188Y-56088161D01*
X121361496Y-56086739D01*
X121478828Y-56032026D01*
X121562753Y-55992891D01*
X121562756Y-55992889D01*
X121567734Y-55990568D01*
X121754139Y-55860047D01*
X121915047Y-55699139D01*
X122045568Y-55512734D01*
X122070805Y-55458613D01*
X122117722Y-55405328D01*
X122186000Y-55385867D01*
X122253959Y-55406409D01*
X122299195Y-55458612D01*
X122324432Y-55512734D01*
X122454953Y-55699139D01*
X122615861Y-55860047D01*
X122802266Y-55990568D01*
X122807244Y-55992889D01*
X122807247Y-55992891D01*
X122891172Y-56032026D01*
X123008504Y-56086739D01*
X123013812Y-56088161D01*
X123013814Y-56088162D01*
X123222993Y-56144211D01*
X123222995Y-56144211D01*
X123228308Y-56145635D01*
X123455000Y-56165468D01*
X123681692Y-56145635D01*
X123687005Y-56144211D01*
X123687007Y-56144211D01*
X123896186Y-56088162D01*
X123896188Y-56088161D01*
X123901496Y-56086739D01*
X124018828Y-56032026D01*
X124102753Y-55992891D01*
X124102756Y-55992889D01*
X124107734Y-55990568D01*
X124294139Y-55860047D01*
X124455047Y-55699139D01*
X124585568Y-55512734D01*
X124604831Y-55471426D01*
X124679416Y-55311478D01*
X124679417Y-55311476D01*
X124681739Y-55306496D01*
X124706651Y-55213525D01*
X124739211Y-55092007D01*
X124739211Y-55092005D01*
X124740635Y-55086692D01*
X124760468Y-54860000D01*
X124740635Y-54633308D01*
X124728626Y-54588488D01*
X124683162Y-54418814D01*
X124683161Y-54418812D01*
X124681739Y-54413504D01*
X124671682Y-54391936D01*
X124587891Y-54212247D01*
X124587889Y-54212244D01*
X124585568Y-54207266D01*
X124455047Y-54020861D01*
X124294139Y-53859953D01*
X124107734Y-53729432D01*
X124102756Y-53727111D01*
X124102753Y-53727109D01*
X123906478Y-53635584D01*
X123906476Y-53635583D01*
X123901496Y-53633261D01*
X123896188Y-53631839D01*
X123896186Y-53631838D01*
X123687007Y-53575789D01*
X123687005Y-53575789D01*
X123681692Y-53574365D01*
X123455000Y-53554532D01*
X123228308Y-53574365D01*
X123222995Y-53575789D01*
X123222993Y-53575789D01*
X123013814Y-53631838D01*
X123013812Y-53631839D01*
X123008504Y-53633261D01*
X123003524Y-53635583D01*
X123003522Y-53635584D01*
X122807247Y-53727109D01*
X122807244Y-53727111D01*
X122802266Y-53729432D01*
X122615861Y-53859953D01*
X122454953Y-54020861D01*
X122324432Y-54207266D01*
X122322111Y-54212244D01*
X122322109Y-54212247D01*
X122299195Y-54261387D01*
X122252278Y-54314672D01*
X122184000Y-54334133D01*
X122116041Y-54313591D01*
X122070805Y-54261387D01*
X122047891Y-54212247D01*
X122047889Y-54212244D01*
X122045568Y-54207266D01*
X121915047Y-54020861D01*
X121754139Y-53859953D01*
X121567734Y-53729432D01*
X121562756Y-53727111D01*
X121562753Y-53727109D01*
X121366478Y-53635584D01*
X121366476Y-53635583D01*
X121361496Y-53633261D01*
X121356188Y-53631839D01*
X121356186Y-53631838D01*
X121147007Y-53575789D01*
X121147005Y-53575789D01*
X121141692Y-53574365D01*
X120915000Y-53554532D01*
X120688308Y-53574365D01*
X120682995Y-53575789D01*
X120682993Y-53575789D01*
X120473814Y-53631838D01*
X120473812Y-53631839D01*
X120468504Y-53633261D01*
X120463524Y-53635583D01*
X120463522Y-53635584D01*
X120267247Y-53727109D01*
X120267244Y-53727111D01*
X120262266Y-53729432D01*
X120075861Y-53859953D01*
X119914953Y-54020861D01*
X119784432Y-54207266D01*
X119782111Y-54212244D01*
X119782109Y-54212247D01*
X119698318Y-54391936D01*
X119688261Y-54413504D01*
X119686839Y-54418812D01*
X119686838Y-54418814D01*
X119641374Y-54588488D01*
X119629365Y-54633308D01*
X119628886Y-54638784D01*
X119628885Y-54638789D01*
X119610464Y-54849349D01*
X119584601Y-54915468D01*
X119574038Y-54927463D01*
X117795379Y-56706122D01*
X117780351Y-56718959D01*
X117769129Y-56727112D01*
X117764716Y-56732014D01*
X117764714Y-56732015D01*
X117723771Y-56777487D01*
X117719230Y-56782271D01*
X117704881Y-56796620D01*
X117702805Y-56799184D01*
X117692099Y-56812404D01*
X117687815Y-56817420D01*
X117642467Y-56867784D01*
X117635534Y-56879791D01*
X117624339Y-56896080D01*
X117615617Y-56906851D01*
X117612621Y-56912731D01*
X117612619Y-56912734D01*
X117584849Y-56967234D01*
X117581703Y-56973029D01*
X117551121Y-57026000D01*
X117547821Y-57031716D01*
X117543977Y-57043547D01*
X117543536Y-57044903D01*
X117535973Y-57063160D01*
X117529680Y-57075512D01*
X117527972Y-57081885D01*
X117527970Y-57081891D01*
X117512138Y-57140975D01*
X117510265Y-57147299D01*
X117495792Y-57191843D01*
X117489326Y-57211744D01*
X117488636Y-57218305D01*
X117488636Y-57218307D01*
X117487878Y-57225521D01*
X117484275Y-57244963D01*
X117480687Y-57258354D01*
X117480342Y-57264943D01*
X117480341Y-57264948D01*
X117477142Y-57326017D01*
X117476624Y-57332600D01*
X117474844Y-57349530D01*
X117474843Y-57349541D01*
X117474500Y-57352808D01*
X117474500Y-57373126D01*
X117474327Y-57379720D01*
X117473027Y-57404536D01*
X117470781Y-57447388D01*
X117471813Y-57453904D01*
X117472949Y-57461076D01*
X117474500Y-57480787D01*
X117474500Y-60987461D01*
X117454498Y-61055582D01*
X117396718Y-61103870D01*
X117272159Y-61155464D01*
X117146718Y-61251718D01*
X117050464Y-61377159D01*
X116989956Y-61523238D01*
X116988878Y-61531425D01*
X116988878Y-61531426D01*
X116976193Y-61627783D01*
X116974500Y-61640639D01*
X116974501Y-63319360D01*
X116989956Y-63436762D01*
X117050464Y-63582841D01*
X117146718Y-63708282D01*
X117272159Y-63804536D01*
X117336493Y-63831184D01*
X117391773Y-63875733D01*
X117414194Y-63943096D01*
X117396635Y-64011888D01*
X117379374Y-64034637D01*
X117335496Y-64080553D01*
X117273973Y-64115981D01*
X117244404Y-64119500D01*
X115085876Y-64119500D01*
X115017755Y-64099498D01*
X114996781Y-64082595D01*
X114934139Y-64019953D01*
X114747734Y-63889432D01*
X114742756Y-63887111D01*
X114742753Y-63887109D01*
X114546478Y-63795584D01*
X114546476Y-63795583D01*
X114541496Y-63793261D01*
X114536188Y-63791839D01*
X114536186Y-63791838D01*
X114327007Y-63735789D01*
X114327005Y-63735789D01*
X114321692Y-63734365D01*
X114095000Y-63714532D01*
X113868308Y-63734365D01*
X113862995Y-63735789D01*
X113862993Y-63735789D01*
X113653814Y-63791838D01*
X113653812Y-63791839D01*
X113648504Y-63793261D01*
X113643524Y-63795583D01*
X113643522Y-63795584D01*
X113447247Y-63887109D01*
X113447244Y-63887111D01*
X113442266Y-63889432D01*
X113255861Y-64019953D01*
X113094953Y-64180861D01*
X112964432Y-64367266D01*
X112939608Y-64420502D01*
X112939195Y-64421387D01*
X112892278Y-64474672D01*
X112824000Y-64494133D01*
X112756041Y-64473591D01*
X112710805Y-64421387D01*
X112710393Y-64420502D01*
X112685568Y-64367266D01*
X112555047Y-64180861D01*
X112514625Y-64140439D01*
X112480599Y-64078127D01*
X112477720Y-64051344D01*
X112477720Y-58696735D01*
X112497722Y-58628614D01*
X112551378Y-58582121D01*
X112621652Y-58572017D01*
X112686232Y-58601511D01*
X112703682Y-58620030D01*
X112788938Y-58731138D01*
X112914379Y-58827392D01*
X113060458Y-58887900D01*
X113068646Y-58888978D01*
X113173765Y-58902817D01*
X113177859Y-58903356D01*
X114117106Y-58903356D01*
X115056580Y-58903355D01*
X115060664Y-58902817D01*
X115060670Y-58902817D01*
X115165795Y-58888978D01*
X115165797Y-58888978D01*
X115173982Y-58887900D01*
X115320061Y-58827392D01*
X115445502Y-58731138D01*
X115541756Y-58605697D01*
X115602264Y-58459618D01*
X115613546Y-58373924D01*
X115617182Y-58346304D01*
X115617182Y-58346303D01*
X115617720Y-58342217D01*
X115617719Y-56463496D01*
X115616644Y-56455324D01*
X115603342Y-56354281D01*
X115603342Y-56354279D01*
X115602264Y-56346094D01*
X115541756Y-56200015D01*
X115445502Y-56074574D01*
X115320061Y-55978320D01*
X115173982Y-55917812D01*
X115165794Y-55916734D01*
X115060668Y-55902894D01*
X115060667Y-55902894D01*
X115056581Y-55902356D01*
X114117334Y-55902356D01*
X113177860Y-55902357D01*
X113173776Y-55902895D01*
X113173770Y-55902895D01*
X113068645Y-55916734D01*
X113068643Y-55916734D01*
X113060458Y-55917812D01*
X112914379Y-55978320D01*
X112788938Y-56074574D01*
X112783915Y-56081120D01*
X112735504Y-56144211D01*
X112692684Y-56200015D01*
X112691385Y-56199018D01*
X112646945Y-56241396D01*
X112577232Y-56254835D01*
X112511111Y-56228287D01*
X112510933Y-56228146D01*
X112467018Y-56193464D01*
X112414484Y-56151975D01*
X112414479Y-56151972D01*
X112410430Y-56148774D01*
X112405914Y-56146281D01*
X112405911Y-56146279D01*
X112198942Y-56032026D01*
X112198938Y-56032024D01*
X112194418Y-56029529D01*
X112189549Y-56027805D01*
X112189545Y-56027803D01*
X111966705Y-55948891D01*
X111966701Y-55948890D01*
X111961830Y-55947165D01*
X111956737Y-55946258D01*
X111956734Y-55946257D01*
X111724003Y-55904801D01*
X111723997Y-55904800D01*
X111718914Y-55903895D01*
X111639544Y-55902925D01*
X111477362Y-55900944D01*
X111477360Y-55900944D01*
X111472192Y-55900881D01*
X111228290Y-55938203D01*
X110993760Y-56014859D01*
X110989168Y-56017249D01*
X110989169Y-56017249D01*
X110802039Y-56114663D01*
X110774899Y-56128791D01*
X110770766Y-56131894D01*
X110770763Y-56131896D01*
X110605753Y-56255789D01*
X110577584Y-56276939D01*
X110407116Y-56455324D01*
X110268071Y-56659156D01*
X110265892Y-56663851D01*
X110172706Y-56864604D01*
X110164185Y-56882960D01*
X110098246Y-57120727D01*
X110072026Y-57366070D01*
X105025500Y-57366070D01*
X105025500Y-56600777D01*
X105045502Y-56532656D01*
X105078330Y-56498200D01*
X105092614Y-56488011D01*
X105092617Y-56488008D01*
X105096829Y-56485004D01*
X105271605Y-56310837D01*
X105293407Y-56280497D01*
X105412570Y-56114663D01*
X105415588Y-56110463D01*
X105433326Y-56074574D01*
X105469156Y-56002075D01*
X105524911Y-55889264D01*
X105566482Y-55752439D01*
X105595135Y-55658132D01*
X105595136Y-55658126D01*
X105596639Y-55653180D01*
X105613321Y-55526468D01*
X105628408Y-55411872D01*
X105628409Y-55411866D01*
X105628845Y-55408550D01*
X105630643Y-55335000D01*
X105618450Y-55186695D01*
X105610849Y-55094240D01*
X105610848Y-55094234D01*
X105610425Y-55089089D01*
X105550316Y-54849783D01*
X105451928Y-54623507D01*
X105317905Y-54416339D01*
X105291635Y-54387468D01*
X105245533Y-54336803D01*
X105151846Y-54233842D01*
X105147795Y-54230643D01*
X105147791Y-54230639D01*
X104962264Y-54084119D01*
X104962259Y-54084116D01*
X104958210Y-54080918D01*
X104953694Y-54078425D01*
X104953691Y-54078423D01*
X104746722Y-53964170D01*
X104746718Y-53964168D01*
X104742198Y-53961673D01*
X104737329Y-53959949D01*
X104737325Y-53959947D01*
X104514485Y-53881035D01*
X104514481Y-53881034D01*
X104509610Y-53879309D01*
X104504517Y-53878402D01*
X104504514Y-53878401D01*
X104271783Y-53836945D01*
X104271777Y-53836944D01*
X104266694Y-53836039D01*
X104187324Y-53835069D01*
X104025142Y-53833088D01*
X104025140Y-53833088D01*
X104019972Y-53833025D01*
X103776070Y-53870347D01*
X103541540Y-53947003D01*
X103536948Y-53949393D01*
X103536949Y-53949393D01*
X103354047Y-54044606D01*
X103322679Y-54060935D01*
X103318546Y-54064038D01*
X103318543Y-54064040D01*
X103133784Y-54202761D01*
X103125364Y-54209083D01*
X102954896Y-54387468D01*
X102951985Y-54391736D01*
X102951823Y-54391936D01*
X102893408Y-54432288D01*
X102822451Y-54434652D01*
X102760710Y-54397441D01*
X102615325Y-54237665D01*
X102615323Y-54237663D01*
X102611846Y-54233842D01*
X102607795Y-54230643D01*
X102607791Y-54230639D01*
X102422264Y-54084119D01*
X102422259Y-54084116D01*
X102418210Y-54080918D01*
X102413694Y-54078425D01*
X102413691Y-54078423D01*
X102206722Y-53964170D01*
X102206718Y-53964168D01*
X102202198Y-53961673D01*
X102197329Y-53959949D01*
X102197325Y-53959947D01*
X101974485Y-53881035D01*
X101974481Y-53881034D01*
X101969610Y-53879309D01*
X101964517Y-53878402D01*
X101964514Y-53878401D01*
X101731783Y-53836945D01*
X101731777Y-53836944D01*
X101726694Y-53836039D01*
X101647324Y-53835069D01*
X101485142Y-53833088D01*
X101485140Y-53833088D01*
X101479972Y-53833025D01*
X101236070Y-53870347D01*
X101001540Y-53947003D01*
X100996948Y-53949393D01*
X100996949Y-53949393D01*
X100814047Y-54044606D01*
X100782679Y-54060935D01*
X100778546Y-54064038D01*
X100778543Y-54064040D01*
X100593784Y-54202761D01*
X100585364Y-54209083D01*
X100414896Y-54387468D01*
X100345652Y-54488976D01*
X100290740Y-54533978D01*
X100224009Y-54542742D01*
X100205157Y-54540090D01*
X100193973Y-54545238D01*
X99417021Y-55322189D01*
X99409408Y-55336132D01*
X99409539Y-55337966D01*
X99413790Y-55344580D01*
X100191307Y-56122096D01*
X100205245Y-56129707D01*
X100231189Y-56127851D01*
X100300563Y-56142942D01*
X100347610Y-56187694D01*
X100370006Y-56224241D01*
X100531557Y-56410741D01*
X100535532Y-56414041D01*
X100535535Y-56414044D01*
X100638985Y-56499930D01*
X100678620Y-56558833D01*
X100684500Y-56596874D01*
X100684500Y-58009811D01*
X100664498Y-58077932D01*
X100647595Y-58098906D01*
X98723906Y-60022595D01*
X98661594Y-60056621D01*
X98634811Y-60059500D01*
X89325189Y-60059500D01*
X89257068Y-60039498D01*
X89236094Y-60022595D01*
X87297405Y-58083906D01*
X87263379Y-58021594D01*
X87260500Y-57994811D01*
X87260500Y-57603026D01*
X87280502Y-57534905D01*
X87334158Y-57488412D01*
X87370055Y-57478104D01*
X87461075Y-57466122D01*
X87461077Y-57466122D01*
X87469262Y-57465044D01*
X87615341Y-57404536D01*
X87740782Y-57308282D01*
X87837036Y-57182841D01*
X87897544Y-57036762D01*
X87906328Y-56970040D01*
X87912462Y-56923448D01*
X87912462Y-56923447D01*
X87913000Y-56919361D01*
X87913000Y-56496406D01*
X98248423Y-56496406D01*
X98253704Y-56503461D01*
X98430080Y-56606527D01*
X98439363Y-56610974D01*
X98646003Y-56689883D01*
X98655901Y-56692759D01*
X98872653Y-56736857D01*
X98882883Y-56738076D01*
X99103914Y-56746182D01*
X99114223Y-56745714D01*
X99333623Y-56717608D01*
X99343688Y-56715468D01*
X99555557Y-56651905D01*
X99565152Y-56648144D01*
X99763778Y-56550838D01*
X99772636Y-56545559D01*
X99830097Y-56504572D01*
X99838497Y-56493874D01*
X99831510Y-56480721D01*
X99057811Y-55707021D01*
X99043868Y-55699408D01*
X99042034Y-55699539D01*
X99035420Y-55703790D01*
X98255180Y-56484031D01*
X98248423Y-56496406D01*
X87913000Y-56496406D01*
X87912999Y-55305638D01*
X97632893Y-55305638D01*
X97645627Y-55526468D01*
X97647061Y-55536670D01*
X97695685Y-55752439D01*
X97698773Y-55762292D01*
X97781986Y-55967220D01*
X97786634Y-55976421D01*
X97875097Y-56120781D01*
X97885553Y-56130242D01*
X97894331Y-56126458D01*
X98672979Y-55347811D01*
X98680592Y-55333868D01*
X98680461Y-55332034D01*
X98676210Y-55325420D01*
X97898862Y-54548073D01*
X97887330Y-54541776D01*
X97875048Y-54551399D01*
X97819467Y-54632877D01*
X97814379Y-54641833D01*
X97721252Y-54842459D01*
X97717689Y-54852146D01*
X97658581Y-55065280D01*
X97656650Y-55075400D01*
X97633145Y-55295349D01*
X97632893Y-55305638D01*
X87912999Y-55305638D01*
X87912999Y-54840640D01*
X87909638Y-54815104D01*
X87898622Y-54731425D01*
X87898622Y-54731423D01*
X87897544Y-54723238D01*
X87837036Y-54577159D01*
X87740782Y-54451718D01*
X87615341Y-54355464D01*
X87469262Y-54294956D01*
X87414671Y-54287769D01*
X87355948Y-54280038D01*
X87355947Y-54280038D01*
X87351861Y-54279500D01*
X86360121Y-54279500D01*
X85368140Y-54279501D01*
X85364056Y-54280039D01*
X85364050Y-54280039D01*
X85258925Y-54293878D01*
X85258923Y-54293878D01*
X85250738Y-54294956D01*
X85104659Y-54355464D01*
X84979218Y-54451718D01*
X84974195Y-54458264D01*
X84974191Y-54458268D01*
X84906395Y-54546621D01*
X84849057Y-54588488D01*
X84778186Y-54592710D01*
X84726458Y-54567282D01*
X84713110Y-54556318D01*
X84713106Y-54556315D01*
X84709201Y-54553107D01*
X84534998Y-54451718D01*
X84497580Y-54429940D01*
X84497578Y-54429939D01*
X84493212Y-54427398D01*
X84454433Y-54412512D01*
X84264632Y-54339654D01*
X84264629Y-54339653D01*
X84259903Y-54337839D01*
X84015276Y-54286734D01*
X84010227Y-54286505D01*
X84010221Y-54286504D01*
X83896260Y-54281329D01*
X83765625Y-54275397D01*
X83760605Y-54275978D01*
X83760601Y-54275978D01*
X83667643Y-54286734D01*
X83517373Y-54304121D01*
X83512499Y-54305500D01*
X83512495Y-54305501D01*
X83281776Y-54370788D01*
X83281774Y-54370789D01*
X83276907Y-54372166D01*
X83272332Y-54374300D01*
X83272325Y-54374302D01*
X83153010Y-54429940D01*
X83050413Y-54477782D01*
X83046233Y-54480623D01*
X83046229Y-54480625D01*
X82967723Y-54533978D01*
X82843719Y-54618251D01*
X82662142Y-54789960D01*
X82648089Y-54808341D01*
X82590824Y-54850309D01*
X82519960Y-54854654D01*
X82453478Y-54815137D01*
X82365662Y-54715528D01*
X82365659Y-54715525D01*
X82362314Y-54711731D01*
X82306286Y-54665709D01*
X82173107Y-54556315D01*
X82173104Y-54556313D01*
X82169201Y-54553107D01*
X81994998Y-54451718D01*
X81957580Y-54429940D01*
X81957578Y-54429939D01*
X81953212Y-54427398D01*
X81914433Y-54412512D01*
X81724632Y-54339654D01*
X81724629Y-54339653D01*
X81719903Y-54337839D01*
X81475276Y-54286734D01*
X81470227Y-54286505D01*
X81470221Y-54286504D01*
X81356260Y-54281329D01*
X81225625Y-54275397D01*
X81220605Y-54275978D01*
X81220601Y-54275978D01*
X81127643Y-54286734D01*
X80977373Y-54304121D01*
X80972499Y-54305500D01*
X80972495Y-54305501D01*
X80741776Y-54370788D01*
X80741774Y-54370789D01*
X80736907Y-54372166D01*
X80732332Y-54374300D01*
X80732325Y-54374302D01*
X80613010Y-54429940D01*
X80510413Y-54477782D01*
X80506233Y-54480623D01*
X80506229Y-54480625D01*
X80427723Y-54533978D01*
X80303719Y-54618251D01*
X80122142Y-54789960D01*
X80119064Y-54793986D01*
X80119063Y-54793987D01*
X80072571Y-54854796D01*
X79970354Y-54988490D01*
X79852259Y-55208735D01*
X79770897Y-55445028D01*
X79728360Y-55691290D01*
X79728180Y-55695249D01*
X79728180Y-55695251D01*
X79727646Y-55707021D01*
X79727000Y-55721241D01*
X79727000Y-55990292D01*
X79727202Y-55992800D01*
X79727202Y-55992805D01*
X79741056Y-56164989D01*
X79741990Y-56176603D01*
X79743195Y-56181511D01*
X79743196Y-56181514D01*
X79752609Y-56219837D01*
X79801602Y-56419298D01*
X79803577Y-56423950D01*
X79803578Y-56423954D01*
X79881076Y-56606527D01*
X79899249Y-56649339D01*
X80032419Y-56860810D01*
X80043611Y-56873505D01*
X80194338Y-57044472D01*
X80194341Y-57044475D01*
X80197686Y-57048269D01*
X80201592Y-57051478D01*
X80201602Y-57051487D01*
X80333476Y-57159809D01*
X80373419Y-57218503D01*
X80379500Y-57257173D01*
X80379500Y-57994811D01*
X80359498Y-58062932D01*
X80342595Y-58083906D01*
X73323906Y-65102595D01*
X73261594Y-65136621D01*
X73234811Y-65139500D01*
X68660787Y-65139500D01*
X68641076Y-65137949D01*
X68633904Y-65136813D01*
X68627388Y-65135781D01*
X68620801Y-65136126D01*
X68620796Y-65136126D01*
X68559727Y-65139327D01*
X68553133Y-65139500D01*
X68532808Y-65139500D01*
X68529536Y-65139844D01*
X68529534Y-65139844D01*
X68512585Y-65141625D01*
X68506011Y-65142142D01*
X68444955Y-65145342D01*
X68444954Y-65145342D01*
X68438354Y-65145688D01*
X68426540Y-65148854D01*
X68424971Y-65149274D01*
X68405533Y-65152877D01*
X68391744Y-65154326D01*
X68327281Y-65175271D01*
X68320980Y-65177138D01*
X68255512Y-65194680D01*
X68249633Y-65197676D01*
X68249629Y-65197677D01*
X68243160Y-65200973D01*
X68224903Y-65208536D01*
X68211716Y-65212821D01*
X68206001Y-65216121D01*
X68206000Y-65216121D01*
X68153029Y-65246703D01*
X68147234Y-65249849D01*
X68092734Y-65277619D01*
X68092731Y-65277621D01*
X68086851Y-65280617D01*
X68081722Y-65284771D01*
X68081721Y-65284771D01*
X68076080Y-65289339D01*
X68059791Y-65300534D01*
X68047784Y-65307467D01*
X68042874Y-65311888D01*
X67997420Y-65352815D01*
X67992404Y-65357099D01*
X67984078Y-65363842D01*
X67976620Y-65369881D01*
X67962271Y-65384230D01*
X67957487Y-65388771D01*
X67907112Y-65434129D01*
X67898959Y-65445351D01*
X67886122Y-65460379D01*
X66388805Y-66957696D01*
X66326493Y-66991722D01*
X66289825Y-66994213D01*
X66040000Y-66974551D01*
X65788852Y-66994317D01*
X65784045Y-66995471D01*
X65784039Y-66995472D01*
X65628289Y-67032865D01*
X65543889Y-67053127D01*
X65539318Y-67055020D01*
X65539316Y-67055021D01*
X65315715Y-67147639D01*
X65315711Y-67147641D01*
X65311141Y-67149534D01*
X65096341Y-67281164D01*
X65092581Y-67284376D01*
X65092576Y-67284379D01*
X65032559Y-67335639D01*
X64904776Y-67444776D01*
X64901563Y-67448538D01*
X64744379Y-67632576D01*
X64744376Y-67632581D01*
X64741164Y-67636341D01*
X64609534Y-67851141D01*
X64607641Y-67855711D01*
X64607639Y-67855715D01*
X64515021Y-68079316D01*
X64513127Y-68083889D01*
X64498301Y-68145646D01*
X64455776Y-68322775D01*
X64454317Y-68328852D01*
X64434551Y-68580000D01*
X64008500Y-68580000D01*
X64008500Y-62725028D01*
X66918025Y-62725028D01*
X66955347Y-62968930D01*
X67032003Y-63203460D01*
X67034393Y-63208051D01*
X67090191Y-63315237D01*
X67145935Y-63422321D01*
X67149038Y-63426454D01*
X67149040Y-63426457D01*
X67271375Y-63589392D01*
X67294083Y-63619636D01*
X67472468Y-63790104D01*
X67476740Y-63793018D01*
X67476741Y-63793019D01*
X67532060Y-63830755D01*
X67676300Y-63929149D01*
X67788202Y-63981092D01*
X67895409Y-64030856D01*
X67895413Y-64030857D01*
X67900104Y-64033035D01*
X68137871Y-64098974D01*
X68143008Y-64099523D01*
X68335957Y-64120144D01*
X68335965Y-64120144D01*
X68339292Y-64120500D01*
X70682554Y-64120500D01*
X70685127Y-64120288D01*
X70685138Y-64120288D01*
X70860760Y-64105849D01*
X70860766Y-64105848D01*
X70865911Y-64105425D01*
X71105217Y-64045316D01*
X71331493Y-63946928D01*
X71538661Y-63812905D01*
X71547859Y-63804536D01*
X71610711Y-63747345D01*
X71721158Y-63646846D01*
X71724357Y-63642795D01*
X71724361Y-63642791D01*
X71870881Y-63457264D01*
X71870884Y-63457259D01*
X71874082Y-63453210D01*
X71876577Y-63448691D01*
X71990830Y-63241722D01*
X71990832Y-63241718D01*
X71993327Y-63237198D01*
X72005275Y-63203460D01*
X72073965Y-63009485D01*
X72073966Y-63009481D01*
X72075691Y-63004610D01*
X72090696Y-62920372D01*
X72118055Y-62766783D01*
X72118056Y-62766777D01*
X72118961Y-62761694D01*
X72120493Y-62636286D01*
X72121912Y-62520142D01*
X72121912Y-62520140D01*
X72121975Y-62514972D01*
X72084653Y-62271070D01*
X72007997Y-62036540D01*
X71915250Y-61858375D01*
X71896454Y-61822268D01*
X71896453Y-61822267D01*
X71894065Y-61817679D01*
X71889491Y-61811586D01*
X71749022Y-61624499D01*
X71749020Y-61624496D01*
X71745917Y-61620364D01*
X71661424Y-61539621D01*
X71571269Y-61453467D01*
X71571268Y-61453466D01*
X71567532Y-61449896D01*
X71539212Y-61430577D01*
X71367979Y-61313770D01*
X71367980Y-61313770D01*
X71363700Y-61310851D01*
X71250411Y-61258264D01*
X71144591Y-61209144D01*
X71144587Y-61209143D01*
X71139896Y-61206965D01*
X70902129Y-61141026D01*
X70896992Y-61140477D01*
X70704043Y-61119856D01*
X70704035Y-61119856D01*
X70700708Y-61119500D01*
X68357446Y-61119500D01*
X68354873Y-61119712D01*
X68354862Y-61119712D01*
X68179240Y-61134151D01*
X68179234Y-61134152D01*
X68174089Y-61134575D01*
X67934783Y-61194684D01*
X67708507Y-61293072D01*
X67501339Y-61427095D01*
X67497514Y-61430575D01*
X67497512Y-61430577D01*
X67477237Y-61449026D01*
X67318842Y-61593154D01*
X67315643Y-61597205D01*
X67315639Y-61597209D01*
X67169119Y-61782736D01*
X67169116Y-61782741D01*
X67165918Y-61786790D01*
X67163425Y-61791306D01*
X67163423Y-61791309D01*
X67051117Y-61994752D01*
X67046673Y-62002802D01*
X67044949Y-62007671D01*
X67044947Y-62007675D01*
X67032984Y-62041458D01*
X66964309Y-62235390D01*
X66963402Y-62240483D01*
X66963401Y-62240486D01*
X66925935Y-62450821D01*
X66921039Y-62478306D01*
X66920976Y-62483469D01*
X66918753Y-62665474D01*
X66918025Y-62725028D01*
X64008500Y-62725028D01*
X64008500Y-58977340D01*
X65312000Y-58977340D01*
X65312225Y-58982649D01*
X65326660Y-59152771D01*
X65328452Y-59163259D01*
X65385801Y-59384211D01*
X65389333Y-59394239D01*
X65483085Y-59602363D01*
X65488265Y-59611669D01*
X65615747Y-59801024D01*
X65622406Y-59809307D01*
X65779971Y-59974478D01*
X65787942Y-59981530D01*
X65971082Y-60117790D01*
X65980119Y-60123394D01*
X66183606Y-60226851D01*
X66193459Y-60230852D01*
X66411461Y-60298544D01*
X66421848Y-60300828D01*
X66448043Y-60304300D01*
X66462207Y-60302104D01*
X66466000Y-60288919D01*
X66466000Y-60287282D01*
X66974000Y-60287282D01*
X66977973Y-60300813D01*
X66988580Y-60302338D01*
X67120840Y-60274587D01*
X67131037Y-60271527D01*
X67343340Y-60187685D01*
X67352876Y-60182951D01*
X67548025Y-60064532D01*
X67556618Y-60058266D01*
X67729027Y-59908658D01*
X67736447Y-59901028D01*
X67881180Y-59724512D01*
X67887206Y-59715745D01*
X68000129Y-59517367D01*
X68004595Y-59507703D01*
X68082481Y-59293132D01*
X68085251Y-59282865D01*
X68126081Y-59057068D01*
X68127016Y-59048838D01*
X68127930Y-59029450D01*
X68128000Y-59026474D01*
X68128000Y-58092115D01*
X68123525Y-58076876D01*
X68122135Y-58075671D01*
X68114452Y-58074000D01*
X66992115Y-58074000D01*
X66976876Y-58078475D01*
X66975671Y-58079865D01*
X66974000Y-58087548D01*
X66974000Y-60287282D01*
X66466000Y-60287282D01*
X66466000Y-58092115D01*
X66461525Y-58076876D01*
X66460135Y-58075671D01*
X66452452Y-58074000D01*
X65330115Y-58074000D01*
X65314876Y-58078475D01*
X65313671Y-58079865D01*
X65312000Y-58087548D01*
X65312000Y-58977340D01*
X64008500Y-58977340D01*
X64008500Y-57547885D01*
X65312000Y-57547885D01*
X65316475Y-57563124D01*
X65317865Y-57564329D01*
X65325548Y-57566000D01*
X66447885Y-57566000D01*
X66463124Y-57561525D01*
X66464329Y-57560135D01*
X66466000Y-57552452D01*
X66466000Y-57547885D01*
X66974000Y-57547885D01*
X66978475Y-57563124D01*
X66979865Y-57564329D01*
X66987548Y-57566000D01*
X68109885Y-57566000D01*
X68125124Y-57561525D01*
X68126329Y-57560135D01*
X68128000Y-57552452D01*
X68128000Y-56662660D01*
X68127775Y-56657351D01*
X68113340Y-56487229D01*
X68111548Y-56476741D01*
X68054199Y-56255789D01*
X68050667Y-56245761D01*
X67956915Y-56037637D01*
X67951735Y-56028331D01*
X67824253Y-55838976D01*
X67817594Y-55830693D01*
X67660029Y-55665522D01*
X67652058Y-55658470D01*
X67547449Y-55580639D01*
X71019500Y-55580639D01*
X71019501Y-60059360D01*
X71020039Y-60063444D01*
X71020039Y-60063450D01*
X71033878Y-60168574D01*
X71034956Y-60176762D01*
X71095464Y-60322841D01*
X71191718Y-60448282D01*
X71317159Y-60544536D01*
X71463238Y-60605044D01*
X71471426Y-60606122D01*
X71576545Y-60619961D01*
X71580639Y-60620500D01*
X72519886Y-60620500D01*
X73459360Y-60620499D01*
X73463444Y-60619961D01*
X73463450Y-60619961D01*
X73568575Y-60606122D01*
X73568577Y-60606122D01*
X73576762Y-60605044D01*
X73722841Y-60544536D01*
X73848282Y-60448282D01*
X73944536Y-60322841D01*
X74005044Y-60176762D01*
X74020500Y-60059361D01*
X74020499Y-55580640D01*
X74019819Y-55575468D01*
X74006122Y-55471425D01*
X74006122Y-55471423D01*
X74005044Y-55463238D01*
X73944536Y-55317159D01*
X73848282Y-55191718D01*
X73722841Y-55095464D01*
X73576762Y-55034956D01*
X73568574Y-55033878D01*
X73463448Y-55020038D01*
X73463447Y-55020038D01*
X73459361Y-55019500D01*
X72520114Y-55019500D01*
X71580640Y-55019501D01*
X71576556Y-55020039D01*
X71576550Y-55020039D01*
X71471425Y-55033878D01*
X71471423Y-55033878D01*
X71463238Y-55034956D01*
X71317159Y-55095464D01*
X71191718Y-55191718D01*
X71095464Y-55317159D01*
X71034956Y-55463238D01*
X71033878Y-55471425D01*
X71033878Y-55471426D01*
X71029096Y-55507753D01*
X71019500Y-55580639D01*
X67547449Y-55580639D01*
X67468918Y-55522210D01*
X67459881Y-55516606D01*
X67256394Y-55413149D01*
X67246541Y-55409148D01*
X67028539Y-55341456D01*
X67018152Y-55339172D01*
X66991957Y-55335700D01*
X66977793Y-55337896D01*
X66974000Y-55351081D01*
X66974000Y-57547885D01*
X66466000Y-57547885D01*
X66466000Y-55352718D01*
X66462027Y-55339187D01*
X66451420Y-55337662D01*
X66319160Y-55365413D01*
X66308963Y-55368473D01*
X66096660Y-55452315D01*
X66087124Y-55457049D01*
X65891975Y-55575468D01*
X65883382Y-55581734D01*
X65710973Y-55731342D01*
X65703553Y-55738972D01*
X65558820Y-55915488D01*
X65552794Y-55924255D01*
X65439871Y-56122633D01*
X65435405Y-56132297D01*
X65357519Y-56346868D01*
X65354749Y-56357135D01*
X65313919Y-56582932D01*
X65312984Y-56591162D01*
X65312070Y-56610550D01*
X65312000Y-56613526D01*
X65312000Y-57547885D01*
X64008500Y-57547885D01*
X64008500Y-54175711D01*
X98250508Y-54175711D01*
X98257251Y-54188040D01*
X99032189Y-54962979D01*
X99046132Y-54970592D01*
X99047966Y-54970461D01*
X99054580Y-54966210D01*
X99833994Y-54186795D01*
X99841011Y-54173944D01*
X99833237Y-54163274D01*
X99830902Y-54161430D01*
X99822320Y-54155729D01*
X99628678Y-54048833D01*
X99619272Y-54044606D01*
X99410772Y-53970772D01*
X99400809Y-53968140D01*
X99183047Y-53929350D01*
X99172796Y-53928381D01*
X98951616Y-53925679D01*
X98941332Y-53926399D01*
X98722693Y-53959855D01*
X98712666Y-53962244D01*
X98502426Y-54030961D01*
X98492916Y-54034958D01*
X98296725Y-54137089D01*
X98288007Y-54142578D01*
X98258961Y-54164386D01*
X98250508Y-54175711D01*
X64008500Y-54175711D01*
X64008500Y-51434500D01*
X64028502Y-51366379D01*
X64082158Y-51319886D01*
X64134500Y-51308500D01*
X133985500Y-51308500D01*
X134053621Y-51328502D01*
G37*
%TD.AperFunction*%
%TD*%
M02*
